<?xml version="1.0" encoding="UTF-8"?>
<svg width="250px" height="211px" viewBox="0 0 250 211" version="1.1" xmlns="http://www.w3.org/2000/svg" xmlns:xlink="http://www.w3.org/1999/xlink">
    <!-- Generator: Sketch 63.1 (92452) - https://sketch.com -->
    <title>1-signup</title>
    <desc>Created with Sketch.</desc>
    <g id="End-users" stroke="none" stroke-width="1" fill="none" fill-rule="evenodd">
        <g id="Desktop-HD" transform="translate(-212.000000, -1135.000000)">
            <g id="1-signup" transform="translate(212.000000, 1135.000000)">
                <rect id="Rectangle" fill="#FFFFFF" x="0" y="0.5" width="250" height="210"></rect>
                <g id="fill" transform="translate(40.000000, 12.000000)">
                    <rect id="Rectangle" fill="#FFE7DE" fill-rule="nonzero" transform="translate(67.645979, 135.718472) rotate(-19.172420) translate(-67.645979, -135.718472) " x="65.9960393" y="128.258744" width="3.29987954" height="14.9194553"></rect>
                    <polygon id="Path" fill="#FF9583" fill-rule="nonzero" points="68.9000062 134.280012 66.760006 128.140011 63.6600057 129.220012 65.7400059 135.260012"></polygon>
                    <rect id="Rectangle" fill="#FFE7DE" fill-rule="nonzero" transform="translate(55.990670, 138.841347) rotate(-0.244146) translate(-55.990670, -138.841347) " x="54.3406547" y="131.381279" width="3.30003026" height="14.9201368"></rect>
                    <path d="M57.6400052,131.380012 L54.3400049,131.400012 L54.3800049,140.780013 C55.440005,140.340013 56.6200051,139.840013 57.6800052,139.420012 L57.6400052,131.380012 Z" id="Path" fill="#FF9583" fill-rule="nonzero"></path>
                    <path d="M59.9400054,7.14000064 C59.9400054,7.14000064 51.3400046,35.9400032 41.1400037,57.5400051 C32.4800029,75.9000068 20.9600019,113.06001 20.2400018,138.960012 C20.1400018,142.860013 24.5600022,145.200013 27.7400025,142.920013 C40.3400036,133.860012 66.4400059,116.36001 80.9400072,112.94001 C80.9400072,113.140001 51.5400046,98.7400088 59.9400054,7.14000064 Z" id="Path" fill="#E3F7FC" fill-rule="nonzero"></path>
                    <path d="M47.5200042,42.7600038 C41.2200037,66.0400059 35.4000032,98.9000088 38.0600034,135.760012 C51.5400046,126.680011 69.7200062,115.60001 80.9400072,112.96001 C80.4400072,112.90001 51.6200046,97.9800088 59.9400054,7.15998361 C59.9400054,7.14000064 54.6800049,24.7400022 47.5200042,42.7600038 Z" id="Path" fill="#CCEAF2" fill-rule="nonzero"></path>
                    <path d="M58.5400052,30.3600027 L58.5400052,30.3600027 C58.5400052,30.3600027 48.8000044,77.1800069 59.3400053,122.500011 C67.340006,118.000011 75.0800067,114.32001 80.9400072,112.94001 C80.4800072,112.90001 56.6800051,100.580009 58.5400052,30.3600027 Z" id="Path" fill="#A2D2DD" fill-rule="nonzero"></path>
                    <path d="M12.3600011,116.96001 L8.68000078,124.140011 C8.46000076,124.560011 8.08000072,124.840011 7.62000068,124.920011 L1.30000012,126.020011 C0.22000002,126.200011 -0.300000027,127.480011 0.360000032,128.360011 L9.56000085,140.860013 C9.90000089,141.320013 10.4600009,141.540013 11.020001,141.440013 L18.8000017,140.080013 C19.2600017,140.000013 19.6600018,139.700012 19.8600018,139.300012 L23.5400021,132.120012 C23.7600021,131.700012 24.1400022,131.420012 24.6000022,131.340012 L30.9200028,130.240012 C32.0000029,130.060012 32.5200029,128.780012 31.8600028,127.900011 L22.660002,115.40001 C22.320002,114.94001 21.7600019,114.72001 21.2000019,114.82001 L13.4200012,116.18001 C12.9800012,116.24001 12.5800011,116.54001 12.3600011,116.96001 Z" id="Path" fill="#FFFFFF" fill-rule="nonzero"></path>
                    <path d="M5.5800005,130.420012 C4.96000044,129.580012 5.44000049,128.360011 6.48000058,128.180011 L8.14000073,127.900011 C9.52000085,127.660011 10.720001,126.780011 11.360001,125.520011 L14.2400013,119.900011 C14.5400013,119.340011 15.0800013,118.940011 15.7000014,118.820011 L19.9400018,118.080011 C20.4800018,117.980011 21.0000019,118.200011 21.3200019,118.640011 L26.6400024,125.860011 C27.2600024,126.720011 26.7800024,127.920011 25.7400023,128.100011 L24.0800022,128.380011 C22.700002,128.620011 21.5000019,129.500012 20.8600019,130.760012 L17.9800016,136.380012 C17.6800016,136.940012 17.1400015,137.340012 16.5200015,137.460012 L12.2800011,138.200012 C11.740001,138.300012 11.220001,138.080012 10.900001,137.640012 L5.5800005,130.420012 Z" id="Path" fill="#97DBD2" fill-rule="nonzero"></path>
                    <path d="M32.4000029,122.720011 L48.1200043,113.44001 L46.4400042,110.60001 L30.7200027,119.880011 L26.6400024,119.860011 C25.8600023,119.860011 25.5400023,120.880011 26.1800023,121.320011 L27.8800025,122.480011 L29.9400027,125.300011 L32.4000029,122.720011 Z" id="Path" fill="#FFE7DE" fill-rule="nonzero"></path>
                    <rect id="Rectangle" fill="#FFE7DE" fill-rule="nonzero" transform="translate(77.744135, 107.274858) rotate(-0.968967) translate(-77.744135, -107.274858) " x="70.2838131" y="105.624787" width="14.920643" height="3.30014222"></rect>
                    <path d="M50.2000045,127.500011 L49.1400044,135.180012 C48.9400044,136.660012 50.3800045,137.800012 51.7800046,137.280012 L58.4800052,134.760012 C59.1400053,134.500011 59.6200053,133.920012 59.7200053,133.200012 L60.2000054,129.960012 L61.8000055,132.280012 C62.2600056,132.940012 63.0800056,133.260012 63.8800057,133.080012 L68.4200061,131.980012 C69.5200062,131.720012 70.1600063,130.580012 69.8400062,129.500011 L67.8600061,123.000011 L50.2000045,127.500011 Z" id="Path" fill="#F9DC80" fill-rule="nonzero"></path>
                    <path d="M54.4200049,126.420011 L50.2000045,127.500011 L49.1400044,135.180012 C48.9400044,136.660012 50.3800045,137.800012 51.7800046,137.280012 L54.4000049,136.280012 L54.4200049,126.420011 Z" id="Path" fill="#E2B442" fill-rule="nonzero"></path>
                    <path d="M85.0200076,135.220012 L85.0200076,135.220012 C82.8000074,135.620012 80.6600072,134.120012 80.2800072,131.900012 L57.7000052,4.88000044 C57.3000051,2.66000024 58.8000053,0.520000046 61.0200055,0.140000013 L61.0200055,0.140000013 C63.2400057,-0.260000023 65.3800058,1.24000011 65.7600059,3.46000031 L88.3400079,130.480012 C88.7200079,132.700012 87.2400078,134.820012 85.0200076,135.220012 Z" id="Path" fill="#7A5340" fill-rule="nonzero"></path>
                    <path d="M80.2800072,131.900012 C80.6800072,134.120012 82.8000074,135.600012 85.0200076,135.220012 L85.0200076,135.220012 C87.2400078,134.820012 88.7200055,132.700012 88.3400079,130.480012 L65.7400059,3.44000031 C65.3800058,1.46000013 63.6600057,0.0800000072 61.7200055,0.0600000054 L63.1400056,7.12000064 L80.1400072,101.120009 C80.1400072,101.120009 82.7000074,115.40001 80.1800072,131.360012 L80.2800072,131.900012 Z" id="Path" fill="#604236" fill-rule="nonzero"></path>
                    <path d="M141.740013,119.700011 C141.640013,116.64001 139.340012,114.08001 136.300012,113.62001 C127.020011,112.28001 106.64001,111.46001 87.2400078,125.240011 C65.5600059,140.620013 46.6200042,150.400013 32.5800029,156.040014 C28.4000025,157.720014 27.2400024,163.100015 30.3600027,166.340015 C40.3200036,176.740016 62.8200056,192.980017 97.2400087,177.640016 C139.340012,158.860014 142.220013,133.480012 141.740013,119.700011 Z" id="Path" fill="#D1A790" fill-rule="nonzero"></path>
                    <path d="M55.500005,154.660014 C54.7200049,152.700014 55.480005,150.440013 57.2800051,149.340013 C68.6400061,142.400013 76.7800069,132.380012 76.7800069,132.380012 L76.7800069,132.380012 C59.4800053,143.720013 44.340004,151.320014 32.6000029,156.020014 C28.4200025,157.700014 27.2600024,163.080015 30.3600027,166.320015 C37.9000034,174.180016 52.5800047,185.380012 74.1600066,183.760016 L93.1200083,170.780015 C93.1200083,170.780015 89.400008,170.200015 73.9000066,169.460015 C62.8800056,168.940015 57.5800051,159.880012 55.500005,154.660014 Z" id="Path" fill="#B58872" fill-rule="nonzero"></path>
                    <path d="M141.740013,119.700011 C141.640013,116.64001 139.340012,114.08001 136.300012,113.62001 C133.460012,113.20001 129.560012,112.84001 124.960011,112.94001 C121.160011,113.50001 112.26001,117.44001 103.740009,140.540013 C92.5400051,170.940015 65.9600059,181.180016 57.5400051,182.460016 C68.2400061,185.080017 81.4800073,184.660017 97.2400087,177.640016 C139.340012,158.860014 142.220013,133.480012 141.740013,119.700011 Z" id="Path" fill="#7F5540" fill-rule="nonzero"></path>
                    <path d="M67.600006,183.880016 C76.2200068,184.260016 86.100006,182.600016 97.2400087,177.640016 C139.340012,158.860014 142.200013,133.480012 141.740013,119.700011 C141.640013,116.64001 139.340012,114.08001 136.300012,113.62001 C134.020012,113.28001 131.080012,113.00001 127.640011,112.94001 C123.340011,117.02001 118.180011,124.600011 113.28001,138.600012 C102.940009,168.080015 79.0800071,180.44001 67.600006,183.880016 Z" id="Path" fill="#5E3A2B" fill-rule="nonzero"></path>
                    <path d="M83.8000075,142.420013 C82.5200074,140.620013 80.0200072,140.200013 78.220007,141.480013 C59.5800053,154.780014 40.6800036,162.560015 30.2800027,166.240015 C30.3000027,166.280015 30.3400027,166.300015 30.3600027,166.340015 C32.1600029,168.220015 34.3600031,170.280015 36.9800033,172.320015 C38.7400035,171.660015 40.6200036,170.920015 42.6400038,170.080015 C52.6600047,165.940015 67.7800027,158.740014 82.8600074,147.980013 C84.6600076,146.720013 85.0800076,144.220013 83.8000075,142.420013 Z" id="Path" fill="#A07968" fill-rule="nonzero"></path>
                    <path d="M59.7800053,162.080014 C57.8800052,159.740014 56.5600051,157.220014 55.700005,155.180014 C45.4600041,160.480014 36.3800033,164.080015 30.2600027,166.260015 C30.2800027,166.300015 30.3200027,166.320015 30.3400027,166.360015 C32.1400029,168.240015 34.3400031,170.300015 36.9600033,172.340015 C38.7200035,171.680014 40.6000036,170.940015 42.6200038,170.100015 C47.4000042,168.120015 53.3000048,165.480015 59.7800053,162.080014 Z" id="Path" fill="#896051" fill-rule="nonzero"></path>
                    <path d="M63.1400056,7.14000064 C63.1400056,7.14000064 68.5400061,44.540004 80.1400056,101.140001 C80.1400056,101.140001 112.06001,76.2000068 142.640006,74.4800067 C145.720013,74.3000066 147.200013,70.6200063 145.100013,68.3600061 C130.900012,53.0600047 89.760008,18.1400006 63.1400056,7.14000064 Z" id="Path" fill="#E3F7FC" fill-rule="nonzero"></path>
                    <path d="M80.9400072,182.860016 C80.9400072,182.860016 90.1400081,166.740013 105.540009,159.740013 C120.940007,152.740013 124.140011,143.740013 124.140011,143.740013 L164.140015,143.740013 C164.140015,143.740013 151.740014,202.000018 80.9400072,182.860016 Z" id="Path" fill="#76E5FF" fill-rule="nonzero"></path>
                    <path d="M164.140015,143.740013 L148.980013,143.740013 C145.660013,161.120014 132.080012,185.980017 80.9400072,182.860016 C151.740014,202.000018 164.140015,143.740013 164.140015,143.740013 Z" id="Path" fill="#2ECEFF" fill-rule="nonzero"></path>
                    <path d="M38.5400034,90.5600081 C38.5400034,90.5600081 33.520003,103.100009 26.9600024,109.78001 C26.0600023,110.70001 26.8000024,112.24001 28.0800025,112.12001 C29.8000027,111.94001 31.8600028,111.50001 33.700003,110.40001 C34.6200031,109.86001 35.6600032,109.60001 36.7400033,109.64001 C40.0400036,109.78001 47.0800042,109.66001 51.1200046,105.800009 C51.1200046,105.780009 38.5400034,90.5600081 38.5400034,90.5600081 Z" id="Path" fill="#F46E58" fill-rule="nonzero"></path>
                    <path d="M51.1400046,105.800009 C51.1200046,105.780009 38.5400034,90.5600081 38.5400034,90.5600081 C38.5400034,90.5600081 37.7600034,92.4800083 36.4400029,95.2400085 L36.7400033,96.2400086 L32.9400029,110.82001 C33.200003,110.70001 33.460003,110.560008 33.720003,110.40001 C34.6400031,109.86001 35.6800032,109.60001 36.7600033,109.64001 C40.0400036,109.78001 47.0800042,109.64001 51.1400046,105.800009 Z" id="Path" fill="#D8574A" fill-rule="nonzero"></path>
                    <path d="M57.1400051,103.180009 L49.4400044,105.380009 L37.7200034,112.54001 C36.7400033,113.14001 36.4200033,114.38001 36.9800033,115.38001 L39.2400035,119.440011 C39.8200036,120.460011 41.1200037,120.840011 42.1400038,120.260011 L47.8000043,117.08001 L47.6200043,126.660011 C47.6000043,127.860011 48.7400044,128.720012 49.8800045,128.380011 L67.7800061,123.000011 L64.7000058,112.24001 L71.2000064,111.94001 C72.3800065,111.88001 73.2800066,110.88001 73.2200065,109.72001 L72.9800065,105.080009 C72.9200065,103.940009 71.9800064,103.060009 70.8400063,103.060009 L57.1400051,103.180009 Z" id="Path" fill="#75C6BC" fill-rule="nonzero"></path>
                    <path d="M50.0600045,115.72001 L47.8200043,117.08001 L47.6400043,126.660011 C47.6200043,127.860011 48.7600044,128.720012 49.9000045,128.380011 L52.8000047,127.500011 L54.4000049,126.420011 L53.2800048,117.30001 C53.1000047,115.76001 51.3800046,114.92001 50.0600045,115.72001 Z" id="Path" fill="#54A89C" fill-rule="nonzero"></path>
                    <ellipse id="Oval" fill="#FF9583" fill-rule="nonzero" transform="translate(53.782565, 105.162839) rotate(-15.979236) translate(-53.782565, -105.162839) " cx="53.7825648" cy="105.162839" rx="5.3202134" ry="4.40017649"></ellipse>
                    <path d="M60.7000054,92.2800083 C58.9200053,86.0600077 52.4400047,82.4800074 46.2400041,84.2600075 C40.0400036,86.0400077 38.8800035,91.8000082 40.6600036,98.0000088 C40.8000036,98.4800088 40.9600037,98.9400088 41.1400037,99.4000089 C40.4000036,99.8200089 39.9000036,100.600009 39.9000036,101.520009 C39.9000036,102.860009 40.9800037,103.940009 42.3200038,103.940009 C42.8200038,103.940009 43.2800039,103.780009 43.6800039,103.520009 C46.2200041,106.26001 49.8600045,107.54001 53.9000036,106.38001 C60.1200054,104.600009 62.4800056,98.4800088 60.7000054,92.2800083 Z" id="Path" fill="#FFE7DE" fill-rule="nonzero"></path>
                    <path d="M39.9000036,101.520009 C39.9000036,102.860009 40.9800037,103.940009 42.3200038,103.940009 C42.8200038,103.940009 43.2800039,103.780009 43.6800039,103.520009 C46.2200041,106.26001 49.8600045,107.54001 53.9000036,106.38001 C54.1600048,106.30001 54.4200049,106.220009 54.6800049,106.120009 C44.460004,102.740009 42.6400038,92.6200083 42.6000038,86.1800077 C39.6600035,88.8400079 39.3200035,93.3000083 40.6800036,98.0000088 C40.8200036,98.4800088 40.9800037,98.9400088 41.1600037,99.4000089 C40.4000036,99.8200089 39.9000036,100.620009 39.9000036,101.520009 Z" id="Path" fill="#FFB9A9" fill-rule="nonzero"></path>
                    <circle id="Oval" fill="#FF7D6C" fill-rule="nonzero" cx="42.5200038" cy="100.680009" r="1.46000013"></circle>
                    <path d="M51.3000046,89.680008 C51.3000046,89.680008 54.7800049,92.6200083 60.7400054,92.3600083 C60.6800054,92.1600082 60.1400054,84.2200075 52.0200047,84.0600075 L51.3000046,89.680008 Z" id="Path" fill="#FC866B" fill-rule="nonzero"></path>
                    <path d="M54.1600048,84.2600075 C54.1600048,84.2600075 56.480005,91.2600082 46.8800042,94.8400085 C46.8800042,94.8400085 43.7400039,99.8200089 37.4000033,102.300009 C36.3600033,102.700009 35.3600032,101.640009 35.8200032,100.620009 C36.5400033,99.1200089 37.2600033,97.0400087 37.4600033,94.6200085 C38.0000034,87.8000078 45.3400041,79.9400071 54.1600048,84.2600075 Z" id="Path" fill="#FFA488" fill-rule="nonzero"></path>
                    <path d="M37.4600033,94.6200075 C37.2600033,97.0400087 36.5400033,99.1200075 35.8200032,100.620007 C35.3400032,101.640009 36.3400032,102.700009 37.4000033,102.300009 C38.8400035,101.740009 40.1200036,101.040009 41.2400037,100.300009 C42.3200038,97.1400087 43.4000039,93.5000084 43.7000039,91.0800081 C43.9800039,88.7400079 44.840004,85.9600077 45.6800041,83.6200075 C41.0400037,85.3200076 37.8200034,90.2000081 37.4600033,94.6200075 Z" id="Path" fill="#FC866B" fill-rule="nonzero"></path>
                    <path d="M85.1200076,110.46001 L85.1200076,110.46001 C83.8000075,110.72001 82.5000074,109.84001 82.2400074,108.52001 L81.6800073,105.620009 C81.4200073,104.300009 82.3000074,103.000009 83.6200075,102.740009 L83.6200075,102.740009 C84.9400076,102.480009 86.2400077,103.360009 86.5000077,104.680009 L87.0600078,107.58001 C87.3000078,108.92001 86.4400077,110.20001 85.1200076,110.46001 Z" id="Path" fill="#FFE7DE" fill-rule="nonzero"></path>
                    <path d="M124.140011,143.740013 C124.140011,143.740013 120.940011,152.600014 105.540009,159.480014 C105.480009,159.500014 105.420009,159.540014 105.360009,159.560014 C105.420009,159.620014 105.460009,159.660014 105.520009,159.720014 C107.62001,161.860014 110.28001,163.300015 113.18001,163.900015 C114.92001,164.260015 115.90001,166.120015 115.18001,167.720015 C114.94001,168.240013 114.66001,168.800015 114.30001,169.360015 C113.26001,171.020015 124.520011,162.560015 125.900011,161.620014 C127.800011,162.280015 128.580011,162.640015 130.640012,162.640015 C130.920012,162.640015 131.240012,162.640015 131.560012,162.620015 C132.740012,162.580015 133.560012,163.760015 133.060012,164.820015 C132.060012,166.980015 130.400012,170.340015 128.220011,173.700016 C128.220011,173.700016 138.920012,164.880015 141.780013,161.220014 C141.780013,161.220014 145.560013,162.440015 147.840013,162.440015 C150.120013,162.440015 152.340014,162.060014 154.440014,161.280014 C154.900014,161.480014 155.380014,161.640014 155.880014,161.800014 C162.280015,152.360014 164.140015,143.760013 164.140015,143.760013 L124.140011,143.760013 L124.140011,143.740013 Z" id="Path" fill="#2ECEFF" fill-rule="nonzero"></path>
                    <path d="M145.720013,173.620016 C160.460014,160.980014 164.140015,143.740013 164.140015,143.740013 L148.980013,143.740013 C148.980013,143.760013 148.980013,143.780013 148.960013,143.800013 C149.420013,151.320014 149.240013,162.620015 145.720013,173.620016 Z" id="Path" fill="#079ED3" fill-rule="nonzero"></path>
                    <path d="M161.840014,139.080012 C160.880014,138.900012 160.040014,138.300012 159.600014,137.440012 C158.360014,135.020012 155.080014,130.540012 147.840013,130.540012 C144.500013,130.540012 141.460013,131.780012 139.140012,133.840012 C138.220012,134.660012 136.900012,134.840012 135.780012,134.320012 C134.220012,133.560012 132.480012,133.140012 130.620012,133.140012 C126.160011,133.140012 122.260011,135.600012 120.240011,139.240012 C119.640011,140.320013 118.440011,140.920013 117.20001,140.800013 C116.72001,140.740013 116.24001,140.740013 115.76001,140.760013 C111.20001,141.000013 107.50001,144.760013 107.34001,149.320013 C107.16001,154.380014 111.22001,158.540012 116.24001,158.540012 C118.540011,158.540012 120.620011,157.680014 122.200011,156.260014 C123.120011,155.440014 124.440011,155.280014 125.540011,155.800014 C127.080011,156.540012 128.820012,156.940014 130.640012,156.940014 C133.160012,156.940014 135.500012,156.160014 137.440012,154.820014 C138.460012,154.100014 139.820013,154.080014 140.880013,154.740014 C142.900013,156.020014 145.280013,156.740014 147.860013,156.740014 C149.800013,156.740014 151.640014,156.320014 153.300014,155.560014 C154.180014,155.160014 155.200014,155.220014 156.060014,155.680014 C157.400014,156.400014 158.960014,156.800014 160.600014,156.720014 C165.220015,156.540012 168.980015,152.780014 169.160015,148.160013 C169.300015,143.660013 166.100015,139.860013 161.840014,139.080012 Z" id="Path" fill="#FFFFFF" fill-rule="nonzero"></path>
                    <path d="M153.280014,155.560014 C154.160014,155.160014 155.180014,155.220014 156.040014,155.680014 C157.380014,156.400014 158.940014,156.800014 160.580014,156.720014 C161.480014,156.680014 162.340015,156.520014 163.160015,156.220014 C160.200014,154.940014 158.060014,152.400014 158.060014,152.400014 L152.520014,155.840014 C152.780014,155.780014 153.040014,155.680014 153.280014,155.560014 Z" id="Path" fill="#A9EFFF" fill-rule="nonzero"></path>
                    <path d="M115.46001,140.780013 C111.04001,141.160013 107.50001,144.860013 107.34001,149.320013 C107.16001,154.380014 111.22001,158.540014 116.24001,158.540014 C117.42001,158.540014 118.560011,158.300014 119.600011,157.880014 C110.94001,153.220014 113.20001,145.280013 115.46001,140.780013 Z" id="Path" fill="#A9EFFF" fill-rule="nonzero"></path>
                    <path d="M125.340011,148.240013 C125.340011,152.640014 122.980011,155.580014 122.340011,156.140014 C123.240011,155.420014 124.500011,155.300014 125.560011,155.800014 C127.100011,156.540014 128.840011,156.940014 130.660012,156.940014 C133.180012,156.940014 135.520012,156.160014 137.460012,154.820014 C129.880012,154.840014 125.340011,148.240013 125.340011,148.240013 Z" id="Path" fill="#A9EFFF" fill-rule="nonzero"></path>
                    <path d="M148.580013,147.760013 C146.160013,153.980014 139.640012,154.280014 139.640012,154.280014 C140.080013,154.340014 140.500013,154.480014 140.880013,154.720014 C142.900013,156.000014 145.280013,156.720014 147.860013,156.720014 C149.800013,156.720014 151.640012,156.300014 153.300014,155.540014 C153.980014,155.220014 154.760014,155.200014 155.460014,155.420014 C149.660013,152.900014 148.600013,147.760013 148.580013,147.760013 Z" id="Path" fill="#A9EFFF" fill-rule="nonzero"></path>
                    <circle id="Oval" fill="#A9EFFF" fill-rule="nonzero" cx="163.140015" cy="150.240013" r="1.00000009"></circle>
                    <circle id="Oval" fill="#A9EFFF" fill-rule="nonzero" cx="159.220014" cy="146.880013" r="1.00000009"></circle>
                    <circle id="Oval" fill="#A9EFFF" fill-rule="nonzero" cx="163.160015" cy="145.520013" r="1.00000009"></circle>
                    <path d="M127.900011,76.9200069 C108.50001,70.3600063 112.78001,58.0200052 95.8000086,48.0600043 C79.6000071,38.5800034 63.1400056,7.14000064 63.1400056,7.14000064 C63.1400056,7.14000064 68.5400061,44.540004 80.1400056,101.140001 C80.1400056,101.140001 102.600009,83.6000075 127.900011,76.9200069 Z" id="Path" fill="#CCEAF2" fill-rule="nonzero"></path>
                    <path d="M71.8400064,58.7600053 C74.1200066,71.1400064 76.8600069,85.4000076 80.1000072,101.120009 C80.1000072,101.120009 88.8800079,94.2600053 101.620009,87.5000078 C88.1600079,79.6800071 77.940007,67.440006 71.8400064,58.7600053 Z" id="Path" fill="#A2D2DD" fill-rule="nonzero"></path>
                    <path d="M107.10001,177.560016 C113.68001,176.180016 121.120011,173.860016 124.960011,169.980015" id="Path" stroke="#FFFFFF" stroke-width="2.00000018" stroke-linecap="round"></path>
                    <path d="M102.660009,178.380016 C102.960009,178.340016 103.260009,178.280016 103.580009,178.220016" id="Path" stroke="#FFFFFF" stroke-width="2.00000018" stroke-linecap="round"></path>
                    <path d="M94.4400084,179.360016 C94.4400084,179.360016 96.3200086,179.240016 99.1600089,178.880016" id="Path" stroke="#FFFFFF" stroke-width="2.00000018" stroke-linecap="round"></path>
                    <path d="M103.980009,169.160015 C103.980009,169.160015 109.30001,167.580015 111.12001,166.340015" id="Path" stroke="#FFFFFF" stroke-width="2.00000018" stroke-linecap="round"></path>
                    <path d="M116.52001,129.960012 C117.34001,131.220012 118.940011,135.880012 117.700011,136.700012 C116.44001,137.520012 112.80001,134.200012 111.98001,132.940012 C111.16001,131.680012 111.50001,130.000012 112.76001,129.180012 C114.02001,128.360011 115.70001,128.700012 116.52001,129.960012 Z" id="Path" fill="#FFFFFF" fill-rule="nonzero"></path>
                    <path d="M102.500009,131.880012 C104.120009,132.900012 108.44001,137.480012 107.42001,139.100012 C106.40001,140.720013 100.400009,138.760012 98.7800088,137.740012 C97.1600087,136.720012 96.6800086,134.560012 97.7000087,132.940012 C98.7400088,131.320012 100.880009,130.840012 102.500009,131.880012 Z" id="Path" fill="#FFFFFF" fill-rule="nonzero"></path>
                </g>
                <g id="stroke" transform="translate(40.000000, 12.000000)">
                    <circle id="Oval" fill="#0F222E" fill-rule="nonzero" transform="translate(48.681308, 97.245261) rotate(-15.979236) translate(-48.681308, -97.245261) " cx="48.6813084" cy="97.2452607" r="1.00004011"></circle>
                    <circle id="Oval" fill="#0F222E" fill-rule="nonzero" transform="translate(55.261957, 95.363095) rotate(-15.979236) translate(-55.261957, -95.363095) " cx="55.2619569" cy="95.3630945" r="1.00004011"></circle>
                    <path d="M122.200011,156.260014 C122.200011,156.260014 124.700011,154.300014 125.280011,150.660013 C125.880011,147.020013 121.880011,144.200013 118.980011,146.180013 C116.08001,148.160013 117.560011,150.660013 117.560011,150.660013" id="Path" stroke="#0F222E" stroke-width="2.00000018" stroke-linecap="round" stroke-linejoin="round"></path>
                    <path d="M139.640012,154.280014 C139.640012,154.280014 146.160013,153.980014 148.580013,147.760013" id="Path" stroke="#0F222E" stroke-width="2.00000018" stroke-linecap="round" stroke-linejoin="round"></path>
                    <path d="M153.280014,155.560014 C153.280014,155.560014 156.660014,154.180014 158.220014,152.260014" id="Path" stroke="#0F222E" stroke-width="2.00000018" stroke-linecap="round" stroke-linejoin="round"></path>
                    <path d="M156.880014,160.540014 C147.200013,176.060014 125.800011,195.000017 80.9400072,182.880016 C80.9400072,182.880016 90.1400081,166.760015 105.540009,159.760014 C107.46001,158.880014 109.20001,157.980014 110.76001,157.060014" id="Path" stroke="#0F222E" stroke-width="2.00000018" stroke-linecap="round" stroke-linejoin="round"></path>
                    <path d="M144.780013,156.380014 C140.960013,164.040015 134.460012,171.620015 123.440011,176.740016" id="Path" stroke="#0F222E" stroke-width="2.00000018" stroke-linecap="round" stroke-linejoin="round"></path>
                    <path d="M111.76001,170.800015 C118.240011,168.420015 125.440011,164.260015 129.520012,157.020014" id="Path" stroke="#0F222E" stroke-width="2.00000018" stroke-linecap="round" stroke-linejoin="round"></path>
                    <path d="M124.960011,112.94001 C114.60001,113.16001 100.680009,115.70001 87.2400078,125.240011 C65.5600059,140.620013 46.6200042,150.400013 32.5800029,156.040014 C28.4000025,157.720014 27.2400024,163.100015 30.3600027,166.340015 C38.6600035,175.000016 55.640005,187.700017 80.9400072,182.860016" id="Path" stroke="#0F222E" stroke-width="2.00000018" stroke-linecap="round" stroke-linejoin="round"></path>
                    <path d="M104.100009,139.560012 C103.980009,139.880013 103.860009,140.200013 103.740009,140.540013 C92.5400051,170.940015 65.9600059,181.180016 57.5400051,182.460016" id="Path" stroke="#0F222E" stroke-width="2.00000018" stroke-linecap="round" stroke-linejoin="round"></path>
                    <path d="M124.960011,112.94001 C121.520011,113.44001 113.86001,116.74001 106.100009,134.600012" id="Path" stroke="#0F222E" stroke-width="2.00000018" stroke-linecap="round" stroke-linejoin="round"></path>
                    <path d="M72.3200065,145.520013 C55.680005,156.380014 39.5800035,162.960015 30.2800027,166.260015 C30.3000027,166.300015 30.3400027,166.320015 30.3600027,166.360015" id="Path" stroke="#0F222E" stroke-width="2.00000018" stroke-linecap="round" stroke-linejoin="round"></path>
                    <path d="M36.9800033,172.340015 C38.7400035,171.680015 40.6200036,170.940015 42.6400038,170.100014 C48.5000043,167.680015 56.120005,164.200015 64.4400058,159.600014" id="Path" stroke="#0F222E" stroke-width="2.00000018" stroke-linecap="round" stroke-linejoin="round"></path>
                    <path d="M82.4800074,17.4800016 C75.6200068,13.1800012 69.0200062,9.58000086 63.1400056,7.14000064 C63.1400056,7.14000064 68.5400061,44.540004 80.1400056,101.140001 C80.1400056,101.140001 112.06001,76.2000068 142.640006,74.4800067 C145.720013,74.3000066 147.200013,70.6200063 145.100013,68.3600061 C135.000012,57.4800051 111.26001,36.6600033 88.8000079,21.5800019" id="Path" stroke="#0F222E" stroke-width="2.00000018" stroke-linecap="round" stroke-linejoin="round"></path>
                    <path d="M86.2000077,19.8600018 C85.8600077,19.6400018 85.5200076,19.4200017 85.1800076,19.2000017" id="Path" stroke="#0F222E" stroke-width="2.00000018" stroke-linecap="round" stroke-linejoin="round"></path>
                    <path d="M54.1600048,84.2600075 C54.1600048,84.2600075 56.480005,91.2600082 46.8800042,94.8400085 C46.8800042,94.8400085 43.7400039,99.8200089 37.4000033,102.300009 C36.3600033,102.700009 35.3600032,101.640009 35.8200032,100.620009 C36.5400033,99.1200089 37.2600033,97.0400087 37.4600033,94.6200085 C38.0000034,87.8000078 45.3400041,79.9400071 54.1600048,84.2600075 Z" id="Path" stroke="#0F222E" stroke-width="2.00000018" stroke-linecap="round" stroke-linejoin="round"></path>
                    <path d="M52.9000047,90.7000081 C54.4800049,91.5200082 57.1600051,92.5200083 60.7400054,92.3800083 C60.7000054,92.2000082 60.2400054,85.6800077 54.1400048,84.3200075" id="Path" stroke="#0F222E" stroke-width="2.00000018" stroke-linecap="round" stroke-linejoin="round"></path>
                    <path d="M39.9000036,101.520009 C39.9000036,102.860009 40.9800037,103.940009 42.3200038,103.940009 C42.8200038,103.940009 43.2800039,103.780009 43.6800039,103.520009 C46.2200041,106.260008 49.8600045,107.54001 53.9000036,106.38001 C60.1200054,104.600009 62.4800056,98.4800088 60.7000054,92.2600082" id="Path" stroke="#0F222E" stroke-width="2.00000018" stroke-linecap="round" stroke-linejoin="round"></path>
                    <path d="M47.9000043,106.32001 L37.7400034,112.54001 C36.7600033,113.14001 36.4400033,114.38001 37.0000033,115.38001 L39.2600035,119.440011 C39.8400036,120.460011 41.1400037,120.840011 42.1600038,120.260011 L47.8200043,117.08001 L47.6400043,126.660011 C47.6200043,127.860011 48.7600044,128.720012 49.9000045,128.380011 L67.8000061,123.000011 L64.7200058,112.24001 L71.2200064,111.94001 C72.4000065,111.88001 73.3000066,110.88001 73.2400065,109.72001 L73.0000065,105.080009 C72.9400065,103.940009 72.0000064,103.060009 70.8600063,103.060009 L58.9400053,103.180009" id="Path" stroke="#0F222E" stroke-width="2.00000018" stroke-linecap="round" stroke-linejoin="round"></path>
                    <path d="M58.8800053,103.700009 C59.5400053,106.040009 57.8000052,108.58001 54.9800049,109.38001 C52.1600044,110.18001 49.3200044,108.96001 48.6600044,106.62001" id="Path" stroke="#0F222E" stroke-width="2.00000018" stroke-linecap="round" stroke-linejoin="round"></path>
                    <path d="M38.5400034,90.5600081 C38.5400034,90.5600081 33.520003,103.100009 26.9600024,109.78001 C26.0600023,110.70001 26.8000024,112.24001 28.0800025,112.12001 C29.8000027,111.94001 31.8600028,111.50001 33.700003,110.40001 C34.6200031,109.86001 35.6600032,109.60001 36.7400033,109.64001 C38.2600034,109.70001 40.5600036,109.72001 42.9800038,109.32001" id="Path" stroke="#0F222E" stroke-width="2.00000018" stroke-linecap="round" stroke-linejoin="round"></path>
                    <line x1="43.6800039" y1="103.520009" x2="44.500004" y2="102.840009" id="Path" stroke="#0F222E" stroke-width="2.00000018" stroke-linecap="round" stroke-linejoin="round"></line>
                    <path d="M50.0800045,128.320011 L49.1400044,135.180012 C48.9400044,136.660012 50.3800045,137.800012 51.7800046,137.280012 L58.4800052,134.760012 C59.1400053,134.500011 59.6200053,133.920012 59.7200053,133.200012 L60.2000054,129.960012 L61.8000055,132.280012 C62.2600056,132.940012 63.0800056,133.260012 63.8800057,133.080012 L68.4200061,131.980012 C69.5200062,131.720012 70.1600063,130.580012 69.8400062,129.500011 L67.8600061,123.000011" id="Path" stroke="#0F222E" stroke-width="2.00000018" stroke-linecap="round" stroke-linejoin="round"></path>
                    <line x1="66.920006" y1="138.600012" x2="64.9000058" y2="132.820012" id="Path" stroke="#0F222E" stroke-width="2.00000018" stroke-linecap="round" stroke-linejoin="round"></line>
                    <line x1="68.1200061" y1="132.040012" x2="69.8000062" y2="136.840012" id="Path" stroke="#0F222E" stroke-width="2.00000018" stroke-linecap="round" stroke-linejoin="round"></line>
                    <line x1="54.3800049" y1="145.520013" x2="54.3400049" y2="136.320012" id="Path" stroke="#0F222E" stroke-width="2.00000018" stroke-linecap="round" stroke-linejoin="round"></line>
                    <line x1="57.6200052" y1="135.280012" x2="57.6800052" y2="140.740013" id="Path" stroke="#0F222E" stroke-width="2.00000018" stroke-linecap="round" stroke-linejoin="round"></line>
                    <path d="M37.3200033,115.98001 L30.7200027,119.880011 L26.6400024,119.860011 C25.8600023,119.860011 25.5400023,120.880011 26.1800023,121.320011 L27.8800025,122.48001" id="Path" stroke="#0F222E" stroke-width="2.00000018" stroke-linecap="round" stroke-linejoin="round"></path>
                    <polyline id="Path" stroke="#0F222E" stroke-width="2.00000018" stroke-linecap="round" stroke-linejoin="round" points="29.9600027 125.300011 32.4000029 122.720011 38.9200035 118.860011"></polyline>
                    <path d="M25.8400023,119.700011 L22.660002,115.40001 C22.320002,114.94001 21.7600019,114.72001 21.2000019,114.82001 L13.4200012,116.18001 C12.9600012,116.26001 12.5600011,116.56001 12.3600011,116.96001 L8.68000078,124.140011 C8.46000076,124.560011 8.08000072,124.840011 7.62000068,124.920011 L1.30000012,126.020011 C0.22000002,126.200011 -0.300000027,127.480011 0.360000032,128.360011 L9.56000085,140.860013 C9.90000089,141.320013 10.4600009,141.540013 11.020001,141.440013 L18.8000017,140.080013 C19.2600017,140.000013 19.6600018,139.700012 19.8600018,139.300012 L23.5400021,132.120012 C23.7600021,131.700012 24.1400022,131.420012 24.6000022,131.340012 L30.9200028,130.240012 C32.0000029,130.060012 32.5200029,128.780012 31.8600028,127.900011 L27.8800025,122.500011" id="Path" stroke="#0F222E" stroke-width="2.00000018" stroke-linecap="round" stroke-linejoin="round"></path>
                    <line x1="8.68000078" y1="124.140011" x2="19.8400018" y2="139.320012" id="Path" stroke="#0F222E" stroke-width="2.00000018" stroke-linecap="round" stroke-linejoin="round"></line>
                    <line x1="13.4400012" y1="116.16001" x2="21.5600019" y2="127.200011" id="Path" stroke="#0F222E" stroke-width="2.00000018" stroke-linecap="round" stroke-linejoin="round"></line>
                    <line x1="84.7800076" y1="110.50001" x2="86.6600077" y2="121.020011" id="Path" stroke="#0F222E" stroke-width="2.00000018" stroke-linecap="round" stroke-linejoin="round"></line>
                    <line x1="82.8400074" y1="99.5400089" x2="83.3600075" y2="102.520009" id="Path" stroke="#0F222E" stroke-width="2.00000018" stroke-linecap="round" stroke-linejoin="round"></line>
                    <path d="M79.9800072,130.220012 L57.7000052,4.88000044 C57.3000051,2.66000024 58.8000053,0.520000046 61.0200055,0.140000013 L61.0200055,0.140000013 C63.2400057,-0.260000023 65.3800058,1.24000011 65.7600059,3.46000031 L66.700006,8.72000078" id="Path" stroke="#0F222E" stroke-width="2.00000018" stroke-linecap="round" stroke-linejoin="round"></path>
                    <path d="M85.1200076,110.46001 L85.1200076,110.46001 C83.8000075,110.72001 82.5000074,109.84001 82.2400074,108.52001 L81.6800073,105.620009 C81.4200073,104.300009 82.3000074,103.000009 83.6200075,102.740009 L83.6200075,102.740009 C84.9400076,102.480009 86.2400077,103.360009 86.5000077,104.680009 L87.0600078,107.58001 C87.3000078,108.92001 86.4400077,110.20001 85.1200076,110.46001 Z" id="Path" stroke="#0F222E" stroke-width="2.00000018" stroke-linecap="round" stroke-linejoin="round"></path>
                    <line x1="73.2600065" y1="109.04001" x2="76.2000068" y2="108.98001" id="Path" stroke="#0F222E" stroke-width="2.00000018" stroke-linecap="round" stroke-linejoin="round"></line>
                    <line x1="73.4400066" y1="105.680009" x2="75.3400067" y2="105.620009" id="Path" stroke="#0F222E" stroke-width="2.00000018" stroke-linecap="round" stroke-linejoin="round"></line>
                    <path d="M66.660006,118.580011 C70.3400063,116.74001 73.8400066,115.18001 77.0000069,114.10001" id="Path" stroke="#0F222E" stroke-width="2.00000018" stroke-linecap="round" stroke-linejoin="round"></path>
                    <path d="M20.2400018,138.960012 C20.1400018,142.860013 24.5600022,145.200013 27.7400025,142.920013 C32.3200029,139.620012 38.7000035,135.200012 45.6600041,130.760012" id="Path" stroke="#0F222E" stroke-width="2.00000018" stroke-linecap="round" stroke-linejoin="round"></path>
                    <path d="M58.7400053,11.060001 C56.020005,19.6600018 49.0800044,40.7800036 41.1600037,57.5400051 C34.8800031,70.8200063 27.1200024,93.9600084 23.0400021,115.54001" id="Path" stroke="#0F222E" stroke-width="2.00000018" stroke-linecap="round" stroke-linejoin="round"></path>
                    <path d="M71.6600064,103.040009 C64.2000057,91.0600081 55.560005,65.6800059 59.3400053,14.2400013" id="Path" stroke="#0F222E" stroke-width="2.00000018" stroke-linecap="round" stroke-linejoin="round"></path>
                    <path d="M51.1000046,100.420009 C52.3800047,100.780009 53.7400048,100.420009 54.7000049,99.5000089" id="Path" stroke="#0F222E" stroke-width="2.00000018" stroke-linecap="round" stroke-linejoin="round"></path>
                    <path d="M80.9400072,70.2200063 C77.3000069,66.1800059 74.2600066,62.2000056 71.8400064,58.7800053" id="Path" stroke="#0F222E" stroke-width="2.00000018" stroke-linecap="round" stroke-linejoin="round"></path>
                    <path d="M86.1000077,75.5800068 C85.1800076,74.7000067 84.3000075,73.8000066 83.4400075,72.9000065" id="Path" stroke="#0F222E" stroke-width="2.00000018" stroke-linecap="round" stroke-linejoin="round"></path>
                    <path d="M116.52001,129.960012 C117.34001,131.220012 118.940011,135.880012 117.700011,136.700012 C116.44001,137.520012 112.80001,134.200012 111.98001,132.940012 C111.16001,131.680012 111.50001,130.000012 112.76001,129.180012 C114.02001,128.360011 115.70001,128.700012 116.52001,129.960012 Z" id="Path" stroke="#0F222E" stroke-width="2.00000018" stroke-linecap="round" stroke-linejoin="round"></path>
                    <path d="M102.500009,131.880012 C104.120009,132.900012 108.44001,137.480012 107.42001,139.100012 C106.40001,140.720013 100.400009,138.760012 98.7800088,137.740012 C97.1600087,136.720012 96.6800086,134.560012 97.7000087,132.940012 C98.7400088,131.320012 100.880009,130.840012 102.500009,131.880012 Z" id="Path" stroke="#0F222E" stroke-width="2.00000018" stroke-linecap="round" stroke-linejoin="round"></path>
                    <g id="Group" stroke-linecap="round" stroke-linejoin="round" transform="translate(39.800004, 42.600004)" stroke="#0F222E" stroke-width="2.00000018">
                        <path d="M0.800000072,32.9800029 C0.56000005,34.5600031 0.320000029,36.1800032 0.100000009,37.8000034" id="Path"></path>
                        <path d="M7.72000069,0.160000014 C5.42000048,8.68000078 3.18000028,18.4800017 1.38000012,29.2800026" id="Path"></path>
                    </g>
                    <path d="M153.980014,131.860012 C152.340014,131.060012 150.320013,130.540012 147.840013,130.540012 C144.500013,130.540012 141.460013,131.780012 139.140012,133.840012 C138.220012,134.660012 136.900012,134.840012 135.780012,134.320012 C134.220012,133.560012 132.480012,133.140012 130.620012,133.140012 C126.160011,133.140012 122.260011,135.600012 120.240011,139.240012 C119.640011,140.320013 118.440011,140.920013 117.20001,140.800013 C116.72001,140.740013 116.24001,140.740013 115.76001,140.760013 C111.20001,141.000013 107.50001,144.760013 107.34001,149.320013 C107.16001,154.380014 111.22001,158.540012 116.24001,158.540012 C118.540011,158.540012 120.620011,157.680014 122.200011,156.260014 C123.120011,155.440014 124.440011,155.280014 125.540011,155.800014 C127.080011,156.540012 128.820012,156.940014 130.640012,156.940014 C133.160012,156.940014 135.500012,156.160014 137.440012,154.820014 C138.460012,154.100014 139.820013,154.080014 140.880013,154.740014 C142.900013,156.020014 145.280013,156.740014 147.860013,156.740014 C149.800013,156.740014 151.640014,156.320014 153.300014,155.560014 C154.180014,155.160014 155.200014,155.220014 156.060014,155.680014 C157.400014,156.400014 158.960014,156.800014 160.600014,156.720014 C165.220015,156.540012 168.980015,152.780014 169.160015,148.160013 C169.320015,143.640013 166.120015,139.840013 161.860014,139.060012 C160.900014,138.880012 160.060014,138.280012 159.620014,137.420012 C159.120014,136.440012 158.280014,135.120012 156.980014,133.900012" id="Path" stroke="#0F222E" stroke-width="2.00000018" stroke-linecap="round" stroke-linejoin="round"></path>
                    <path d="M140.840013,132.300012 C141.760013,127.540011 141.860013,123.240011 141.740013,119.700011 C141.640013,116.64001 139.340012,114.08001 136.300012,113.62001 C133.460011,113.20001 129.560012,112.84001 124.960011,112.94001" id="Path" stroke="#0F222E" stroke-width="2.00000018" stroke-linecap="round" stroke-linejoin="round"></path>
                </g>
            </g>
        </g>
    </g>
</svg>