<?xml version="1.0" encoding="UTF-8"?>
<svg width="250px" height="210px" viewBox="0 0 250 210" version="1.1" xmlns="http://www.w3.org/2000/svg" xmlns:xlink="http://www.w3.org/1999/xlink">
    <!-- Generator: Sketch 63.1 (92452) - https://sketch.com -->
    <title>2-get-seo-plan</title>
    <desc>Created with Sketch.</desc>
    <g id="End-users" stroke="none" stroke-width="1" fill="none" fill-rule="evenodd">
        <g id="Desktop-HD" transform="translate(-618.000000, -1134.000000)">
            <g id="2-get-seo-plan" transform="translate(618.000000, 1134.000000)">
                <rect id="Rectangle" fill="#FFFFFF" x="0" y="0" width="250" height="210"></rect>
                <g id="fill" transform="translate(47.000000, 47.000000)" fill-rule="nonzero">
                    <path d="M88.8800079,20.8000019 L49.8400045,40.2400036 C47.5800043,41.3600037 44.940004,41.3600037 42.6800038,40.2400036 L11.640001,24.8000022 C6.30000056,22.140002 0.0400000036,26.0200023 0.0400000036,31.9800029 L0.0400000036,115.82001 C0.0400000036,118.860011 1.76000016,121.640011 4.4800004,123.000011 L42.6600038,142.000013 C44.920004,143.120013 47.5600043,143.120013 49.8200045,142.000013 L88.8600079,122.560011 C91.1200081,121.440011 93.7600084,121.440011 96.0200086,122.560011 L127.040011,138.000012 C132.380012,140.660013 138.640012,136.780012 138.640012,130.820012 L138.640012,46.9800042 C138.640012,43.9400039 136.920012,41.1600037 134.200012,39.8000036 L96.0200086,20.8000019 C93.7800084,19.6800018 91.1200081,19.6800018 88.8800079,20.8000019 Z" id="Path" fill="#FFFFFF"></path>
                    <path d="M64.1800057,33.100003 L49.8200045,40.2400036 C48.6600044,40.8200036 47.4000042,41.100003 46.1400041,41.0800037 L46.1400041,142.841918 C47.4000042,142.860013 48.6600044,142.580013 49.8200045,142.000013 L64.1800057,134.860012 L64.1800057,33.100003 Z" id="Path" fill="#D4F9FF"></path>
                    <path d="M92.5400083,121.720011 C93.7400084,121.740011 94.9200085,122.020011 96.0200086,122.560011 L127.040008,138.000012 C132.380012,140.660013 138.640012,136.780012 138.640012,130.820012 L138.640012,46.9800042 C138.640012,43.9400039 136.920012,41.1600037 134.200012,39.8000036 L96.0200086,20.8000019 C94.9200085,20.2600018 93.7400084,19.9800018 92.5400083,19.9600018 L92.5400083,121.720011 Z" id="Path" fill="#B0F0FF"></path>
                    <path d="M92.6200083,121.720011 C93.7800084,121.740011 94.9600085,122.020011 96.0400086,122.560011 L103.380009,126.220011 L103.380009,24.4600018 L96.0200086,20.8000019 C94.9400085,20.2600018 93.7800084,19.9800018 92.6000083,19.9600018 L92.6000083,121.720011 L92.6200083,121.720011 Z" id="Path" fill="#71C7E2"></path>
                    <path d="M129.400012,98.9800088 L94.7000085,104.680009 L92.6000083,121.720011 C93.7600084,121.740011 94.9400085,122.020011 96.0200086,122.560011 L114.46001,131.740012 C133.040012,118.460011 129.400012,98.9800088 129.400012,98.9800088 Z" id="Path" fill="#71C7E2"></path>
                    <path d="M46.1600041,41.0800037 C44.960004,41.0600037 43.7800039,40.7800036 42.6800038,40.2400036 L11.640001,24.8000022 C6.30000056,22.140002 0.0400000036,26.0200023 0.0400000036,31.9800029 L0.0400000036,115.82001 C0.0400000036,118.860011 1.76000016,121.640011 4.4800004,123.000011 L42.6600038,142.000013 C43.7600039,142.540013 44.940004,142.820013 46.1400041,142.840013 L46.1400041,41.0800037 L46.1600041,41.0800037 Z" id="Path" fill="#B0F0FF"></path>
                    <path d="M27.2600024,134.260012 C24.5400022,132.900012 22.820002,130.120012 22.820002,127.080011 L22.820002,43.2400039 C22.820002,37.6400034 28.3600025,33.880003 33.460003,35.6600032 L11.660001,24.8000022 C6.32000057,22.140002 0.0600000054,26.0200023 0.0600000054,31.9800029 L0.0600000054,115.82001 C0.0600000054,118.860011 1.78000016,121.640011 4.5000004,123.000011 L27.2600024,134.260012 Z" id="Path" fill="#71C7E2"></path>
                    <path d="M46.2400041,136.480012 C45.9800041,136.480012 45.7400041,136.420012 45.5000041,136.300002 L7.32000065,117.300002 C6.7400006,117.02001 6.40000057,116.44001 6.40000057,115.800002 L6.40000057,31.9800029 C6.40000057,30.8400028 7.40000057,30.3000024 8.06000072,30.3000024 C8.30000074,30.3000024 8.54000076,30.3600027 8.80000079,30.4800027 L39.8200036,45.9200041 C41.8000037,46.9000042 44.0200039,47.4200042 46.2200041,47.4200042 C48.4400043,47.4200042 50.6400045,46.9000042 52.6200047,45.9200041 L91.6600082,26.4800024 C91.9000006,26.3600024 92.1400082,26.3000024 92.4000006,26.3000024 C92.6600083,26.3000024 92.9200083,26.3600024 93.1400083,26.4800024 L131.320012,45.4800041 C131.880012,45.7600041 132.240012,46.3400041 132.240012,46.9800042 L132.240012,130.820012 C132.240012,131.300002 132.080012,131.680012 131.760012,132.000012 C131.440012,132.320012 131.000012,132.500012 130.580012,132.500012 C130.340012,132.500012 130.100012,132.440012 129.840012,132.320012 L98.8200088,116.88001 C96.8400087,115.90001 94.6200085,115.38001 92.4200083,115.38001 C90.2000081,115.38001 88.0000079,115.90001 86.0200077,116.88001 L47.0000042,136.300002 C46.7600042,136.420012 46.5000042,136.480012 46.2400041,136.480012 Z" id="Path" fill="#BAF4EE"></path>
                    <path d="M64.1800057,40.2000036 L52.6600041,45.9400041 C50.6800045,46.9200042 48.4600043,47.4400042 46.2600041,47.4400042 C46.2200041,47.4400042 46.2000041,47.4400042 46.1600041,47.4400042 L46.1600041,136.480012 C46.2000041,136.480012 46.2200041,136.480012 46.2600041,136.480012 C46.5200042,136.480012 46.7600042,136.420012 47.0000042,136.300012 L64.1800057,127.740011 L64.1800057,40.2000036 Z" id="Path" fill="#94EAE4"></path>
                    <path d="M131.360012,45.5000041 L93.1800083,26.5000024 C92.9400083,26.3800024 92.7000083,26.3200024 92.4400083,26.3200024 C92.1800082,26.3200024 91.9400082,26.3800024 91.7000082,26.5000024 L70.8000063,36.9000033 L70.8000063,47.5400043 C70.8000063,51.6000046 75.1400067,54.1800048 78.720007,52.2600047 L89.620008,46.3600041 C91.4400082,45.3600041 93.6600084,45.4000041 95.4600085,46.4400042 L112.12001,56.120005 C114.24001,57.3600051 115.56001,59.6400053 115.56001,62.1000056 L115.56001,89.660008 C115.56001,93.3600083 117.44001,96.8000087 120.540011,98.8000088 L132.320012,106.40001 L132.320012,47.0000042 C132.300006,46.3600041 131.940012,45.7800041 131.360012,45.5000041 Z" id="Path" fill="#FFF9EE"></path>
                    <path d="M46.1600041,47.4400042 C43.9800039,47.4200042 41.8000037,46.9000042 39.8400036,45.9400041 L8.82000079,30.5000027 C8.56000077,30.3800027 8.32000074,30.3200027 8.08000072,30.3200027 C7.40000066,30.3200027 6.42000057,30.8600028 6.42000057,32.0000029 L6.42000057,115.84001 C6.42000057,116.48001 6.78000061,117.04001 7.34000066,117.34001 L45.5200041,136.340012 C45.7200041,136.440012 45.9400041,136.500012 46.1600041,136.500012 L46.1600041,47.4400042 Z" id="Path" fill="#7BD6CD"></path>
                    <path d="M24.5000022,38.3000034 L8.82000079,30.5000027 C8.56000077,30.3800027 8.32000074,30.3200027 8.08000072,30.3200027 C7.40000066,30.3200027 6.42000057,30.8600028 6.42000057,32.0000029 L6.42000057,115.84001 C6.42000057,116.48001 6.78000061,117.04001 7.34000066,117.34001 L22.820002,125.040011 L22.820002,43.2400039 C22.820002,41.3200027 23.4600021,39.6400035 24.5000022,38.3000034 Z" id="Path" fill="#58B7B2"></path>
                    <path d="M92.5400083,115.36001 C94.7200085,115.38001 96.9000087,115.90001 98.8600088,116.86001 L129.880012,132.300012 C130.140012,132.420012 130.380012,132.480012 130.620012,132.480012 C131.300012,132.480012 132.280012,131.940012 132.280012,130.800012 L132.280012,46.9800042 C132.280012,46.3400041 131.920012,45.7800041 131.360012,45.4800041 L93.1800083,26.4800024 C92.9800083,26.3800024 92.7600083,26.3200024 92.5400083,26.3200024 L92.5400083,115.36001 Z" id="Path" fill="#7BD6CD"></path>
                    <path d="M92.5400083,115.36001 C94.7000085,115.38001 96.8600087,115.90001 98.7800088,116.86001 L103.280009,119.100011 L103.280009,31.5400028 L93.1000083,26.4800024 C92.9200083,26.3800024 92.7200083,26.3400024 92.5200083,26.3200024 L92.5200083,115.36001 L92.5400083,115.36001 Z" id="Path" fill="#58B7B2"></path>
                    <path d="M94.7200085,104.680009 L93.4000084,115.40001 C95.3000085,115.52001 97.1600087,116.02001 98.8600088,116.88001 L119.740011,127.280011 C132.320012,114.52001 129.420012,99.0000089 129.420012,99.0000089 L94.7200085,104.680009 Z" id="Path" fill="#58B7B2"></path>
                    <path d="M132.300012,46.9800042 C132.300012,46.3400041 131.940012,45.7800041 131.380012,45.4800041 L93.2000083,26.4800024 C93.0000083,26.3800024 92.7800083,26.3200024 92.5600083,26.3200024 L92.5600083,45.6400041 C93.5600083,45.6600041 94.5600083,45.9200041 95.4600085,46.4400042 L112.12001,56.120005 C114.24001,57.3600051 115.560008,59.6400053 115.560008,62.1000056 L115.560008,89.660008 C115.560008,93.3600083 117.44001,96.8000087 120.540011,98.8000088 L132.320012,106.40001 L132.320012,46.9800042 L132.300012,46.9800042 Z" id="Path" fill="#EAC78F"></path>
                    <path d="M92.5400083,45.6200041 C93.5200083,45.6400041 94.5000084,45.9200041 95.3600085,46.4200042 L103.280009,51.0200046 L103.280009,31.5200028 L93.1000083,26.4600024 C92.9200083,26.3600024 92.7200083,26.3200024 92.5200083,26.3000024 L92.5200083,45.6200041 L92.5400083,45.6200041 Z" id="Path" fill="#DBB277"></path>
                    <path d="M43.0000038,98.0400088 L29.7600027,91.7200082 C27.6400025,90.7000081 26.3000024,88.5600079 26.3000024,86.2200077 L26.3000024,82.1200073 C26.3000024,79.0200071 24.4200022,76.2200068 21.5400019,75.0400067 L6.40000057,68.8600062 L6.40000057,115.80001 C6.40000057,116.44001 6.7600006,117.00001 7.32000065,117.30001 L45.5000041,136.300012 C45.7400041,136.420012 45.9800041,136.480012 46.2400041,136.480012 C46.5000042,136.480012 46.7400042,136.420012 46.9800042,136.300012 L78.9800071,120.360006 L64.2000057,110.94001 C61.9000006,109.46001 60.5000054,106.92001 60.5000054,104.180009 L60.5000054,99.7800089 C60.5000054,96.4600086 57.0400051,94.3000084 54.0600048,95.7400086 L49.3200044,98.0400088 C47.3200042,98.9800088 45.000004,99.0000089 43.0000038,98.0400088 Z" id="Path" fill="#FFF9EE"></path>
                    <path d="M64.1800057,110.92001 C61.8800055,109.44001 60.5000054,106.90001 60.5000054,104.180009 L60.5000054,99.7800089 C60.5000054,96.4600086 57.0400051,94.3000084 54.0600048,95.7400086 L49.3200044,98.0400088 C48.3200043,98.5200088 47.2400042,98.7600088 46.1600041,98.7600088 L46.1600041,136.480012 C46.2000041,136.480012 46.2200041,136.480012 46.2600041,136.480012 C46.5200042,136.480012 46.7600042,136.420012 47.0000042,136.300012 L64.1800057,127.740011 L64.1800057,110.92001 Z" id="Path" fill="#FFEAC0"></path>
                    <path d="M46.1600041,98.7600088 C45.080004,98.7600088 44.0000039,98.5200088 43.0000038,98.0400088 L29.7600027,91.7200082 C27.6400025,90.7000081 26.3000024,88.5600079 26.3000024,86.2200077 L26.3000024,82.1200073 C26.3000024,79.0200071 24.4200022,76.2200068 21.5400019,75.0400067 L6.40000057,68.8800062 L6.40000057,115.82001 C6.40000057,116.46001 6.7600006,117.02001 7.32000065,117.32001 L45.5000041,136.320012 C45.7000041,136.420012 45.9200041,136.480012 46.1400041,136.480012 L46.1400041,98.7600088 L46.1600041,98.7600088 Z" id="Path" fill="#EAC78F"></path>
                    <path d="M21.5200019,75.0400067 L6.40000057,68.8800062 L6.40000057,115.82001 C6.40000057,116.46001 6.7600006,117.02001 7.32000065,117.32001 L22.800002,125.020011 L22.800002,75.7200068 C22.4000006,75.4600067 21.980002,75.2200067 21.5200019,75.0400067 Z" id="Path" fill="#DBB277"></path>
                    <path d="M129.240012,42.3000038 C122.320011,38.8200035 113.92001,41.6200037 110.44001,48.5200043 C106.96001,55.440005 109.76001,63.8400057 116.66001,67.320006 C123.580011,70.8000063 131.980012,68.0000061 135.460012,61.1000055 C138.940012,54.2000048 136.140012,45.7800041 129.240012,42.3000038 Z M118.640011,63.4000057 C113.90001,61.0200055 112.00001,55.2400049 114.38001,50.5000045 C116.76001,45.7600041 122.540011,43.8600039 127.280011,46.2400041 C132.020012,48.6200043 133.920012,54.4000049 131.540012,59.1400053 C129.160012,63.8600057 123.360011,65.7800059 118.640011,63.4000057 Z" id="Shape" fill="#F9DC80"></path>
                    <path d="M116.66001,67.320006 C120.960011,69.4800062 125.860011,69.2200062 129.760012,67.040006 C129.880012,65.3000058 129.720012,63.6000057 129.300012,62.0000048 C126.440011,64.5200058 122.240011,65.2000058 118.640011,63.3800057 C115.04001,61.5600055 113.06001,57.7800052 113.38001,54.0000048 C111.84001,54.6000049 110.38001,55.5000048 109.06001,56.6400051 C109.66001,61.0800055 112.36001,65.1600058 116.66001,67.320006 Z" id="Path" fill="#EAC45C"></path>
                    <rect id="Rectangle" fill="#CE9D30" transform="translate(118.108349, 64.436220) rotate(-63.322212) translate(-118.108349, -64.436220) " x="112.578011" y="61.1060164" width="11.0606754" height="6.66040672"></rect>
                    <rect id="Rectangle" fill="#BF8B21" transform="translate(116.510849, 63.623980) rotate(-63.322212) translate(-116.510849, -63.623980) " x="110.980511" y="62.0938863" width="11.0606754" height="3.06018687"></rect>
                    <path d="M121.220011,69.6200062 L112.22001,65.1000058 C110.86001,64.4200058 109.20001,64.6800058 108.10001,65.7400059 L103.740009,70.0200063 L122.320011,79.3600071 L123.160011,73.3200066 C123.360011,71.7800064 122.580011,70.3000063 121.220011,69.6200062 Z" id="Path" fill="#EAC45C"></path>
                    <path d="M115.62001,67.9200061 L116.40001,67.200006 L112.20001,65.1000058 C110.84001,64.4200058 109.18001,64.6800058 108.08001,65.7400059 L103.720009,70.0200063 L122.300011,79.3600071 L122.860011,75.3000067 C120.460011,73.0600065 117.840011,71.5400064 116.02001,70.6600063 C114.98001,70.1400063 114.78001,68.7200061 115.62001,67.9200061 Z" id="Path" fill="#DDB245"></path>
                    <circle id="Oval" fill="#F9DC80" transform="translate(101.765989, 97.108273) rotate(-63.322212) translate(-101.765989, -97.108273) " cx="101.765989" cy="97.1082727" r="27.7016915"></circle>
                    <path d="M94.9400085,117.960011 C84.2400075,112.58001 79.9200071,99.5200089 85.3000076,88.8200079 C90.6800081,78.120007 103.740009,73.8000066 114.44001,79.1800071 C125.140011,84.5600076 129.460012,97.6200087 124.080011,108.32001 C118.700011,119.020011 105.640009,123.340011 94.9400085,117.960011 Z" id="Path" fill="#DDB245"></path>
                    <path d="M92.0200082,116.50001 C81.3200073,111.12001 77.0000069,98.0600088 82.3800074,87.3600078 C87.7600078,76.6600069 100.820009,72.3400065 111.52001,77.7200069 C122.220011,83.1000074 126.540011,96.1600086 121.160011,106.86001 C115.78001,117.540011 102.720009,121.880011 92.0200082,116.50001 Z" id="Path" fill="#FFFFFF"></path>
                    <path d="M86.0200077,89.200008 C91.0800081,79.1200071 102.980009,74.7000067 113.30001,78.720007 C112.72001,78.360007 112.14001,78.020007 111.52001,77.7200069 C100.820009,72.3400065 87.7600078,76.6800069 82.3800074,87.3600078 C77.0000069,98.0600088 81.3400073,111.12001 92.0200082,116.50001 C92.6400083,116.80001 93.2600083,117.08001 93.8800084,117.32001 C84.5000076,111.46001 80.9400072,99.2800089 86.0200077,89.200008 Z" id="Path" fill="#E8F3F7"></path>
                    <circle id="Oval" fill="#9FE6FF" transform="translate(101.765989, 97.108273) rotate(-63.322212) translate(-101.765989, -97.108273) " cx="101.765989" cy="97.1082727" r="15.3409368"></circle>
                    <path d="M97.1200087,106.36001 C92.0200082,103.800009 89.960008,97.5800087 92.5200083,92.4800083 C95.0800085,87.3800078 101.300009,85.3200076 106.40001,87.8800079 C111.50001,90.4400081 113.56001,96.6600086 111.00001,101.760009 C108.44001,106.84001 102.220009,108.92001 97.1200087,106.36001 Z" id="Path" fill="#5FC6DD"></path>
                    <path d="M122.120011,64.4200058 L115.86001,61.2800055 C114.68001,60.6800054 114.20001,59.2400053 114.80001,58.0600052 L115.98001,55.700005 C116.58001,54.5200049 118.020011,54.0400048 119.200011,54.6400049 L125.460011,57.7800052 C126.640011,58.3800052 127.120011,59.8200053 126.520011,61.0000055 L125.340011,63.3600057 C124.740011,64.5400058 123.300011,65.0200058 122.120011,64.4200058 Z" id="Path" fill="#BF8B21"></path>
                    <path d="M117.800011,59.9600054 L119.300011,57.0000051 C119.800011,55.980005 121.040011,55.580005 122.060011,56.080005 L118.880011,54.4800049 C117.860011,53.9800048 116.64001,54.3800049 116.12001,55.400005 L114.62001,58.3600052 C114.12001,59.3800053 114.52001,60.6000054 115.54001,61.1200055 L118.720011,62.7200056 C117.700011,62.2200056 117.30001,60.9800055 117.800011,59.9600054 Z" id="Path" fill="#AF7919"></path>
                    <path d="M106.98001,84.4800076 L99.1800089,93.6800084 C98.3400088,94.6600085 97.7600087,95.8400086 97.4600087,97.1000087 L94.7400085,108.84001 C94.5000084,109.90001 95.8400086,110.58001 96.5400086,109.74001 L104.340009,100.540009 C105.180009,99.5600089 105.760009,98.3800088 106.060009,97.1200087 L108.78001,85.3800076 C109.04001,84.3200075 107.68001,83.6400075 106.98001,84.4800076 Z" id="Path" fill="#FF8383"></path>
                    <path d="M100.940009,99.4200089 C101.320009,97.8200087 102.060009,96.3200086 103.120009,95.0600085 L107.84001,89.500008 L108.80001,85.3800076 C109.04001,84.3200075 107.70001,83.6400075 107.00001,84.4800076 L99.2000089,93.6800084 C98.3600088,94.6600085 97.7800087,95.8400086 97.4800087,97.1000087 L94.7600085,108.84001 C94.5200085,109.90001 95.8600086,110.58001 96.5600086,109.74001 L99.3000089,106.50001 L100.940009,99.4200089 Z" id="Path" fill="#FF6666"></path>
                    <path d="M94.7400085,108.84001 C94.5000084,109.90001 95.8400086,110.58001 96.5400086,109.74001 L104.340009,100.540009 C104.760009,100.040009 105.120009,99.5000089 105.400009,98.9400088 L98.1200088,95.2800085 C97.8400087,95.8600086 97.6200087,96.4600086 97.4600087,97.1000087 L94.7400085,108.84001 Z" id="Path" fill="#3294C6"></path>
                    <path d="M101.760009,97.1000087 L98.1200088,95.2800085 C97.8400087,95.8600086 97.6200087,96.4600086 97.4600087,97.1000087 L94.7400085,108.84001 C94.5000084,109.90001 95.8400086,110.58001 96.5400086,109.74001 L99.2800089,106.50001 L100.920009,99.4000089 C101.120009,98.6200088 101.400009,97.8400087 101.760009,97.1000087 Z" id="Path" fill="#0A6289"></path>
                    <circle id="Oval" fill="#828282" transform="translate(101.765989, 97.108273) rotate(-63.322212) translate(-101.765989, -97.108273) " cx="101.765989" cy="97.1082727" r="1.60009771"></circle>
                    <path d="M101.760009,97.1000087 C102.020009,96.5800086 102.540009,96.2600086 103.100009,96.2200086 C102.960009,96.0000086 102.740009,95.8000086 102.480009,95.6600086 C101.700009,95.2600085 100.720009,95.5800085 100.340009,96.3800086 C99.9400089,97.1600087 100.260009,98.1400088 101.060009,98.5200088 C101.320009,98.6600088 101.600009,98.7000088 101.880009,98.6800088 C101.560009,98.2400088 101.500009,97.6400087 101.760009,97.1000087 Z" id="Path" fill="#6D6D6D"></path>
                    <g id="Group" transform="translate(116.400010, 0.000000)">
                        <path d="M13.3400012,4.06000036 C13.3400012,4.06000036 8.78000078,3.64000033 4.66000042,0.620000055 C3.46000031,-0.260000023 1.76000016,-0.0600000054 0.820000073,1.1000001 C0.800000072,1.1200001 0.78000007,1.1400001 0.760000068,1.18000011 C-0.300000027,2.50000022 0.0400000036,4.4800004 1.52000014,5.34000048 C4.86000043,7.30000065 10.720001,10.2200009 15.8800014,10.1600009 C15.9000014,10.1800009 17.0400015,6.94000062 17.0400015,6.94000062 L13.3400012,4.06000036 Z" id="Path" fill="#A57A5D"></path>
                        <path d="M13.3400012,4.08000036 C13.3400012,4.08000036 15.2600014,5.50000049 15.2400014,8.40000075 C15.2400014,8.40000075 15.2400014,8.40000075 15.2400014,8.40000075 C15.2400014,8.40000075 15.2400014,8.40000075 15.2400014,8.40000075 C15.3400012,9.82000088 16.3600015,11.080001 17.8200016,11.440001 C19.6400018,11.8800011 21.4600019,10.760001 21.900002,8.9400008 C22.160002,7.8400007 21.860002,6.7400006 21.1800019,5.94000053 C21.1600019,5.96000053 18.7400017,3.12000028 13.3400012,4.08000036 Z" id="Path" fill="#EDCCB7"></path>
                        <path d="M18.3600016,4.30000038 C18.3600016,4.30000038 20.0400018,6.00000054 19.5600017,8.88000079 C19.5600017,8.88000079 19.5600017,8.88000079 19.5600017,8.88000079 C19.5600017,8.88000079 19.5600017,8.88000079 19.5600017,8.88000079 C19.4400017,10.3000009 20.2400018,11.720001 21.6200019,12.3000011 C23.3400021,13.0200012 25.3200023,12.2000011 26.0400023,10.4800009 C26.4800024,9.44000084 26.3400024,8.30000074 25.8000023,7.40000066 C25.8000023,7.40000066 23.8400021,4.22000038 18.3600016,4.30000038 Z" id="Path" fill="#A57A5D"></path>
                        <path d="M23.2800021,5.34000048 C23.2800021,5.34000048 24.6200022,7.32000065 23.6400021,10.0600009 C23.6400021,10.0600009 23.6400021,10.0600009 23.6400021,10.0600009 C23.6400021,10.0600009 23.6400021,10.0600009 23.6400021,10.0600009 C23.2600021,11.440001 23.8000021,12.9600012 25.0600022,13.7800012 C26.6200024,14.8000013 28.7200026,14.3400005 29.7400027,12.7800011 C30.3600027,11.8400005 30.4200027,10.700001 30.0400027,9.72000087 C30.0400027,9.72000087 28.6800026,6.24000056 23.2800021,5.34000048 Z" id="Path" fill="#EDCCB7"></path>
                        <path d="M27.9400025,7.22000065 C27.9400025,7.22000065 28.7800026,9.46000085 27.1800024,11.8800011 C27.1800024,11.8800011 27.1800024,11.8800011 27.1800024,11.8800011 C27.1800024,11.8800011 27.1800024,11.8800011 27.1800024,11.8800011 C26.4800024,13.1400012 26.6400024,14.7400013 27.6800025,15.8400014 C28.9600026,17.2000015 31.1000028,17.2600015 32.4600029,15.9800014 C33.280003,15.2000014 33.620003,14.1200013 33.480003,13.0800012 C33.460003,13.0600012 32.9800029,9.36000084 27.9400025,7.22000065 Z" id="Path" fill="#A57A5D"></path>
                        <path d="M32.0000029,10.1400009 C32.0000029,10.1400009 32.2400029,12.5200011 30.0800027,14.4600013 C30.0800027,14.4600013 30.0800027,14.4600013 30.0800027,14.4600013 C30.0800027,14.4600013 30.0800027,14.4600013 30.0800027,14.4600013 C29.1000026,15.5000014 28.8400026,17.1000015 29.5800026,18.4200016 C30.4800027,20.0600018 32.5400029,20.6400009 34.1800031,19.7400018 C35.1600031,19.2000017 35.7800032,18.2200016 35.9000032,17.1800015 C35.8800032,17.1800015 36.3400032,13.4800012 32.0000029,10.1400009 Z" id="Path" fill="#EDCCB7"></path>
                        <path d="M35.1800031,13.9400012 C35.1800031,13.9400012 34.8600031,16.3000015 32.3200029,17.7000016 C32.3200029,17.7000016 32.3200029,17.7000016 32.3200029,17.7000016 C32.3200029,17.7000016 32.3200029,17.7000016 32.3200029,17.7000016 C31.1200028,18.4800017 30.5000027,19.9800018 30.9200028,21.4400012 C31.4200028,23.2400021 33.280003,24.3000022 35.0800031,23.8000021 C36.1600032,23.5000021 36.9800033,22.700002 37.3400033,21.7000019 C37.3400033,21.6800019 38.6400035,18.1800016 35.1800031,13.9400012 Z" id="Path" fill="#A57A5D"></path>
                        <path d="M37.4000033,18.3400016 C37.4000033,18.3400016 36.6200033,20.6000018 33.840003,21.4600019 C33.840003,21.4600019 33.840003,21.4600019 33.840003,21.4600019 C33.840003,21.4600019 33.840003,21.4600019 33.840003,21.4600019 C32.5000029,21.980002 31.6000028,23.3200021 31.7200028,24.8400016 C31.8400028,26.7000024 33.460003,28.1000025 35.3200032,27.9800025 C36.4400033,27.9000025 37.4000033,27.2800024 37.9600034,26.3800024 C37.9600034,26.3600024 39.9200036,23.2000021 37.4000033,18.3400016 Z" id="Path" fill="#EDCCB7"></path>
                        <path d="M38.6800035,23.0600021 C38.6800035,23.0600021 37.3600033,25.0600021 34.4600031,25.2000023 C34.4600031,25.2000023 34.4600031,25.2000023 34.4600031,25.2000023 C34.4600031,25.2000023 34.4600031,25.2000023 34.4600031,25.2000023 C33.040003,25.3800023 31.8400028,26.4600024 31.5600028,27.9400025 C31.2200028,29.7800027 32.4400029,31.5400028 34.2800031,31.8800029 C35.4000032,32.0800029 36.4800033,31.7200028 37.2400033,30.9800028 C37.2400033,30.9600028 39.9200036,28.3800025 38.6800035,23.0600021 Z" id="Path" fill="#A57A5D"></path>
                        <path d="M38.7800035,27.9000025 C38.7800035,27.9000025 36.9600033,29.4400026 34.1400031,28.7800026 C34.1400031,28.7800026 34.1400031,28.7800026 34.1400031,28.7800026 C34.1400031,28.7800026 34.1400031,28.7800026 34.1400031,28.7800026 C32.7200029,28.5600026 31.2600028,29.2600026 30.6000027,30.6000027 C29.7600027,32.2600029 30.4400027,34.3000031 32.1200029,35.1400031 C33.140003,35.6400032 34.2800031,35.6000032 35.2000031,35.1000031 C35.1800031,35.1200031 38.4800034,33.380003 38.7800035,27.9000025 Z" id="Path" fill="#EDCCB7"></path>
                        <path d="M37.5000034,32.6200029 C37.5000034,32.6200029 35.3400032,33.620003 32.8000029,32.2200029 C32.8000029,32.2200029 32.8000029,32.2200029 32.8000029,32.2200029 C32.8000029,32.2200029 32.8000029,32.2200029 32.8000029,32.2200029 C31.5000028,31.6200028 29.9000027,31.9000029 28.9000026,33.020003 C27.6400025,34.4000031 27.7600025,36.5400033 29.1400026,37.8000034 C29.9800027,38.5600034 31.1000028,38.8200035 32.1200029,38.6000035 C32.0800029,38.5800034 35.7400032,37.8000034 37.5000034,32.6200029 Z" id="Path" fill="#A57A5D"></path>
                        <path d="M35.0000031,36.8000033 C35.0000031,36.8000033 32.6600029,37.3000033 30.5000027,35.3600032 C30.5000027,35.3600032 30.5000027,35.3600032 30.5000027,35.3600032 C30.5000027,35.3600032 30.5000027,35.3600032 30.5000027,35.3600032 C29.3600026,34.5000031 27.7400025,34.4200031 26.5200024,35.2800032 C25.0000022,36.3600033 24.6200022,38.4600034 25.7000023,39.9800036 C26.3400024,40.9000037 27.3800024,41.4000037 28.4200025,41.4200412 C28.4000025,41.4200412 32.1400029,41.4800037 35.0000031,36.8000033 Z" id="Path" fill="#EDCCB7"></path>
                        <path d="M31.6200028,40.3200036 C31.6200028,40.3200036 29.2400026,40.4200036 27.4200025,38.1600034 C27.4200025,38.1600034 27.4200025,38.1600034 27.4200025,38.1600034 C27.4200025,38.1600034 27.4200025,38.1600034 27.4200025,38.1600034 C26.4400024,37.1200033 24.8600022,36.7800033 23.5000021,37.4400033 C21.820002,38.2400034 21.1200019,40.2600036 21.920002,41.9400037 C22.400002,42.9600038 23.3400021,43.6200039 24.3800022,43.8000039 C24.3600022,43.8200039 28.0400025,44.480004 31.6200028,40.3200036 Z" id="Path" fill="#A57A5D"></path>
                        <path d="M27.7200025,43.2600039 C27.7200025,43.2600039 25.3400023,43.1200039 23.7600021,40.6800036 C23.7600021,40.6800036 23.7600021,40.6800036 23.7600021,40.6800036 C23.7600021,40.6800036 23.7600021,40.6800036 23.7600021,40.6800036 C22.900002,39.5400035 21.3600019,39.0400035 19.9400018,39.5400035 C18.1800016,40.1600036 17.2600015,42.1000038 17.8800016,43.8600039 C18.2600016,44.920004 19.1200017,45.6800041 20.1200018,45.9800041 C20.1400018,45.9600041 23.7200021,47.0000042 27.7200025,43.2600039 Z" id="Path" fill="#EDCCB7"></path>
                        <path d="M23.5400021,45.7600041 C23.5400021,45.7600041 21.2000019,45.280004 19.9800018,42.6400038 C19.9800018,42.6400038 19.9800018,42.6400038 19.9800018,42.6400038 C19.9800018,42.6400038 19.9800018,42.6400038 19.9800018,42.6400038 C19.2800017,41.3800037 17.8400016,40.6800036 16.3600015,40.9800037 C14.5400013,41.3600037 13.3600012,43.1400039 13.7200012,44.960004 C13.9400012,46.0600041 14.7000013,46.9400042 15.6400014,47.3600042 C15.6400014,47.3800042 19.0400017,48.9200044 23.5400021,45.7600041 Z" id="Path" fill="#A57A5D"></path>
                        <path d="M18.8600017,47.6800043 C18.8600017,47.6800043 16.6200015,46.8200042 15.8600014,44.0200039 C15.8600014,44.0200039 15.8600014,44.0200039 15.8600014,44.0200039 C15.8600014,44.0200039 15.8600014,44.0200039 15.8600014,44.0200039 C15.3800014,42.6800038 14.0600013,41.7200037 12.5600011,41.7800037 C10.700001,41.8400037 9.24000083,43.4200039 9.30000083,45.280004 C9.34000084,46.4000041 9.94000089,47.3800042 10.800001,47.9800043 C10.820001,47.9600043 13.9200012,50.0400045 18.8600017,47.6800043 Z" id="Path" fill="#EDCCB7"></path>
                        <path d="M1.52000014,5.32000048 C4.86000043,7.28000065 10.720001,10.2000009 15.8800014,10.1400009 C15.9000014,10.1600001 16.3800015,8.80000079 16.7200015,7.8400007 C16.2000014,7.72000069 15.6600014,7.54000067 15.1400014,7.20000064 C15.1400014,7.18000064 6.78000061,6.80000061 0.760000068,1.1600001 C-0.320000029,2.50000022 0.0400000036,4.4600004 1.52000014,5.32000048 Z" id="Path" fill="#684832"></path>
                        <path d="M21.900002,8.9600008 C21.900002,8.9200008 21.920002,8.88000079 21.920002,8.84000079 C21.2400019,8.68000078 20.4400018,8.34000075 19.6400014,7.72000065 C19.6400014,7.74000069 17.2400015,8.54000076 15.1400014,7.22000065 C15.1400014,7.22000065 15.1400014,7.22000065 15.1400014,7.22000065 C15.2000014,7.58000068 15.2400014,7.98000071 15.2400014,8.40000075 C15.2400014,8.40000075 15.2400014,8.40000075 15.2400014,8.40000075 C15.2400014,8.40000075 15.2400014,8.40000075 15.2400014,8.40000075 C15.3400014,9.82000088 16.3600015,11.080001 17.8200016,11.440001 C19.6400014,11.8800011 21.4600019,10.760001 21.900002,8.9600008 Z" id="Path" fill="#C69985"></path>
                        <path d="M26.0400023,10.5000009 C25.3000023,10.2200009 24.4800022,9.76000087 23.9200021,8.9800008 C23.9200021,8.9200008 21.820002,9.46000085 19.6400018,7.74000069 C19.6400018,7.74000069 19.6400018,7.74000069 19.6400018,7.74000069 C19.6400018,8.10000072 19.6200018,8.50000076 19.5600017,8.9000008 C19.5600017,8.9000008 19.5600017,8.9000008 19.5600017,8.9000008 C19.5600017,8.9000008 19.5600017,8.9000008 19.5600017,8.9000008 C19.4400017,10.3200009 20.2400018,11.7400007 21.6200019,12.3200011 C23.3600021,13.0200012 25.3200023,12.2000011 26.0400023,10.5000009 Z" id="Path" fill="#684832"></path>
                        <path d="M29.7000027,12.8200011 C29.0600026,12.4400008 28.3000025,11.8400011 27.7000025,10.860001 C27.7000025,10.860001 25.1800023,10.700001 23.9200021,8.9400008 C23.8600021,9.28000083 23.7800021,9.66000086 23.6400021,10.0400009 C23.6400021,10.0400009 23.6400021,10.0400009 23.6400021,10.0400009 C23.6400021,10.0400009 23.6400021,10.0400009 23.6400021,10.0400009 C23.2600021,11.420001 23.8000021,12.9400008 25.0600022,13.7600012 C26.6200024,14.7800013 28.6800026,14.3600013 29.7000027,12.8200011 Z" id="Path" fill="#C69985"></path>
                        <path d="M32.3400029,16.0600014 C31.7400028,15.4800014 31.1000028,14.6000013 31.0400028,13.380001 C31.0400028,13.380001 29.0000026,12.9800012 27.7000025,10.880001 C27.5600025,11.200001 27.3800024,11.540001 27.1600024,11.9000011 C27.1600024,11.9000011 27.1600024,11.9000011 27.1600024,11.9000011 L27.1600024,11.9000011 C26.4600024,13.1600012 26.6200024,14.7600013 27.6600025,15.8600014 C28.9200026,17.1600015 30.9800028,17.2400015 32.3400029,16.0600014 Z" id="Path" fill="#684832"></path>
                        <path d="M34.4600031,19.5600017 C34.060003,18.9400017 33.660003,18.0600016 33.500003,16.8600012 C33.500003,16.8600012 31.1800028,15.7600014 31.0400028,13.3600012 C30.8000028,13.7200012 30.4800027,14.1000013 30.0800027,14.4400013 C30.0800027,14.4400013 30.0800027,14.4400013 30.0800027,14.4400013 C30.0800027,14.4400013 30.0800027,14.4400013 30.0800027,14.4400013 C29.1000026,15.4800014 28.8400026,17.0800015 29.5800026,18.4000016 C30.4800027,20.0400018 32.5400029,20.6200018 34.1800031,19.7200018 C34.2800031,19.6800018 34.3600031,19.6200018 34.4600031,19.5600017 Z" id="Path" fill="#C69985"></path>
                        <path d="M33.500003,16.8600015 L33.500003,16.8600015 C33.180003,17.1600015 32.8000029,17.4400016 32.3400029,17.6800016 C32.3400029,17.6800016 32.3400029,17.6800016 32.3400029,17.6800016 C32.3400029,17.6800016 32.3400029,17.6800016 32.3400029,17.6800016 C31.1400028,18.4600017 30.5200027,19.9600018 30.9400028,21.4200019 C31.4400028,23.2200021 33.300003,24.2800022 35.1000031,23.7800021 C35.2000031,23.7400021 35.3200032,23.7200021 35.4200032,23.6800021 C35.1800031,22.9800021 35.0600031,21.980002 35.5000032,20.6800018 C35.4200032,20.7000019 33.860003,19.5200017 33.500003,16.8600015 Z" id="Path" fill="#684832"></path>
                        <path d="M36.1000032,24.8800022 C36.1200032,24.8800022 34.5600031,23.4400021 35.4800032,20.6600018 C35.0400031,20.9600019 34.5000031,21.2400019 33.860003,21.4400019 C33.860003,21.4400019 33.860003,21.4400019 33.860003,21.4400019 C33.860003,21.4400019 33.860003,21.4400019 33.860003,21.4400019 C32.5200029,21.960002 31.6200028,23.3000021 31.7400028,24.8200022 C31.8600028,26.6800024 33.480003,28.0800025 35.3400032,27.9600025 C35.3800032,27.9600025 35.4200032,27.9600025 35.4600032,27.9400025 C35.3200032,27.1200024 35.3400032,25.9400023 36.1000032,24.8800022 Z" id="Path" fill="#C69985"></path>
                        <path d="M34.4600031,25.2000023 C34.4600031,25.2000023 34.4600031,25.2000023 34.4600031,25.2000023 C33.040003,25.3800023 31.8400028,26.4600024 31.5600028,27.9400025 C31.2200028,29.7800027 32.4400029,31.5400028 34.2800031,31.8800029 C34.3200031,31.8800029 34.3600031,31.9000029 34.4000031,31.9000029 C34.8400031,30.7800028 35.6000032,28.9800026 35.6400032,28.9800026 C35.6800032,28.9800026 34.7800031,26.7400024 36.0800032,24.9200022 L36.0800032,24.9200022 C35.6200032,25.0600022 35.0800031,25.1600022 34.4600031,25.2000023 C34.4600031,25.2000023 34.4600031,25.2000023 34.4600031,25.2000023 Z" id="Path" fill="#684832"></path>
                        <path d="M35.6400032,28.9600026 C35.1800031,28.9600026 34.6600031,28.9200026 34.1200031,28.8000026 C34.1200031,28.8000026 34.1200031,28.8000026 34.1200031,28.8000026 C34.1200031,28.8000026 34.1200031,28.8000026 34.1200031,28.8000026 C32.7000029,28.5800026 31.2400028,29.2800026 30.5800027,30.6200027 C29.7400027,32.2800029 30.4200027,34.3200031 32.1000029,35.1600031 C32.2000029,35.2200031 32.3200029,35.2600032 32.4200029,35.3000032 C32.6600029,34.5600031 33.160003,33.580003 34.100003,32.7600029 C34.040003,32.7400029 35.6000032,28.9600026 35.6400032,28.9600026 L35.6400032,28.9600026 Z" id="Path" fill="#C69985"></path>
                        <path d="M34.100003,32.7400029 C33.680003,32.6200029 33.240003,32.4400029 32.7800029,32.2000029 C32.7800029,32.2000029 32.7800029,32.2000029 32.7800029,32.2000029 C32.7800029,32.2000029 32.7800029,32.2000029 32.7800029,32.2000029 C31.4800028,31.6000028 29.8800027,31.8800029 28.8800026,33.000003 C27.6200025,34.3800031 27.7400025,36.5200033 29.1200026,37.7800034 C29.3800026,38.0200034 29.6600027,38.2000034 29.9600027,38.3400034 C30.9600028,37.5000034 32.1800029,36.4200033 32.1800029,36.4200033 C32.1600029,36.4200033 32.3000029,34.3200031 34.100003,32.7400029 Z" id="Path" fill="#684832"></path>
                        <path d="M30.5000027,35.3600032 L30.5000027,35.3600032 C29.3600026,34.5000031 27.7400025,34.4200031 26.5200024,35.2800032 C25.0000022,36.3600033 24.6200022,38.4600034 25.7000023,39.9800036 C25.8200023,40.1400036 25.9400023,40.2800036 26.0600023,40.4200036 C26.7000024,39.9400036 27.5600025,39.5000035 28.6600026,39.3400035 C28.7800026,39.4200035 32.2000029,36.4400033 32.1800029,36.4200033 C32.1800029,36.4200033 32.1800029,36.4200033 32.1800029,36.4200033 C31.6400028,36.2000032 31.0600028,35.8600032 30.5000027,35.3600032 C30.5000027,35.3600032 30.5000027,35.3600032 30.5000027,35.3600032 Z" id="Path" fill="#C69985"></path>
                        <path d="M27.4200025,38.1800034 C27.4200025,38.1800034 27.4200025,38.1800034 27.4200025,38.1800034 C27.4200025,38.1800034 27.4200025,38.1800034 27.4200025,38.1800034 C26.4400024,37.1400033 24.8600022,36.8000033 23.5000021,37.4600033 C21.820002,38.2600034 21.1200019,40.2800036 21.920002,41.9600038 C22.060002,42.2400038 22.220002,42.4800038 22.400002,42.7000038 C22.9800021,42.3400038 23.7200021,42.0000038 24.6800022,41.7800037 C24.7200022,41.8200037 25.9800023,39.7200036 28.6600026,39.3400035 C28.6600026,39.3400035 28.6600026,39.3400035 28.6600026,39.3400035 C28.2400025,39.0400035 27.8000025,38.6600035 27.4200025,38.1800034 Z" id="Path" fill="#684832"></path>
                        <path d="M23.7800021,40.6800036 C23.7800021,40.6800036 23.7800021,40.6800036 23.7800021,40.6800036 L23.7800021,40.6800036 C22.920002,39.5400035 21.3800019,39.0400035 19.9600018,39.5400035 C18.2000016,40.1600036 17.2800015,42.1000038 17.9000016,43.8600039 C17.9400016,43.9800039 18.0000016,44.1000039 18.0600016,44.220004 C18.7400017,44.0000039 19.6400018,43.8800039 20.8600019,44.0400039 C20.8800019,44.0600039 21.920002,42.4200038 24.6800022,41.7800037 L24.6800022,41.7800037 C24.3600022,41.4800037 24.0600022,41.1200037 23.7800021,40.6800036 Z" id="Path" fill="#C69985"></path>
                        <path d="M20.8400019,44.0400039 L20.8400019,44.0400039 C20.5200018,43.6600039 20.2200018,43.2000039 19.9600018,42.6600038 C19.9600018,42.6600038 19.9600018,42.6600038 19.9600018,42.6600038 L19.9600018,42.6600038 C19.2600017,41.4000037 17.8200016,40.7000036 16.3400015,41.0000037 C14.5200013,41.3800037 13.3400012,43.1600039 13.7000012,44.980004 C13.7200012,45.100004 13.7600012,45.220004 13.8000012,45.3200041 C14.5600013,45.160004 15.4400014,45.120004 16.3600015,45.3000041 C16.4000015,45.3200041 17.4400016,43.6000039 20.8400019,44.0400039 Z" id="Path" fill="#684832"></path>
                        <path d="M16.3800015,45.3000041 L16.3800015,45.3000041 C16.1800014,44.920004 16.0000014,44.500004 15.8800014,44.0200039 C15.8800014,44.0200039 15.8800014,44.0200039 15.8800014,44.0200039 L15.8800014,44.0200039 C15.4000014,42.6800038 14.0800013,41.7200037 12.5800011,41.7800037 C10.720001,41.8400037 9.26000083,43.4200039 9.32000083,45.280004 C9.34000084,46.0400041 9.62000086,46.7200042 10.0600009,47.2600042 L10.0600009,47.2600042 C10.0600009,47.2600042 12.6000011,44.620004 16.3800015,45.3000041 Z" id="Path" fill="#C69985"></path>
                    </g>
                </g>
                <g id="stroke" transform="translate(47.000000, 47.000000)">
                    <path d="M75.2800067,105.220009 C73.2600065,98.6400088 73.6800066,91.3000082 77.0200069,84.6800076 C83.8800075,71.0200063 100.540009,65.5000059 114.20001,72.3600065 C127.860011,79.2200071 133.380012,95.8800086 126.520011,109.54001 C119.660011,123.200011 103.000009,128.720012 89.340008,121.860011 C83.5800075,118.960011 79.2800071,114.34001 76.7200069,108.94001" id="Path" stroke="#0F222E" stroke-width="2.00000018" stroke-linecap="round"></path>
                    <path d="M87.1000078,81.1200073 C87.4800078,80.7800072 87.8600079,80.4600072 88.2400079,80.1400072" id="Path" stroke="#0F222E" stroke-width="2.00000018" stroke-linecap="round"></path>
                    <path d="M91.1200081,78.200007 C97.2000087,74.8000067 104.820009,74.3600066 111.50001,77.7200069 C122.200011,83.1000074 126.520011,96.1600086 121.140011,106.86001 C115.76001,117.560011 102.700009,121.880011 92.0000082,116.50001 C81.3000073,111.12001 76.9800069,98.0600088 82.3600074,87.3600078 C83.0400074,86.0200077 83.8400075,84.7600076 84.7400076,83.6200075" id="Path" stroke="#0F222E" stroke-width="2.00000018" stroke-linecap="round"></path>
                    <path d="M106.98001,84.4800076 L99.1800089,93.6800084 C98.3400088,94.6600085 97.7600087,95.8400086 97.4600087,97.1000087 L94.7400085,108.84001 C94.5000084,109.90001 95.8400086,110.58001 96.5400086,109.74001 L104.340009,100.540009 C105.180009,99.5600089 105.760009,98.3800088 106.060009,97.1200087 L108.78001,85.3800076 C109.04001,84.3200075 107.68001,83.6400075 106.98001,84.4800076 Z" id="Path" stroke="#0F222E" stroke-width="2.00000018" stroke-linecap="round"></path>
                    <circle id="Oval" stroke="#0F222E" stroke-width="2.00012214" stroke-linecap="round" transform="translate(101.765989, 97.108273) rotate(-63.322212) translate(-101.765989, -97.108273) " cx="101.765989" cy="97.1082727" r="1.60009771"></circle>
                    <path d="M122.500011,78.020007 L123.140011,73.3000066 C123.340011,71.7800064 122.560011,70.3000063 121.200011,69.6200062 L112.20001,65.1000058 C110.84001,64.4200058 109.18001,64.6800058 108.08001,65.7400059 L104.360009,69.4000062" id="Path" stroke="#0F222E" stroke-width="2.00000018" stroke-linecap="round"></path>
                    <path d="M122.120011,64.4200058 L115.86001,61.2800055 C114.68001,60.6800054 114.20001,59.2400053 114.80001,58.0600052 L115.98001,55.700005 C116.58001,54.5200049 118.020011,54.0400048 119.200011,54.6400049 L125.460011,57.7800052 C126.640011,58.3800052 127.120011,59.8200053 126.520011,61.0000055 L125.340011,63.3600057 C124.740011,64.5400058 123.300011,65.0200058 122.120011,64.4200058 Z" id="Path" stroke="#0F222E" stroke-width="2.00000018" stroke-linecap="round"></path>
                    <line x1="113.86001" y1="65.4800059" x2="115.86001" y2="61.5200055" id="Path" stroke="#0F222E" stroke-width="2.00000018" stroke-linecap="round"></line>
                    <line x1="119.640011" y1="68.8200062" x2="121.700011" y2="64.7000058" id="Path" stroke="#0F222E" stroke-width="2.00000018" stroke-linecap="round"></line>
                    <path d="M135.260012,47.6800043 C135.260012,47.6800043 133.020012,46.8200042 132.260012,44.0200039 C132.260012,44.0200039 132.260012,44.0200039 132.260012,44.0200039 C132.260012,44.0200039 132.260012,44.0200039 132.260012,44.0200039 C131.780012,42.6800038 130.460012,41.7200037 128.960012,41.7800037 C127.100011,41.8400037 125.640011,43.4200039 125.700011,45.280004 C125.740011,46.4000041 126.340011,47.3800042 127.200011,47.9800043 C127.220011,47.9600043 130.320012,50.0400045 135.260012,47.6800043 Z" id="Path" stroke="#0F222E" stroke-width="2.00000018" stroke-linecap="round" stroke-linejoin="round"></path>
                    <path d="M128.060011,41.7800037 C121.400011,39.1600035 113.72001,42.0000038 110.44001,48.5400043 C107.48001,54.4200049 109.06001,61.4000055 113.86001,65.4800059 M119.880011,68.4800061 C126.000011,69.8600062 132.520012,66.980006 135.480012,61.1000055 C137.640012,56.7800051 137.380011,51.8800046 135.180012,47.9600043 M130.500012,48.8800044 C132.720012,51.7200046 133.260012,55.700005 131.540012,59.1400053 C130.100012,62.0000055 127.400011,63.8400057 124.460011,64.3200058 M114.44001,59.2600053 C113.06001,56.6200051 112.92001,53.3600048 114.36001,50.5000045 C116.44001,46.3600041 121.120011,44.380004 125.440011,45.5400041" id="Shape" stroke="#0F222E" stroke-width="2.00000018" stroke-linecap="round"></path>
                    <path d="M135.260012,47.7000043 C136.560012,47.5400043 138.160012,47.0200042 139.920013,45.7800041 C139.920013,45.7800041 137.580012,45.3000041 136.360012,42.6600038 C136.360012,42.6600038 136.360012,42.6600038 136.360012,42.6600038 C136.360012,42.6600038 136.360012,42.6600038 136.360012,42.6600038 C135.660012,41.4000037 134.220012,40.7000036 132.740012,41.0000037 C131.980012,41.1600037 131.340012,41.5600037 130.860012,42.1000038" id="Path" stroke="#0F222E" stroke-width="2.00000018" stroke-linecap="round" stroke-linejoin="round"></path>
                    <path d="M139.940013,45.7800041 C141.160013,45.4200041 142.620012,44.700004 144.140013,43.2800039 C144.140013,43.2800039 141.760013,43.1400039 140.180013,40.7000036 C140.180013,40.7000036 140.180013,40.7000036 140.180013,40.7000036 C140.180013,40.7000036 140.180013,40.7000036 140.180013,40.7000036 C139.320012,39.5600035 137.780012,39.0600035 136.360012,39.5600035 C135.620012,39.8200036 135.020012,40.3200036 134.620012,40.9400037" id="Path" stroke="#0F222E" stroke-width="2.00000018" stroke-linecap="round" stroke-linejoin="round"></path>
                    <path d="M146.960013,41.4200037 C147.300013,41.1000037 147.660013,40.7400036 148.020013,40.3400036 C148.020013,40.3400036 145.640013,40.4400036 143.820013,38.1800034 C143.820013,38.1800034 143.820013,38.1800034 143.820013,38.1800034 C143.820013,38.1800034 143.820013,38.1800034 143.820013,38.1800034 C142.840013,37.1400033 141.260013,36.8000033 139.900013,37.4600033 C139.060012,37.8600034 138.460012,38.5800034 138.180012,39.3800035" id="Path" stroke="#0F222E" stroke-width="2.00000018" stroke-linecap="round" stroke-linejoin="round"></path>
                    <path d="M144.120013,43.2800039 C144.280013,43.2200039 144.440013,43.1400039 144.600013,43.0600038" id="Path" stroke="#0F222E" stroke-width="2.00000018" stroke-linecap="round" stroke-linejoin="round"></path>
                    <path d="M148.020013,40.3400036 C149.100013,39.6600035 150.320013,38.5800034 151.400014,36.8000033 C151.400014,36.8000033 149.060013,37.3000033 146.900013,35.3600032 C146.900013,35.3600032 146.900013,35.3600032 146.900013,35.3600032 C146.900013,35.3600032 146.900013,35.3600032 146.900013,35.3600032 C145.760013,34.5000031 144.140013,34.4200031 142.920013,35.2800032 C142.340013,35.6800032 141.940013,36.2200032 141.700013,36.8400033" id="Path" stroke="#0F222E" stroke-width="2.00000018" stroke-linecap="round" stroke-linejoin="round"></path>
                    <path d="M151.400014,36.8000033 C152.300014,35.9000032 153.240014,34.5800031 153.900014,32.6200029 C153.900014,32.6200029 151.740014,33.620003 149.200013,32.2200029 C149.200013,32.2200029 149.200013,32.2200029 149.200013,32.2200029 C149.200013,32.2200029 149.200013,32.2200029 149.200013,32.2200029 C147.900013,31.6200028 146.300013,31.9000029 145.300013,33.020003 C144.860013,33.500003 144.580013,34.080003 144.480013,34.6800031" id="Path" stroke="#0F222E" stroke-width="2.00000018" stroke-linecap="round" stroke-linejoin="round"></path>
                    <path d="M153.900014,32.6200029 C154.520014,31.5200028 155.060014,29.9800027 155.180014,27.9200025 C155.180014,27.9200025 153.360014,29.4600026 150.540013,28.8000026 C150.540013,28.8000026 150.540013,28.8000026 150.540013,28.8000026 C150.540013,28.8000026 150.540013,28.8000026 150.540013,28.8000026 C149.120013,28.5800026 147.660013,29.2800026 147.000013,30.6200027 C146.760013,31.1000028 146.640013,31.6200028 146.640013,32.1400029" id="Path" stroke="#0F222E" stroke-width="2.00000018" stroke-linejoin="round"></path>
                    <path d="M155.180014,27.9000025 C155.480014,26.6600024 155.560014,25.0400021 155.100014,23.0400021 C155.100014,23.0400021 153.780014,25.0400021 150.880013,25.1800023 C150.880013,25.1800023 150.880013,25.1800023 150.880013,25.1800023 C150.880013,25.1800023 150.880013,25.1800023 150.880013,25.1800023 C149.460013,25.3600023 148.260013,26.4400024 147.980013,27.9200025 C147.900013,28.3800025 147.900013,28.8400026 148.000013,29.2600026" id="Path" stroke="#0F222E" stroke-width="2.00000018" stroke-linecap="round" stroke-linejoin="round"></path>
                    <path d="M155.080014,23.0600021 C155.060014,21.7800019 154.760014,20.1800018 153.800014,18.3400016 C153.800014,18.3400016 153.020014,20.6000018 150.240013,21.4600019 C150.240013,21.4600019 150.240013,21.4600019 150.240013,21.4600019 C150.240013,21.4600019 150.240013,21.4600019 150.240013,21.4600019 C148.900013,21.980002 148.000013,23.3200021 148.120013,24.8400016 C148.160013,25.3000023 148.280013,25.7400023 148.480013,26.1400023" id="Path" stroke="#0F222E" stroke-width="2.00000018" stroke-linecap="round" stroke-linejoin="round"></path>
                    <path d="M153.800014,18.3400016 C153.540014,17.0800015 152.900014,15.5600014 151.580014,13.9400012 C151.580014,13.9400012 151.260014,16.3000015 148.720013,17.7000016 C148.720013,17.7000016 148.720013,17.7000016 148.720013,17.7000016 C148.720013,17.7000016 148.720013,17.7000016 148.720013,17.7000016 C147.520013,18.4800017 146.900013,19.9800018 147.320013,21.4400012 C147.500013,22.100002 147.860013,22.640002 148.340013,23.0600021" id="Path" stroke="#0F222E" stroke-width="2.00000018" stroke-linecap="round" stroke-linejoin="round"></path>
                    <path d="M151.580014,13.9400012 C151.040014,12.7800011 150.060013,11.440001 148.400013,10.1400009 C148.400013,10.1400009 148.640013,12.5200011 146.480013,14.4600013 C146.480013,14.4600013 146.480013,14.4600013 146.480013,14.4600013 C146.480013,14.4600013 146.480013,14.4600013 146.480013,14.4600013 C145.760013,15.2200014 145.440013,16.2800015 145.600013,17.3000015" id="Path" stroke="#0F222E" stroke-width="2.00000018" stroke-linecap="round" stroke-linejoin="round"></path>
                    <path d="M148.400013,10.1400009 C147.580013,9.14000082 146.300013,8.06000072 144.340013,7.22000065 C144.340013,7.22000065 145.180013,9.46000085 143.580013,11.8800011 C143.580013,11.8800011 143.580013,11.8800011 143.580013,11.8800011 C143.580013,11.8800011 143.580013,11.8800011 143.580013,11.8800011 C142.880013,13.1400012 143.040013,14.7400013 144.080013,15.8400014 C144.440013,16.2200006 144.880013,16.5200015 145.360013,16.6800015" id="Path" stroke="#0F222E" stroke-width="2.00000018" stroke-linecap="round" stroke-linejoin="round"></path>
                    <path d="M144.340013,7.22000065 C143.300013,6.44000058 141.800013,5.70000051 139.700012,5.34000048 C139.700012,5.34000048 141.040013,7.32000065 140.060013,10.0600009 C140.060013,10.0600009 140.060013,10.0600009 140.060013,10.0600009 C140.060013,10.0600009 140.060013,10.0600009 140.060013,10.0600009 C139.680012,11.440001 140.220013,12.9600012 141.480013,13.7800012 C142.000013,14.1200013 142.580013,14.3000013 143.160013,14.3200013" id="Path" stroke="#0F222E" stroke-width="2.00000018" stroke-linecap="round" stroke-linejoin="round"></path>
                    <path d="M139.680012,5.32000048 C138.520012,4.74000042 136.920012,4.26000038 134.760012,4.30000038 C134.760012,4.30000038 136.440012,6.00000054 135.960012,8.88000079 C135.960012,8.88000079 135.960012,8.88000079 135.960012,8.88000079 C135.960012,8.88000079 135.960012,8.88000079 135.960012,8.88000079 C135.840012,10.3000009 136.640012,11.720001 138.020012,12.3000011 C138.660012,12.5600011 139.340012,12.6200011 139.980013,12.5000011" id="Path" stroke="#0F222E" stroke-width="2.00000018" stroke-linecap="round" stroke-linejoin="round"></path>
                    <path d="M134.760012,4.30000038 C133.520012,3.90000035 131.860012,3.70000033 129.740012,4.06000036 C129.740012,4.06000036 131.660012,5.48000049 131.640012,8.38000075 C131.640012,8.38000075 131.640012,8.38000075 131.640012,8.38000075 C131.640012,8.38000075 131.640012,8.38000075 131.640012,8.38000075 C131.740012,9.80000088 132.760012,11.060001 134.220012,11.420001 C134.980012,11.600001 135.760012,11.520001 136.420012,11.200001" id="Path" stroke="#0F222E" stroke-width="2.00000018" stroke-linecap="round" stroke-linejoin="round"></path>
                    <path d="M122.520011,7.72000069 C125.520011,9.06000081 129.040012,10.2000009 132.280012,10.1600009" id="Path" stroke="#0F222E" stroke-width="2.00000018" stroke-linecap="round" stroke-linejoin="round"></path>
                    <path d="M129.740012,4.06000036 C129.740012,4.06000036 125.180011,3.64000033 121.060011,0.620000055 C119.860011,-0.260000023 118.160011,-0.0600000054 117.22001,1.1000001 C117.20001,1.1200001 117.18001,1.1400001 117.16001,1.18000011 C116.10001,2.50000022 116.44001,4.4800004 117.920011,5.34000048 C118.340011,5.5800005 118.800011,5.84000052 119.300011,6.12000055" id="Path" stroke="#0F222E" stroke-width="2.00000018" stroke-linecap="round" stroke-linejoin="round"></path>
                    <path d="M100.500009,124.780011 L127.040011,138.000012 C132.380012,140.660013 138.640012,136.780012 138.640012,130.820012 L138.640012,46.9800042 C138.640012,46.8000042 138.640012,46.6200042 138.620012,46.4400042" id="Path" stroke="#0F222E" stroke-width="2.00000018" stroke-linecap="round" stroke-linejoin="round"></path>
                    <path d="M0.0600000054,45.3000041 L0.0600000054,115.82001 C0.0600000054,118.860011 1.78000016,121.640011 4.5000004,123.000011 L42.6800038,142.000013 C44.940004,143.120013 47.5800043,143.120013 49.8400045,142.000013 L86.4400077,123.780011" id="Path" stroke="#0F222E" stroke-width="2.00000018" stroke-linecap="round" stroke-linejoin="round"></path>
                    <path d="M134.700012,40.0800036 C134.540012,39.9800018 134.380012,39.9000036 134.200012,39.8200036 L96.0200086,20.8200019 C93.7600084,19.7000018 91.1200081,19.7000018 88.8600079,20.8200019 L49.8200045,40.2600036 C47.5600043,41.3800037 44.920004,41.3800037 42.6600038,40.2600036 L11.640001,24.8000022 C6.30000056,22.140002 0.0400000036,26.0200023 0.0400000036,31.9800018 L0.0400000036,41.0800037" id="Path" stroke="#0F222E" stroke-width="2.00000018" stroke-linecap="round" stroke-linejoin="round"></path>
                    <path d="M83.6400075,118.060011 L47.0000042,136.300002 C46.7600042,136.420012 46.5200042,136.480012 46.2600041,136.480012 C46.0000041,136.480012 45.7600041,136.420012 45.5200041,136.300002 L7.34000066,117.300002 C6.7600006,117.02001 6.42000057,116.44001 6.42000057,115.800002 L6.42000057,31.9800029 C6.42000057,30.8400028 7.42000057,30.3000024 8.08000072,30.3000024 C8.32000074,30.3000024 8.56000077,30.3600027 8.82000079,30.4800027 L39.8400036,45.9200041 C41.8200037,46.9000042 44.0400039,47.4200042 46.2400041,47.4200042 C48.4600043,47.4200042 50.6600045,46.9000042 52.6400047,45.9200041 L91.6800082,26.4800024 C91.9200006,26.3600024 92.1600082,26.3000024 92.4200006,26.3000024 C92.6800083,26.3000024 92.9400083,26.3600024 93.1600083,26.4800024 L121.960011,40.8000024" id="Path" stroke="#0F222E" stroke-width="2.00000018" stroke-linecap="round" stroke-linejoin="round"></path>
                    <path d="M132.300012,65.4600059 L132.300012,130.820012 C132.300012,131.300012 132.140012,131.680012 131.820012,132.000012 C131.500012,132.320012 131.060012,132.500012 130.640012,132.500012 C130.400012,132.500012 130.160012,132.440012 129.900012,132.320012 L115.36001,125.080011" id="Path" stroke="#0F222E" stroke-width="2.00000018" stroke-linecap="round" stroke-linejoin="round"></path>
                    <line x1="132.300012" y1="52.7200047" x2="132.300012" y2="56.9800051" id="Path" stroke="#0F222E" stroke-width="2.00000018" stroke-linecap="round" stroke-linejoin="round"></line>
                    <line x1="46.1600041" y1="41.0800037" x2="46.1600041" y2="131.380012" id="Path" stroke="#0F222E" stroke-width="2.00000018" stroke-linecap="round" stroke-linejoin="round"></line>
                    <line x1="92.5400083" y1="71.0000063" x2="92.5400083" y2="31.7000028" id="Path" stroke="#0F222E" stroke-width="2.00000018" stroke-linecap="round" stroke-linejoin="round"></line>
                    <path d="M79.0000071,120.380011 L64.2000057,110.94001 C61.9000006,109.46001 60.5000054,106.92001 60.5000054,104.180009 L60.5000054,99.7800089 C60.5000054,96.4600086 57.0400051,94.3000084 54.0600048,95.7400086 L49.3200044,98.0400088 C47.3200042,99.0000089 45.000004,99.0200089 43.0000038,98.0600088 L29.7600027,91.7400082 C27.6400025,90.7200081 26.3000024,88.5800079 26.3000024,86.2400077 L26.3000024,82.1400073 C26.3000024,79.0400071 24.4200022,76.2400068 21.5400019,75.0600067 L6.40000057,68.8600062" id="Path" stroke="#0F222E" stroke-width="2.00000018" stroke-linecap="round" stroke-linejoin="round"></path>
                    <line x1="128.640012" y1="104.040009" x2="132.300012" y2="106.40001" id="Path" stroke="#0F222E" stroke-width="2.00000018" stroke-linecap="round" stroke-linejoin="round"></line>
                    <path d="M70.8000063,40.8000036 L70.8000063,47.5200042 C70.8000063,51.5800046 75.1400067,54.1600048 78.720007,52.2400047 L89.620008,46.3400041 C91.4400082,45.3400041 93.6600084,45.3800041 95.4600085,46.4200042 L108.96001,54.2600049" id="Path" stroke="#0F222E" stroke-width="2.00000018" stroke-linecap="round" stroke-linejoin="round"></path>
                    <line x1="14.6000013" y1="96.0000086" x2="32.5600029" y2="104.940009" id="Path" stroke="#0F222E" stroke-width="2.00000018" stroke-linecap="round" stroke-linejoin="round"></line>
                    <line x1="116.96001" y1="47.7600043" x2="122.880011" y2="50.7000045" id="Path" stroke="#0F222E" stroke-width="2.00000018" stroke-linecap="round" stroke-linejoin="round"></line>
                    <line x1="100.160009" y1="39.3800035" x2="112.34001" y2="45.4600041" id="Path" stroke="#0F222E" stroke-width="2.00000018" stroke-linecap="round" stroke-linejoin="round"></line>
                    <line x1="17.8400016" y1="106.38001" x2="26.2800023" y2="110.58001" id="Path" stroke="#0F222E" stroke-width="2.00000018" stroke-linecap="round" stroke-linejoin="round"></line>
                    <line x1="66.2000059" y1="120.280011" x2="57.7800052" y2="124.480011" id="Path" stroke="#0F222E" stroke-width="2.00000018" stroke-linecap="round" stroke-linejoin="round"></line>
                    <line x1="62.3800056" y1="114.68001" x2="59.9200054" y2="115.90001" id="Path" stroke="#0F222E" stroke-width="2.00000018" stroke-linecap="round" stroke-linejoin="round"></line>
                    <circle id="Oval" fill="#0F222E" fill-rule="nonzero" cx="32.2800029" cy="112.80001" r="1.00000009"></circle>
                    <circle id="Oval" fill="#0F222E" fill-rule="nonzero" cx="52.2800047" cy="118.100011" r="1.00000009"></circle>
                    <circle id="Oval" fill="#0F222E" fill-rule="nonzero" cx="56.160005" cy="109.48001" r="1.00000009"></circle>
                    <circle id="Oval" fill="#0F222E" fill-rule="nonzero" cx="85.4000076" cy="36.9000033" r="1.00000009"></circle>
                    <circle id="Oval" fill="#0F222E" fill-rule="nonzero" cx="79.0000071" cy="42.7200038" r="1.00000009"></circle>
                    <circle id="Oval" fill="#0F222E" fill-rule="nonzero" cx="19.5800018" cy="115.88001" r="1.00000009"></circle>
                    <path d="M36.5800033,61.9600055 C35.1000031,62.3800056 33.660003,62.8800056 31.6400028,61.8600055 C27.7600025,59.9200054 29.5400026,56.340005 25.6600023,54.4200049 C24.2000022,53.7000048 23.0400021,53.7400048 21.960002,54.0000048" id="Path" stroke="#0F222E" stroke-width="2.00000018" stroke-linecap="round"></path>
                    <path d="M85.4000076,62.9200056 C81.7200073,64.3400058 80.4000072,60.9400054 76.7000069,62.3600056 C73.0200065,63.7800057 74.3200066,67.200006 70.6400063,68.6200061 C66.940006,70.0400063 65.6400059,66.640006 61.9400055,68.0600061 C61.0200055,68.4200061 60.4000054,68.9000062 59.9600054,69.4400062" id="Path" stroke="#0F222E" stroke-width="2.00000018" stroke-linecap="round"></path>
                    <path d="M72.7000065,79.5600071 C68.6600061,81.1200073 67.220006,77.4000069 63.1800056,78.9600071 C59.1400053,80.5200072 60.5800054,84.2600075 56.5400051,85.8200077 C54.2800046,86.7000078 52.8200047,85.9000077 51.2800046,85.3200076" id="Path" stroke="#0F222E" stroke-width="2.00000018" stroke-linecap="round"></path>
                    <path d="M25.3400023,64.8000058 C24.8200011,63.4200057 24.3000022,62.0400055 22.360002,61.0800055 C20.0800018,59.9400054 18.5400017,60.7000054 16.8600015,61.1400055 C15.6800014,61.4400055 14.4200013,61.6000055 12.8200011,60.8000054" id="Path" stroke="#0F222E" stroke-width="2.00000018" stroke-linecap="round"></path>
                    <line x1="109.88001" y1="80.9600072" x2="107.52001" y2="85.6800077" id="Path" stroke="#0F222E" stroke-width="2.00000018" stroke-linecap="round"></line>
                    <line x1="96.0200086" y1="108.54001" x2="93.6600084" y2="113.26001" id="Path" stroke="#0F222E" stroke-width="2.00000018" stroke-linecap="round"></line>
                    <line x1="96.0800086" y1="79.9600071" x2="97.7400087" y2="84.9600076" id="Path" stroke="#0F222E" stroke-width="2.00000018" stroke-linecap="round"></line>
                    <line x1="105.780009" y1="109.26001" x2="107.44001" y2="114.26001" id="Path" stroke="#0F222E" stroke-width="2.00000018" stroke-linecap="round"></line>
                    <line x1="85.6200077" y1="89.000008" x2="90.3200081" y2="91.3600082" id="Path" stroke="#0F222E" stroke-width="2.00000018" stroke-linecap="round"></line>
                    <line x1="113.20001" y1="102.860009" x2="117.920011" y2="105.220009" id="Path" stroke="#0F222E" stroke-width="2.00000018" stroke-linecap="round"></line>
                    <line x1="84.6200076" y1="102.780009" x2="89.620008" y2="101.140009" id="Path" stroke="#0F222E" stroke-width="2.00000018" stroke-linecap="round"></line>
                    <line x1="113.92001" y1="93.0800083" x2="118.920011" y2="91.4200082" id="Path" stroke="#0F222E" stroke-width="2.00000018" stroke-linecap="round"></line>
                </g>
            </g>
        </g>
    </g>
</svg>