<?xml version="1.0" encoding="UTF-8"?>
<svg width="250px" height="210px" viewBox="0 0 250 210" version="1.1" xmlns="http://www.w3.org/2000/svg" xmlns:xlink="http://www.w3.org/1999/xlink">
    <!-- Generator: Sketch 63.1 (92452) - https://sketch.com -->
    <title>3-follow-instructions</title>
    <desc>Created with Sketch.</desc>
    <g id="End-users" stroke="none" stroke-width="1" fill="none" fill-rule="evenodd">
        <g id="Desktop-HD" transform="translate(-990.000000, -1134.000000)">
            <g id="3-follow-instructions" transform="translate(990.000000, 1134.000000)">
                <rect id="Rectangle" fill="#FFFFFF" x="0" y="0" width="250" height="210"></rect>
                <g id="Group" transform="translate(3.000000, 54.000000)">
                    <g id="sheens_2" stroke-linecap="round" transform="translate(0.000000, 15.400000)" stroke="#F0F2F4" stroke-width="2.79999995">
                        <path d="M98.8399983,26.6699997 C93.4499984,26.6699997 93.4499984,19.6699997 88.0599985,19.6699997 C82.6699986,19.6699997 82.6699986,26.6699997 77.2799987,26.6699997 C71.8899988,26.6699997 71.8899988,19.6699997 66.4999989,19.6699997 C61.109999,19.6699997 61.109999,26.6699997 55.7199991,26.6699997 C50.3299991,26.6699997 50.3299991,19.6699997 44.9399992,19.6699997 L31.8499995,19.6699997" id="Stroke-2"></path>
                        <path d="M240.379996,0.139999998 C234.989996,0.139999998 234.989996,7.14 229.599996,7.14 C224.209996,7.14 224.209996,0.139999998 218.819996,0.139999998 C215.319996,0.139999998 214.129996,3.07999995 212.169996,5.17999991" id="Stroke-4"></path>
                        <path d="M149.239997,109.479998 C154.629997,109.479998 154.629997,102.479998 160.019997,102.479998 C165.409997,102.479998 165.409997,109.479998 170.799997,109.479998 C176.189997,109.479998 176.189997,102.479998 181.579997,102.479998 C186.969997,102.479998 186.969997,109.479998 192.359997,109.479998 C197.749997,109.479998 197.749997,102.479998 203.139997,102.479998 L210.699996,102.479998" id="Stroke-6"></path>
                        <line x1="92.6799984" y1="47.5999992" x2="68.3899988" y2="47.5999992" id="Stroke-8"></line>
                        <line x1="90.2999985" y1="58.099999" x2="43.3299993" y2="58.099999" id="Stroke-10"></line>
                        <line x1="24.8499996" y1="103.529998" x2="0.55999999" y2="103.529998" id="Stroke-12"></line>
                        <line x1="36.6099994" y1="114.099998" x2="15.1899997" y2="114.099998" id="Stroke-14"></line>
                        <line x1="44.7999992" y1="114.099998" x2="43.2599993" y2="114.099998" id="Stroke-16"></line>
                        <line x1="62.1599989" y1="114.099998" x2="51.3099991" y2="114.099998" id="Stroke-18"></line>
                        <line x1="35.8399994" y1="58.099999" x2="26.8799995" y2="58.099999" id="Stroke-20"></line>
                        <line x1="216.999996" y1="102.479998" x2="222.739996" y2="102.479998" id="Stroke-22"></line>
                    </g>
                    <g id="illustration" transform="translate(73.499999, 0.000000)">
                        <g id="fill">
                            <path d="M85.9599985,13.5099998 C84.9799986,16.0299997 82.1099986,17.2199997 79.5899986,16.2399997 C77.0699987,15.2599997 75.8799987,12.3899998 76.8599987,9.86999983 C77.8399987,7.34999987 80.7099986,6.1599999 83.2299986,7.13999988 C85.7499985,8.11999986 87.0099985,10.9899998 85.9599985,13.5099998" id="Fill-2" fill="#CECECE" fill-rule="nonzero"></path>
                            <path d="M84.7699986,8.11999986 C84.3499986,7.69999987 83.7899986,7.34999987 83.2299986,7.13999988 C80.7099986,6.1599999 77.8399987,7.34999987 76.8599987,9.86999983 C75.8799987,12.3899998 77.0699987,15.2599997 79.5899986,16.2399997 C79.6599986,16.2399997 79.6599986,16.2399997 79.7299986,16.3099997 C81.1299986,11.9699998 83.0199986,9.51999984 84.7699986,8.11999986" id="Fill-4" fill="#C1C1C1" fill-rule="nonzero"></path>
                            <path d="M71.0499988,134.959998 C73.8499987,136.079998 77.0699987,134.679998 78.1899987,131.879998 L117.039998,34.8599994 C118.159998,32.0599995 116.759998,28.8399995 113.959998,27.7199995 L46.8299992,0.839999986 C44.0299993,-0.279999995 40.8099993,1.11999998 39.6899993,3.91999993 L0.839999986,100.939998 C-0.279999995,103.739998 1.11999998,106.959998 3.91999993,108.079998 L71.0499988,134.959998 Z" id="Fill-6" fill="#C69263" fill-rule="nonzero"></path>
                            <path d="M55.6499991,4.40999992 L46.8299992,0.839999986 C44.0299993,-0.279999995 40.8099993,1.11999998 39.6899993,3.91999993 L0.839999986,100.939998 C-0.279999995,103.739998 1.11999998,106.959998 3.91999993,108.079998 L37.2399994,121.379998 C33.0399994,79.3099986 49.9099992,22.2599996 55.6499991,4.40999992" id="Fill-8" fill="#B27A4D" fill-rule="nonzero"></path>
                            <path d="M8.74999985,100.029998 L44.7299992,10.0099998 C45.2199992,8.81999985 46.5499992,8.25999986 47.7399992,8.74999985 L107.799998,32.8299994 C108.989998,33.3199994 109.549998,34.6499994 109.059998,35.8399994 L73.0799988,125.789998 C72.5899988,126.979998 71.2599988,127.539998 70.0699988,127.049998 L10.0099998,103.039998 C8.88999985,102.549998 8.25999986,101.219998 8.74999985,100.029998" id="Fill-10" fill="#FFFFFF" fill-rule="nonzero"></path>
                            <path d="M53.6199991,11.1299998 L47.8099992,8.81999985 C46.6199992,8.32999986 45.2899992,8.88999985 44.7999992,10.0799998 L8.74999985,100.029998 C8.25999986,101.219998 8.81999985,102.549998 10.0099998,103.039998 L36.6099994,113.679998 C35.2099994,77.0699987 47.1099992,32.3399994 53.6199991,11.1299998" id="Fill-12" fill="#D3F0F4" fill-rule="nonzero"></path>
                            <path d="M87.2199985,29.0499995 L65.2399989,20.2999997 C64.1199989,19.8799997 63.5599989,18.5499997 64.0499989,17.4299997 L67.6199988,8.46999986 C68.0399988,7.34999987 69.3699988,6.78999988 70.4899988,7.27999988 L92.3999984,16.0999997 C93.5199984,16.5199997 94.0799984,17.8499997 93.5899984,18.9699997 L90.0199985,27.9299995 C89.5999985,28.9799995 88.3399985,29.5399995 87.2199985,29.0499995" id="Fill-14" fill="#E0E0E0" fill-rule="nonzero"></path>
                            <path d="M70.2099988,19.9499997 L73.7799987,10.9899998 C74.1999987,9.86999983 75.5299987,9.30999984 76.6499987,9.79999983 L70.4899988,7.34999987 C69.3699988,6.92999988 68.1099988,7.41999987 67.6199988,8.53999985 L64.0499989,17.4999997 C63.6299989,18.6199997 64.1199989,19.8799997 65.2399989,20.3699997 L71.3999988,22.8199996 C70.2799988,22.3299996 69.7899988,21.0699996 70.2099988,19.9499997" id="Fill-16" fill="#CECECE" fill-rule="nonzero"></path>
                            <path d="M84.9099986,51.0999991 L84.7699986,62.2299989 C84.7699986,63.0699989 84.9799986,63.8399989 85.3299985,64.5399989 L106.889998,105.909998 L117.319998,100.449998 L95.7599984,59.079999 C95.4099984,58.379999 94.8499984,57.749999 94.1499984,57.259999 L84.9099986,51.0999991 Z" id="Fill-18" fill="#FFDCBD" fill-rule="nonzero"></path>
                            <path d="M91.0699984,62.9999989 C91.0699984,62.9999989 88.5499985,58.729999 89.1099985,53.9699991 L84.9099986,51.0999991 L84.7699986,62.2299989 C84.7699986,63.0699989 84.9799986,63.8399989 85.3299985,64.5399989 L106.889998,105.909998 L112.069998,103.179998 L91.0699984,62.9999989 Z" id="Fill-20" fill="#FFCFAB" fill-rule="nonzero"></path>
                            <path d="M117.389998,110.109998 L114.729998,111.509998 C112.559998,112.629998 109.899998,111.789998 108.849998,109.619998 L108.009998,107.939998 C106.889998,105.769998 107.729998,103.109998 109.899998,102.059998 L112.559998,100.659998 C114.729998,99.5399983 117.389998,100.379998 118.439998,102.549998 L119.279998,104.229998 C120.399998,106.329998 119.559998,108.989998 117.389998,110.109998" id="Fill-22" fill="#FFC0C0" fill-rule="nonzero"></path>
                            <path d="M113.399998,107.239998 L112.559998,105.559998 C111.649998,103.739998 112.069998,101.569998 113.539998,100.309998 C113.189998,100.379998 112.839998,100.519998 112.489998,100.659998 L109.829998,102.059998 C107.659998,103.179998 106.819998,105.839998 107.939998,107.939998 L108.779998,109.619998 C109.899998,111.789998 112.559998,112.629998 114.659998,111.509998 L117.319998,110.109998 C117.669998,109.969998 117.949998,109.689998 118.229998,109.479998 C116.409998,109.969998 114.309998,109.059998 113.399998,107.239998" id="Fill-24" fill="#FFAEAE" fill-rule="nonzero"></path>
                            <path d="M95.7599984,59.149999 C95.4099984,58.449999 94.8499984,57.819999 94.1499984,57.329999 L93.0299984,56.559999 L91.1399984,62.9999989 L84.7699986,60.829999 L84.7699986,62.2299989 C84.7699986,63.0699989 84.9799986,63.8399989 85.3299985,64.5399989 L106.889998,105.909998 L117.319998,100.449998 L95.7599984,59.149999 Z" id="Fill-26" fill="#FFF4B6" fill-rule="nonzero"></path>
                            <path d="M118.929998,104.019998 L108.849998,109.269998 C107.939998,109.759998 106.749998,109.409998 106.259998,108.429998 C105.769998,107.519998 106.119998,106.329998 107.099998,105.839998 L117.179998,100.589998 C118.089998,100.099998 119.279998,100.449998 119.769998,101.429998 C120.189998,102.339998 119.839998,103.529998 118.929998,104.019998" id="Fill-28" fill="#C4C4C4" fill-rule="nonzero"></path>
                            <path d="M111.439998,105.699998 C110.949998,104.719998 111.299998,103.599998 112.279998,103.109998 L107.029998,105.839998 C106.119998,106.329998 105.699998,107.519998 106.189998,108.429998 C106.679998,109.339998 107.869998,109.759998 108.779998,109.269998 L114.029998,106.539998 C113.119998,107.029998 111.929998,106.679998 111.439998,105.699998" id="Fill-30" fill="#B7B7B7" fill-rule="nonzero"></path>
                            <path d="M91.1399984,62.9999989 L84.7699986,60.829999 L84.7699986,62.2299989 C84.7699986,63.0699989 84.9799986,63.8399989 85.3299985,64.5399989 L106.889998,105.909998 L112.069998,103.179998 L91.1399984,62.9999989 Z" id="Fill-32" fill="#FFED92" fill-rule="nonzero"></path>
                            <polygon id="Fill-34" fill="#727272" fill-rule="nonzero" points="114.309998 101.989998 109.829998 104.369998 87.7099985 61.8099989 91.1399984 62.9999989 92.1899984 59.499999"></polygon>
                            <polygon id="Fill-36" fill="#5E5E5E" fill-rule="nonzero" points="91.0699984 62.9999989 87.7099985 61.8099989 109.829998 104.369998 112.069998 103.179998"></polygon>
                            <polygon id="Fill-38" fill="#727272" fill-rule="nonzero" points="84.8399986 57.819999 90.5099985 54.8799991 84.9099986 51.0999991"></polygon>
                            <path d="M84.9099986,51.0999991 L84.8399986,57.889999 L89.0399985,55.7199991 C89.0399985,55.1599991 89.0399985,54.5299991 89.1099985,53.9699991 L84.9099986,51.0999991 Z" id="Fill-40" fill="#5E5E5E" fill-rule="nonzero"></path>
                            <line x1="77.0699987" y1="15.1899997" x2="87.7099985" y2="19.4599997" id="Stroke-42" stroke="#FFFFFF" stroke-width="2.79999995" stroke-linecap="round" stroke-linejoin="round"></line>
                            <polyline id="Stroke-44" stroke="#C2EEF2" stroke-width="2.79999995" stroke-linecap="round" stroke-linejoin="round" points="73.5699987 109.479998 69.1599988 120.609998 51.7299991 113.679998"></polyline>
                        </g>
                        <g id="stroke" stroke-linejoin="round" stroke="#0F222E" stroke-width="2.79999995">
                            <path d="M87.2199985,29.0499995 L65.2399989,20.2999997 C64.1199989,19.8799997 63.5599989,18.5499997 64.0499989,17.4299997 L67.6199988,8.46999986 C68.0399988,7.34999987 69.3699988,6.78999988 70.4899988,7.27999988 L92.3999984,16.0999997 C93.5199984,16.5199997 94.0799984,17.8499997 93.5899984,18.9699997 L90.0199985,27.9299995 C89.5999985,28.9799995 88.3399985,29.5399995 87.2199985,29.0499995 Z" id="Stroke-11" stroke-linecap="round"></path>
                            <path d="M84.9099986,51.0999991 L84.7699986,62.2299989 C84.7699986,63.0699989 84.9799986,63.8399989 85.3299985,64.5399989 L106.889998,105.909998 L117.319998,100.449998 L95.7599984,59.079999 C95.4099984,58.379999 94.8499984,57.749999 94.1499984,57.259999 L84.9099986,51.0999991 Z" id="Stroke-13" stroke-linecap="round"></path>
                            <path d="M118.929998,104.019998 L108.849998,109.269998 C107.939998,109.759998 106.749998,109.409998 106.259998,108.429998 C105.769998,107.519998 106.119998,106.329998 107.099998,105.839998 L117.179998,100.589998 C118.089998,100.099998 119.279998,100.449998 119.769998,101.429998 C120.189998,102.339998 119.839998,103.529998 118.929998,104.019998 Z" id="Stroke-15" stroke-linecap="round"></path>
                            <path d="M117.389998,110.109998 L114.729998,111.509998 C112.559998,112.629998 109.899998,111.789998 108.849998,109.619998" id="Stroke-17" stroke-linecap="round"></path>
                            <path d="M90.7899985,25.9699996 L107.799998,32.7599994 C108.989998,33.2499994 109.549998,34.5799994 109.059998,35.7699994 L98.2099983,62.9299989" id="Stroke-19" stroke-linecap="round"></path>
                            <path d="M16.7999997,79.9399986 L44.7299992,10.0799998 C45.2199992,8.88999985 46.5499992,8.32999986 47.7399992,8.81999985 L64.4699989,15.4699997" id="Stroke-21" stroke-linecap="round"></path>
                            <line x1="14.7699997" y1="84.9099986" x2="15.1199997" y2="84.0699986" id="Stroke-23" stroke-linecap="round"></line>
                            <path d="M92.0499984,78.4699987 L73.1499988,125.719998 C72.6599988,126.909998 71.3299988,127.469999 70.1399988,126.979998 L10.0799998,102.969999 C8.88999985,102.479998 8.32999986,101.149998 8.81999985,99.9599983 L13.1599998,89.1099985" id="Stroke-25" stroke-linecap="round"></path>
                            <path d="M76.8599987,9.86999983 C77.8399987,7.34999987 80.7099986,6.1599999 83.2299986,7.13999988 C84.0699986,7.48999987 84.7699986,8.04999986 85.2599985,8.67999985" id="Stroke-27" stroke-linecap="round"></path>
                            <path d="M67.1299989,8.95999985 L46.8299992,0.839999986 C44.0299993,-0.279999995 40.8099993,1.11999998 39.6899993,3.91999993 L0.839999986,100.939998 C-0.279999995,103.739998 1.11999998,106.959998 3.91999993,108.079998 L71.0499988,134.959998 C73.8499987,136.079998 77.0699987,134.679998 78.1899987,131.879998 L94.7799984,90.4399985" id="Stroke-29" stroke-linecap="round"></path>
                            <path d="M102.409998,71.2599988 L116.969998,34.7899994 C118.089998,31.9899995 116.689998,28.7699995 113.889998,27.6499995 L93.3099984,19.3899997" id="Stroke-31" stroke-linecap="round"></path>
                            <polyline id="Stroke-33" stroke-linecap="round" points="93.0299984 56.559999 93.0299984 56.559999 91.1399984 62.9999989 84.7699986 60.829999"></polyline>
                            <line x1="84.8399986" y1="57.819999" x2="90.5099985" y2="54.8799991" id="Stroke-35" stroke-linecap="round"></line>
                            <polygon id="Stroke-2_2_" points="50.6799991 34.7899994 44.1699992 32.1999995 46.7599992 25.6899996 53.2699991 28.3499995"></polygon>
                            <line x1="57.539999" y1="30.7999995" x2="96.5999984" y2="46.4099992" id="Stroke-3" stroke-linecap="round"></line>
                            <line x1="55.5099991" y1="35.9799994" x2="74.3399987" y2="43.5399993" id="Stroke-4_2_" stroke-linecap="round"></line>
                            <polygon id="Stroke-5" points="44.4499992 50.3999991 37.9399994 47.8099992 40.5299993 41.2999993 47.0399992 43.8899993"></polygon>
                            <line x1="51.3099991" y1="46.4099992" x2="90.2999985" y2="62.0199989" id="Stroke-6_2_" stroke-linecap="round"></line>
                            <line x1="49.2799992" y1="51.5899991" x2="77.8399987" y2="62.9999989" id="Stroke-7" stroke-linecap="round"></line>
                            <polygon id="Stroke-8_2_" points="38.2199993 66.0099989 31.7099995 63.4199989 34.2999994 56.909999 40.8099993 59.499999"></polygon>
                            <line x1="45.0799992" y1="62.0199989" x2="84.0699986" y2="77.6299987" id="Stroke-9" stroke-linecap="round"></line>
                            <line x1="42.9799993" y1="67.1999989" x2="54.0399991" y2="71.6099988" id="Stroke-10_2_" stroke-linecap="round"></line>
                        </g>
                    </g>
                    <g id="sheens_1" transform="translate(15.400000, 52.499999)" stroke="#F0F2F4" stroke-width="1.39999998">
                        <path d="M3.21999995,1.67999997 C3.21999995,2.58999996 2.51999996,3.28999994 1.60999997,3.28999994 C0.699999988,3.28999994 0,2.58999996 0,1.67999997 C0,0.769999987 0.699999988,0.0699999988 1.60999997,0.0699999988 C2.51999996,0.0699999988 3.21999995,0.769999987 3.21999995,1.67999997 Z" id="Stroke-2_1_"></path>
                        <path d="M190.609997,28.6999995 C190.609997,29.6099995 189.909997,30.3099995 188.999997,30.3099995 C188.089997,30.3099995 187.389997,29.6099995 187.389997,28.6999995 C187.389997,27.7899995 188.089997,27.0899995 188.999997,27.0899995 C189.909997,27.0899995 190.609997,27.8599995 190.609997,28.6999995 Z" id="Stroke-4_1_"></path>
                        <line x1="198.449997" y1="0.139999998" x2="198.449997" y2="1.39999998" id="Stroke-6_1_" stroke-linecap="round"></line>
                        <line x1="198.449997" y1="5.17999991" x2="198.449997" y2="6.43999989" id="Stroke-8_1_" stroke-linecap="round"></line>
                        <line x1="201.599997" y1="3.28999994" x2="200.339997" y2="3.28999994" id="Stroke-10_1_" stroke-linecap="round"></line>
                        <line x1="196.559997" y1="3.28999994" x2="195.299997" y2="3.28999994" id="Stroke-12_1_" stroke-linecap="round"></line>
                        <line x1="34.5799994" y1="48.7199992" x2="34.5799994" y2="49.9799991" id="Stroke-14_1_" stroke-linecap="round"></line>
                        <line x1="34.5799994" y1="53.7599991" x2="34.5799994" y2="55.0199991" id="Stroke-16_1_" stroke-linecap="round"></line>
                        <line x1="37.7299994" y1="51.8699991" x2="36.4699994" y2="51.8699991" id="Stroke-18_1_" stroke-linecap="round"></line>
                        <line x1="32.6899994" y1="51.8699991" x2="31.4299995" y2="51.8699991" id="Stroke-20_1_" stroke-linecap="round"></line>
                    </g>
                </g>
            </g>
        </g>
    </g>
</svg>