<?xml version="1.0" encoding="UTF-8"?>
<svg width="250px" height="210px" viewBox="0 0 250 210" version="1.1" xmlns="http://www.w3.org/2000/svg" xmlns:xlink="http://www.w3.org/1999/xlink">
    <!-- Generator: Sketch 63.1 (92452) - https://sketch.com -->
    <title>4-start-improving</title>
    <desc>Created with Sketch.</desc>
    <g id="End-users" stroke="none" stroke-width="1" fill="none" fill-rule="evenodd">
        <g id="Desktop-HD" transform="translate(-307.000000, -1515.000000)">
            <g id="4-start-improving" transform="translate(307.000000, 1515.000000)">
                <rect id="Rectangle" fill="#F0F2F4" x="0" y="0" width="250" height="210"></rect>
                <g id="Group" transform="translate(30.000000, 50.000000)">
                    <g id="sheens_2" stroke-linecap="round" transform="translate(92.399998, 30.099999)" stroke="#FFFFFF" stroke-width="2.79999995">
                        <line x1="55.5799991" y1="11.2699998" x2="16.6599997" y2="11.2699998" id="Stroke-2"></line>
                        <line x1="57.329999" y1="0.699999988" x2="5.8099999" y2="0.699999988" id="Stroke-3"></line>
                        <line x1="92.5399984" y1="45.2899992" x2="47.5999992" y2="45.2899992" id="Stroke-4"></line>
                        <line x1="81.9699986" y1="34.7199994" x2="60.549999" y2="34.7199994" id="Stroke-5"></line>
                        <line x1="11.2699998" y1="11.2699998" x2="7.13999988" y2="11.2699998" id="Stroke-6"></line>
                        <line x1="1.95999997" y1="11.2699998" x2="0" y2="11.2699998" id="Stroke-7"></line>
                        <line x1="97.7899983" y1="45.2899992" x2="99.1899983" y2="45.2899992" id="Stroke-8"></line>
                        <line x1="104.369998" y1="45.2899992" x2="112.979998" y2="45.2899992" id="Stroke-9"></line>
                    </g>
                    <g id="illustration" transform="translate(0.000000, 11.900000)">
                        <g id="fill" fill-rule="nonzero">
                            <path d="M119.909998,108.009998 L107.799998,108.009998 C109.059998,106.469998 109.409998,103.739998 109.409998,102.129998 C109.409998,99.5399983 108.219998,97.1599983 106.399998,95.6199984 L109.549998,92.4699984 C110.249998,93.0299984 111.089998,93.3099992 111.999998,93.3099992 C114.24,93.3099992 115.989998,91.4899984 115.989998,89.3199985 C115.989998,88.4099985 115.639998,87.5699985 115.149998,86.8699985 L139.509998,62.5099989 L121.309998,44.3099992 L93.9399984,71.6799988 C91.9099984,70.2799988 89.0399985,70.4899988 87.2199985,72.3099992 C85.3999985,74.1299987 85.1899985,76.9999987 86.5899985,79.0299987 L77.8399987,87.7799985 C75.8799987,86.2399985 73.4999987,85.3299985 70.8399988,85.3299985 C64.6099989,85.3299985 59.499999,90.4399985 59.499999,96.6699984 C59.499999,96.6699984 49.9799991,96.4599984 48.0899992,108.009998 L30.6599995,108.009998 C28.4899995,108.009998 26.7399995,109.759998 26.7399995,111.929998 C26.7399995,114.099998 28.4899995,115.849998 30.6599995,115.849998 L119.909998,115.849998 C122.079998,115.849998 123.829998,114.099998 123.829998,111.929998 C123.829998,109.759998 122.079998,108.009998 119.909998,108.009998" id="Fill-2" fill="#FFFFFF"></path>
                            <path d="M83.7899986,91.9799984 L89.3199985,86.4499985 C90.2999985,85.4699985 90.5799985,84.1399986 90.2999985,82.8099986 C89.9499985,81.1299986 90.4399985,79.2399987 91.6999987,77.9799987 C93.0299984,76.6499987 94.8499984,76.1599987 96.5299984,76.5799987 C97.8599983,76.8599987 99.2599983,76.5099987 100.169998,75.5999987 L126.209998,49.5599992 L121.169998,44.5199992 L93.7999984,71.8899988 C91.7699984,70.4899988 88.8999985,70.6999988 87.0799985,72.5199992 C85.2599985,74.3399987 85.0499986,77.2099987 86.4499985,79.2399987 L77.6999987,87.9899985 C77.6999987,87.9899985 79.5199986,89.3899985 80.8499986,91.7699984 C81.5499986,92.6099984 82.9499986,92.8199984 83.7899986,91.9799984" id="Fill-4" fill="#CAF4FF"></path>
                            <path d="M122.149998,38.4299993 C122.149998,38.4299993 106.819998,35.3499994 102.619998,62.0899989 C102.409998,63.2099989 103.879998,63.9099989 104.579998,63.0699989 C109.619998,57.469999 120.609998,45.2899992 120.609998,45.2899992 L122.149998,38.4299993 Z" id="Fill-6" fill="#FF8585"></path>
                            <path d="M145.389998,61.7399989 C145.389998,61.7399989 148.469997,77.0699987 121.729998,81.2699986 C120.609998,81.4799986 119.909998,80.0099986 120.749998,79.3099986 C126.349998,74.2699987 138.529998,63.2799989 138.529998,63.2799989 L145.389998,61.7399989 Z" id="Fill-8" fill="#FF8585"></path>
                            <path d="M104.579998,63.0699989 C109.619998,57.469999 120.609998,45.2899992 120.609998,45.2899992 L121.449998,41.5799993 C117.669998,42.3499993 111.789998,44.9399992 104.789998,53.0599991 C103.879998,55.6499991 103.179998,58.659999 102.619998,62.1599989 C102.409998,63.2799989 103.809998,63.9099989 104.579998,63.0699989" id="Fill-10" fill="#FF5F5F"></path>
                            <path d="M120.749998,79.3099986 C126.349998,74.2699987 138.529998,63.2799989 138.529998,63.2799989 L142.239998,62.4399989 C141.469998,66.2199989 138.879998,72.0999988 130.759998,79.0999987 C128.169998,80.0099986 125.159998,80.7099986 121.659998,81.2699986 C120.609998,81.4799986 119.909998,80.0799986 120.749998,79.3099986" id="Fill-12" fill="#FF5F5F"></path>
                            <path d="M177.939997,34.3699994 C180.599997,28.8399995 184.449997,18.1999997 183.189997,5.5999999 C182.909997,3.00999995 180.879997,0.909999985 178.219997,0.629999989 C165.899997,-0.55999999 155.469997,3.14999995 149.799997,5.7399999 C147.069997,6.99999988 144.549998,8.81999985 142.449998,10.9899998 C137.479998,16.1699997 126.769998,28.1399995 116.829998,44.6599992 C115.569998,46.7599992 115.919998,49.4899992 117.669998,51.1699991 L132.649998,66.1499989 C134.399998,67.8999988 137.059998,68.2499988 139.159998,66.9899989 C155.819997,56.979999 167.859997,46.1999992 172.969997,41.2299993 C174.999997,39.2699993 176.679997,36.9599994 177.939997,34.3699994" id="Fill-14" fill="#D1D1D1"></path>
                            <path d="M152.599997,17.9199997 C165.759997,5.6699999 181.649997,2.16999996 181.649997,2.16999996 L181.649997,2.16999996 C180.739997,1.25999998 179.619997,0.699999988 178.289997,0.55999999 C165.899997,-0.55999999 155.469997,3.14999995 149.799997,5.7399999 C147.069997,6.99999988 144.549998,8.81999985 142.449998,10.9899998 C137.479998,16.1699997 126.769998,28.1399995 116.829998,44.6599992 C115.569998,46.7599992 115.919998,49.4899992 117.669998,51.1699991 L126.629998,60.129999 C129.989998,38.3599993 152.389997,18.1299997 152.599997,17.9199997" id="Fill-16" fill="#BFBFBF"></path>
                            <path d="M163.169997,28.5599995 L183.399997,8.32999986 C183.329997,7.41999987 183.329997,6.50999989 183.189997,5.52999991 C182.909997,2.93999995 180.879997,0.839999986 178.219997,0.55999999 C165.829997,-0.629999989 155.399997,3.07999995 149.799997,5.7399999 C147.699997,6.71999989 145.809998,7.97999986 144.059998,9.44999984 L163.169997,28.5599995 Z" id="Fill-18" fill="#BFBFBF"></path>
                            <path d="M181.649997,2.23999996 C180.739997,1.32999998 179.549997,0.699999988 178.289997,0.629999989 C165.829997,-0.629999989 155.399997,3.07999995 149.799997,5.7399999 C147.699997,6.71999989 145.809998,7.97999986 144.059998,9.44999984 L152.599997,17.9199997 C165.689997,5.7399999 181.579997,2.23999996 181.649997,2.23999996" id="Fill-20" fill="#B2B2B2"></path>
                            <path d="M171.219997,41.2299993 L142.659998,12.5999998 C141.399998,11.3399998 141.399998,9.23999984 142.659998,7.97999986 C143.919998,6.71999989 146.019998,6.71999989 147.279997,7.97999986 L175.909997,36.6099994 C177.169997,37.8699994 177.169997,39.9699993 175.909997,41.2299993 C174.579997,42.4899993 172.479997,42.4899993 171.219997,41.2299993" id="Fill-22" fill="#FF8585"></path>
                            <path d="M149.869997,15.2599997 C151.129997,13.9999998 153.229997,13.9999998 154.489997,15.2599997 L147.279997,8.04999986 C146.019998,6.78999988 143.919998,6.78999988 142.659998,8.04999986 C141.399998,9.30999984 141.399998,11.4099998 142.659998,12.6699998 L149.869997,19.8799997 C148.609997,18.6199997 148.609997,16.5199997 149.869997,15.2599997" id="Fill-24" fill="#FF5F5F"></path>
                            <path d="M151.479997,45.7099992 C147.769997,49.4199992 141.819998,49.4199992 138.109998,45.7099992 C134.399998,41.9999993 134.399998,36.0499994 138.109998,32.3399994 C141.819998,28.6299995 147.769997,28.6299995 151.479997,32.3399994 C155.189997,36.0499994 155.189997,41.9999993 151.479997,45.7099992" id="Fill-26" fill="#FF8585"></path>
                            <path d="M141.119998,42.7699993 C139.089998,40.7399993 139.089998,37.3799994 141.119998,35.3499994 C143.149998,33.3199994 146.509998,33.3199994 148.539997,35.3499994 C150.569997,37.3799994 150.569997,40.7399993 148.539997,42.7699993 C146.439998,44.7999992 143.149998,44.7999992 141.119998,42.7699993" id="Fill-28" fill="#606060"></path>
                            <path d="M144.269998,38.4999993 C145.739998,37.0299994 147.909997,36.6099994 149.729997,37.3099994 C149.449997,36.6099994 149.099997,35.9099994 148.539997,35.3499994 C146.509998,33.3199994 143.149998,33.3199994 141.119998,35.3499994 C139.089998,37.3799994 139.089998,40.7399993 141.119998,42.7699993 C141.679998,43.3299993 142.379998,43.7499993 143.079998,43.9599993 C142.379998,42.1399993 142.799998,39.9699993 144.269998,38.4999993" id="Fill-30" fill="#515151"></path>
                            <path d="M130.409998,60.409999 C128.519998,62.2999989 113.749998,73.9199987 111.859998,72.0299988 C109.969998,70.1399988 121.589998,55.3699991 123.479998,53.4799991 C125.369998,51.5899991 128.519998,51.5899991 130.409998,53.4799991 C132.299998,55.3699991 132.299998,58.519999 130.409998,60.409999" id="Fill-32" fill="#FF8585"></path>
                            <path d="M126.909998,56.909999 C128.169998,55.6499991 129.989998,55.2299991 131.669998,55.6499991 C131.459998,54.8099991 131.039998,54.1099991 130.409998,53.4099991 C128.519998,51.5199991 125.369998,51.5199991 123.479998,53.4099991 C121.589998,55.2999991 109.969998,70.0699988 111.859998,71.9599988 C112.489998,72.5899988 114.519998,71.7499988 117.039998,70.2799988 C119.979998,65.2399989 125.649998,58.239999 126.909998,56.909999" id="Fill-34" fill="#FF5F5F"></path>
                            <path d="M72.0999988,101.359998 C71.6099988,97.5099983 69.3699988,92.4699984 61.179999,90.6499985 C60.059999,92.3999984 59.429999,94.4299984 59.429999,96.6699984 C59.429999,96.6699984 65.4499989,96.5299984 69.7199988,102.269998 C70.5599988,103.389998 72.2399988,102.689998 72.0999988,101.359998" id="Fill-36" fill="#CAF4FF"></path>
                            <path d="M48.0199992,108.009998 L53.0599991,108.009998 C54.5299991,108.009998 54.9499991,105.979998 53.5499991,105.419998 C52.0799991,104.789998 50.6799991,104.019998 49.5599992,102.969998 C48.9299992,104.369998 48.3699992,106.049998 48.0199992,108.009998" id="Fill-38" fill="#CAF4FF"></path>
                            <path d="M147.069997,115.849998 L134.889998,115.849998 C132.719998,115.849998 130.969998,114.099998 130.969998,111.929998 C130.969998,109.759998 132.719998,108.009998 134.889998,108.009998 L147.069997,108.009998 C149.239997,108.009998 150.989997,109.759998 150.989997,111.929998 C150.989997,114.099998 149.239997,115.849998 147.069997,115.849998" id="Fill-40" fill="#FFFFFF"></path>
                            <path d="M15.6799997,115.849998 L11.4799998,115.849998 C9.30999984,115.849998 7.55999987,114.099998 7.55999987,111.929998 C7.55999987,109.759998 9.30999984,108.009998 11.4799998,108.009998 L15.6799997,108.009998 C17.8499997,108.009998 19.5999997,109.759998 19.5999997,111.929998 C19.5999997,114.099998 17.8499997,115.849998 15.6799997,115.849998" id="Fill-42" fill="#FFFFFF"></path>
                            <path d="M41.8599993,55.929999 L4.47999992,55.929999 C2.30999996,55.929999 0.55999999,54.1799991 0.55999999,52.0099991 C0.55999999,49.8399992 2.30999996,48.0899992 4.47999992,48.0899992 L41.8599993,48.0899992 C44.0299993,48.0899992 45.7799992,49.8399992 45.7799992,52.0099991 C45.7799992,54.1799991 44.0299993,55.929999 41.8599993,55.929999" id="Fill-44" fill="#FFFFFF"></path>
                            <path d="M50.5399991,70.6299988 L40.7399993,70.6299988 C38.5699993,70.6299988 36.8199994,68.8799988 36.8199994,66.7099989 C36.8199994,64.5399989 38.5699993,62.7899989 40.7399993,62.7899989 L50.5399991,62.7899989 C52.7099991,62.7899989 54.4599991,64.5399989 54.4599991,66.7099989 C54.4599991,68.8799988 52.7099991,70.6299988 50.5399991,70.6299988" id="Fill-46" fill="#FFFFFF"></path>
                            <path d="M167.719997,96.3899984 L157.919997,96.3899984 C155.749997,96.3899984 153.999997,94.6399984 153.999997,92.4699984 C153.999997,90.2999985 155.749997,88.5499985 157.919997,88.5499985 L167.719997,88.5499985 C169.889997,88.5499985 171.639997,90.2999985 171.639997,92.4699984 C171.639997,94.6399984 169.889997,96.3899984 167.719997,96.3899984" id="Fill-48" fill="#FFFFFF"></path>
                        </g>
                        <g id="stroke">
                            <path d="M175.769997,10.9899998 C175.209997,11.5499998 174.369997,11.5499998 173.809997,10.9899998 C173.249997,10.4299998 173.249997,9.58999984 173.809997,9.02999985 C174.369997,8.46999986 175.209997,8.46999986 175.769997,9.02999985 C176.329997,9.51999984 176.329997,10.4299998 175.769997,10.9899998" id="Fill-2_1_" fill="#0F222E" fill-rule="nonzero"></path>
                            <path d="M171.359997,15.3999997 C170.799997,15.9599997 169.959997,15.9599997 169.399997,15.3999997 C168.839997,14.8399997 168.839997,13.9999998 169.399997,13.4399998 C169.959997,12.8799998 170.799997,12.8799998 171.359997,13.4399998 C171.919997,13.9299998 171.919997,14.8399997 171.359997,15.3999997" id="Fill-4_1_" fill="#0F222E" fill-rule="nonzero"></path>
                            <path d="M167.019997,19.7399997 C166.459997,20.2999997 165.619997,20.2999997 165.059997,19.7399997 C164.499997,19.1799997 164.499997,18.3399997 165.059997,17.7799997 C165.619997,17.2199997 166.459997,17.2199997 167.019997,17.7799997 C167.509997,18.3399997 167.509997,19.1799997 167.019997,19.7399997" id="Fill-6_1_" fill="#0F222E" fill-rule="nonzero"></path>
                            <path d="M88.3399985,102.619998 C87.7799985,103.179998 86.9399985,103.179998 86.3799985,102.619998 C85.8199985,102.059998 85.8199985,101.219998 86.3799985,100.659998 C86.9399985,100.099998 87.7799985,100.099998 88.3399985,100.659998 C88.8999985,101.149998 88.8999985,102.059998 88.3399985,102.619998" id="Fill-8_1_" fill="#0F222E" fill-rule="nonzero"></path>
                            <path d="M96.6699984,102.619998 C96.1099984,103.179998 95.2699984,103.179998 94.7099984,102.619998 C94.1499984,102.059998 94.1499984,101.219998 94.7099984,100.659998 C95.2699984,100.099998 96.1099984,100.099998 96.6699984,100.659998 C97.2299983,101.149998 97.2299983,102.059998 96.6699984,102.619998" id="Fill-10_1_" fill="#0F222E" fill-rule="nonzero"></path>
                            <path d="M92.7499984,97.0899983 C92.1899984,97.6499983 91.3499984,97.6499983 90.7899985,97.0899983 C90.2299985,96.5299984 90.2299985,95.6899984 90.7899985,95.1299984 C91.3499984,94.5699984 92.1899984,94.5699984 92.7499984,95.1299984 C93.3099984,95.6899984 93.3099984,96.5999984 92.7499984,97.0899983" id="Fill-12_1_" fill="#0F222E" fill-rule="nonzero"></path>
                            <path d="M171.219997,41.2299993 L142.659998,12.5999998 C141.399998,11.3399998 141.399998,9.23999984 142.659998,7.97999986 C143.919998,6.71999989 146.019998,6.71999989 147.279997,7.97999986 L175.909997,36.6099994 C177.169997,37.8699994 177.169997,39.9699993 175.909997,41.2299993 C174.579997,42.4899993 172.479997,42.4899993 171.219997,41.2299993 Z" id="Stroke-14_1_" stroke="#0F222E" stroke-width="2.79999995" stroke-linejoin="round"></path>
                            <path d="M151.479997,45.7099992 C147.769997,49.4199992 141.819998,49.4199992 138.109998,45.7099992 C134.399998,41.9999993 134.399998,36.0499994 138.109998,32.3399994 C141.819998,28.6299995 147.769997,28.6299995 151.479997,32.3399994 C155.189997,36.0499994 155.189997,41.9999993 151.479997,45.7099992 Z" id="Stroke-16_1_" stroke="#0F222E" stroke-width="2.79999995" stroke-linejoin="round"></path>
                            <path d="M141.119998,35.3499994 C143.149998,33.3199994 146.509998,33.3199994 148.539997,35.3499994 C150.569997,37.3799994 150.569997,40.7399993 148.539997,42.7699993 C146.509998,44.7999992 143.149998,44.7999992 141.119998,42.7699993 C140.489998,42.1399993 140.069998,41.3699993 139.789998,40.5999993" id="Stroke-18_1_" stroke="#0F222E" stroke-width="2.79999995" stroke-linecap="round" stroke-linejoin="round"></path>
                            <path d="M130.409998,60.409999 C128.519998,62.2999989 113.749998,73.9199987 111.859998,72.0299988 C109.969998,70.1399988 121.589998,55.3699991 123.479998,53.4799991 C125.369998,51.5899991 128.519998,51.5899991 130.409998,53.4799991 C132.299998,55.3699991 132.299998,58.519999 130.409998,60.409999 Z" id="Stroke-20_1_" stroke="#0F222E" stroke-width="2.79999995" stroke-linejoin="round"></path>
                            <path d="M128.519998,62.0199989 L132.649998,66.1499989 C134.399998,67.8999988 137.059998,68.2499988 139.159998,66.9899989 C154.909997,57.539999 166.529997,47.3199992 172.059997,42.0699993" id="Stroke-22" stroke="#0F222E" stroke-width="2.79999995" stroke-linejoin="round"></path>
                            <path d="M141.679998,11.8299998 C136.429998,17.3599997 126.279998,28.9799995 116.829998,44.6599992 C115.569998,46.7599992 115.919998,49.4899992 117.669998,51.1699991 L121.659998,55.1599991" id="Stroke-24" stroke="#0F222E" stroke-width="2.79999995" stroke-linejoin="round"></path>
                            <path d="M158.339997,2.58999996 C154.909997,3.56999994 151.969997,4.75999992 149.799997,5.8099999 C148.749997,6.29999989 147.769997,6.85999988 146.789998,7.48999987" id="Stroke-26" stroke="#0F222E" stroke-width="2.79999995" stroke-linecap="round" stroke-linejoin="round"></path>
                            <path d="M163.729997,1.32999998 C163.449997,1.39999998 163.169997,1.46999997 162.889997,1.46999997" id="Stroke-28" stroke="#0F222E" stroke-width="2.79999995" stroke-linecap="round" stroke-linejoin="round"></path>
                            <path d="M176.329997,37.2399994 C176.959997,36.3299994 177.449997,35.3499994 177.939997,34.3699994 C180.599997,28.8399995 184.449997,18.1999997 183.189997,5.5999999 C182.909997,3.00999995 180.879997,0.909999985 178.219997,0.629999989 C174.789997,0.279999995 171.569997,0.349999994 168.489997,0.629999989" id="Stroke-30" stroke="#0F222E" stroke-width="2.79999995" stroke-linecap="round" stroke-linejoin="round"></path>
                            <path d="M120.819998,38.3599993 C117.039998,38.2899993 106.049998,40.1099993 102.549998,62.1599989 C102.339998,63.2799989 103.809998,63.9799989 104.509998,63.1399989 C107.519998,59.779999 112.699998,54.1099991 116.339998,50.0499991" id="Stroke-32" stroke="#0F222E" stroke-width="2.79999995" stroke-linejoin="round"></path>
                            <path d="M143.919998,69.4399988 C141.469998,73.9199987 135.659998,79.0999987 121.729998,81.2699989 C120.609998,81.4799986 119.909998,80.0099986 120.749998,79.3099986 C124.179998,76.2299987 130.059998,70.9099988 134.119998,67.2699989" id="Stroke-34" stroke="#0F222E" stroke-width="2.79999995" stroke-linecap="round" stroke-linejoin="round"></path>
                            <line x1="183.329997" y1="8.32999986" x2="165.409997" y2="26.2499996" id="Stroke-36" stroke="#0F222E" stroke-width="2.79999995" stroke-linejoin="round"></line>
                            <path d="M98.9799983,66.7099989 L93.9399984,71.7499988 C91.9099984,70.3499988 89.0399985,70.5599988 87.2199985,72.3799988 C85.3999985,74.1999987 85.1899985,77.0699987 86.5899985,79.0999987 L77.8399987,87.8499985 C75.8799987,86.3099985 73.4999987,85.3999985 70.8399988,85.3999985 C64.6099989,85.3999985 59.499999,90.4399985 59.499999,96.7399984 C59.499999,96.7399984 49.9799991,96.5299984 48.0899992,108.079998 L30.6599995,108.079998 C28.4899995,108.079998 26.7399995,109.829998 26.7399995,111.999998 C26.7399995,114.169998 28.4899995,115.919998 30.6599995,115.919998 L119.909998,115.919998 C122.079998,115.919998 123.829998,114.169998 123.829998,111.999998 C123.829998,109.829998 122.079998,108.079998 119.909998,108.079998 L107.799998,108.079998 C109.059998,106.539998 109.409998,103.809998 109.409998,102.199998 C109.409998,99.6099983 108.219998,97.2299983 106.399998,95.6899984 L109.549998,92.5399984 C110.249998,93.0999984 111.089998,93.3799984 111.999998,93.3799984 C114.24,93.3799984 115.989998,91.5599984 115.989998,89.3899985 C115.989998,88.4799985 115.639998,87.6399985 115.149998,86.9399985 L121.24,80.8499986" id="Stroke-38" stroke="#0F222E" stroke-width="2.79999995" stroke-linecap="round" stroke-linejoin="round"></path>
                            <line x1="48.0199992" y1="108.009998" x2="57.889999" y2="108.009998" id="Stroke-40" stroke="#0F222E" stroke-width="2.79999995" stroke-linecap="round" stroke-linejoin="round"></line>
                            <line x1="62.5099989" y1="108.009998" x2="67.0599989" y2="108.009998" id="Stroke-42" stroke="#0F222E" stroke-width="2.79999995" stroke-linecap="round" stroke-linejoin="round"></line>
                            <path d="M106.399998,95.6199984 C106.399998,95.6199984 104.229998,93.3799984 99.4699983,92.9599984" id="Stroke-44" stroke="#0F222E" stroke-width="2.79999995" stroke-linecap="round" stroke-linejoin="round"></path>
                            <path d="M59.499999,96.6699984 C59.499999,96.6699984 61.8099989,96.5999984 64.6099989,97.9299983" id="Stroke-46" stroke="#0F222E" stroke-width="2.79999995" stroke-linecap="round" stroke-linejoin="round"></path>
                            <path d="M77.8399987,87.8499985 C77.8399987,87.8499985 78.8899987,88.6199985 79.9399986,90.0199985" id="Stroke-48" stroke="#0F222E" stroke-width="2.79999995" stroke-linecap="round" stroke-linejoin="round"></path>
                            <path d="M147.069997,115.849998 L134.889998,115.849998 C132.719998,115.849998 130.969998,114.099998 130.969998,111.929998 C130.969998,109.759998 132.719998,108.009998 134.889998,108.009998 L147.069997,108.009998 C149.239997,108.009998 150.989997,109.759998 150.989997,111.929998 C150.989997,114.099998 149.239997,115.849998 147.069997,115.849998 Z" id="Stroke-50" stroke="#0F222E" stroke-width="2.79999995" stroke-linejoin="round"></path>
                            <path d="M15.6799997,115.849998 L11.4799998,115.849998 C9.30999984,115.849998 7.55999987,114.099998 7.55999987,111.929998 C7.55999987,109.759998 9.30999984,108.009998 11.4799998,108.009998 L15.6799997,108.009998 C17.8499997,108.009998 19.5999997,109.759998 19.5999997,111.929998 C19.5999997,114.099998 17.8499997,115.849998 15.6799997,115.849998 Z" id="Stroke-52" stroke="#0F222E" stroke-width="2.79999995" stroke-linejoin="round"></path>
                            <path d="M28.2099995,55.929999 L4.40999992,55.929999 C2.23999996,55.929999 0.489999992,54.1799991 0.489999992,52.0099991 C0.489999992,49.8399992 2.23999996,48.0899992 4.40999992,48.0899992 L41.7899993,48.0899992 C43.9599993,48.0899992 45.7099992,49.8399992 45.7099992,52.0099991 C45.7099992,54.1799991 43.9599993,55.929999 41.7899993,55.929999 L35.6999994,55.929999" id="Stroke-54" stroke="#0F222E" stroke-width="2.79999995" stroke-linecap="round" stroke-linejoin="round"></path>
                            <path d="M50.5399991,70.6299988 L40.7399993,70.6299988 C38.5699993,70.6299988 36.8199994,68.8799988 36.8199994,66.7099989 C36.8199994,64.5399989 38.5699993,62.7899989 40.7399993,62.7899989 L50.5399991,62.7899989 C52.7099991,62.7899989 54.4599991,64.5399989 54.4599991,66.7099989 C54.4599991,68.8799988 52.7099991,70.6299988 50.5399991,70.6299988 Z" id="Stroke-56" stroke="#0F222E" stroke-width="2.79999995" stroke-linecap="round" stroke-linejoin="round"></path>
                            <path d="M154.069997,92.4699984 L154.069997,92.4699984 C154.069997,90.2999985 155.819997,88.5499985 157.989997,88.5499985 L167.789997,88.5499985 C169.959997,88.5499985 171.709997,90.2999985 171.709997,92.4699984 C171.709997,94.6399984 169.959997,96.3899984 167.789997,96.3899984 L157.989997,96.3899984" id="Stroke-58" stroke="#0F222E" stroke-width="2.79999995" stroke-linecap="round" stroke-linejoin="round"></path>
                        </g>
                    </g>
                    <g id="sheens_1" transform="translate(93.799998, 0.000000)" stroke="#FFFFFF" stroke-width="1.39999998">
                        <path d="M38.8499993,1.67999997 C38.8499993,2.58999996 38.1499994,3.28999994 37.2399994,3.28999994 C36.3299994,3.28999994 35.6299994,2.58999996 35.6299994,1.67999997 C35.6299994,0.769999987 36.3299994,0.0699999988 37.2399994,0.0699999988 C38.0799994,0.0699999988 38.8499993,0.769999987 38.8499993,1.67999997 Z" id="Stroke-2_1_"></path>
                        <path d="M91.2799984,89.5999985 C91.2799984,90.5099985 90.5799985,91.2099984 89.6699985,91.2099984 C88.7599985,91.2099984 88.0599985,90.5099985 88.0599985,89.5999985 C88.0599985,88.6899985 88.7599985,87.9899985 89.6699985,87.9899985 C90.5799985,87.9899985 91.2799984,88.6899985 91.2799984,89.5999985 Z" id="Stroke-4_1_"></path>
                        <line x1="102.339998" y1="47.8099992" x2="102.339998" y2="49.0699992" id="Stroke-6_1_" stroke-linecap="round"></line>
                        <line x1="102.339998" y1="52.8499991" x2="102.339998" y2="54.1099991" id="Stroke-8_1_" stroke-linecap="round"></line>
                        <line x1="105.489998" y1="50.9599991" x2="104.229998" y2="50.9599991" id="Stroke-10" stroke-linecap="round"></line>
                        <line x1="100.449998" y1="50.9599991" x2="99.1899983" y2="50.9599991" id="Stroke-12" stroke-linecap="round"></line>
                        <line x1="3.21999995" y1="9.09999985" x2="3.21999995" y2="10.3599998" id="Stroke-14" stroke-linecap="round"></line>
                        <line x1="3.21999995" y1="14.1399998" x2="3.21999995" y2="15.3999997" id="Stroke-16" stroke-linecap="round"></line>
                        <line x1="6.36999989" y1="12.2499998" x2="5.10999991" y2="12.2499998" id="Stroke-18" stroke-linecap="round"></line>
                        <line x1="1.32999998" y1="12.2499998" x2="0.0699999988" y2="12.2499998" id="Stroke-20" stroke-linecap="round"></line>
                    </g>
                </g>
            </g>
        </g>
    </g>
</svg>