<?xml version="1.0" encoding="UTF-8"?>
<svg width="251px" height="210px" viewBox="0 0 251 210" version="1.1" xmlns="http://www.w3.org/2000/svg" xmlns:xlink="http://www.w3.org/1999/xlink">
    <!-- Generator: Sketch 63.1 (92452) - https://sketch.com -->
    <title>5-track-monitor</title>
    <desc>Created with Sketch.</desc>
    <g id="End-users" stroke="none" stroke-width="1" fill="none" fill-rule="evenodd">
        <g id="Desktop-HD" transform="translate(-877.000000, -1515.000000)">
            <g id="5-track-monitor" transform="translate(878.000000, 1515.000000)">
                <rect id="Rectangle" fill="#F0F2F4" x="0" y="0" width="250" height="210"></rect>
                <g id="Group" transform="translate(0.000000, 55.000000)">
                    <polygon id="Path" fill="#E6E6E6" fill-rule="nonzero" points="44.3 33.9 44.3 89.65 142.95 89.65 142.95 73.85 142.9 73.85 142.95 65.65 142.95 33.9"></polygon>
                    <path d="M142.95,89.65 L44.3,89.65 L44.3,33.9 L142.95,33.9 L142.95,65.65 C143.6,65.85 144.35,66.05 145.2,66.25 L150.95,66.3 L150.95,64.55 L150.95,30.15 C150.95,27.1 148.7,24.6 145.9,24.6 L40.7,24.6 C37.9,24.6 35.65,27.1 35.65,30.15 L35.65,97.25 L68.2,97.25 L68.2,97.3 C68.2,99.15 69.7,100.65 71.55,100.65 L107.25,100.65 C109.1,100.65 110.6,99.15 110.6,97.3 L110.6,97.25 L150.95,97.25 L150.95,77.75 L150.95,74.35 L143,73.85 L143,89.65 L142.95,89.65 Z" id="Path" fill="#8F8F9F" fill-rule="nonzero"></path>
                    <path d="M35.65,30.15 L35.65,97.2 L51.9,97.2 C59.45,96.9 59.6,93.7 59.65,89.6 L44.3,89.6 L44.3,89.6 L44.25,89.6 L44.25,33.85 L95.7,33.8 L95.7,24.55 L40.7,24.6 C37.9,24.6 35.65,27.1 35.65,30.15 Z" id="Path" fill="#A1A1AD" fill-rule="nonzero"></path>
                    <path d="M44.3,33.9 L44.3,89.65 L59.65,89.65 C56.65,69.9 94.8,59 95.7,33.9 L44.3,33.9 Z" id="Path" fill="#F2F2F2" fill-rule="nonzero"></path>
                    <polygon id="Path" fill="#FF6600" fill-rule="nonzero" points="64.5 64.7 64.5 74.05 73.6 74.05 73.6 64.7"></polygon>
                    <polygon id="Path" fill="#FF6600" fill-rule="nonzero" points="81.15 60.1 81.15 74.05 90.25 74.05 90.25 60.1"></polygon>
                    <polygon id="Path" fill="#FF6600" fill-rule="nonzero" points="98.7 60.1 98.7 74.05 107.8 74.05 107.8 60.1"></polygon>
                    <path d="M115.8,54.3 L115.8,74.05 L124.9,74.05 L124.9,68.9 C122.8,68.5 120.55,67.9 120.5,67.15 C120.45,65.55 120.45,64.5 123.55,64.45 L124.9,64.45 L124.9,54.35 L115.8,54.35 L115.8,54.3 Z" id="Path" fill="#FF6600" fill-rule="nonzero"></path>
                    <path d="M30.5,97.25 C29.05,97.25 27.35,98.55 27.85,99.9 L30.7,105.9 C31.2,107.3 31.9,108.55 33.35,108.55 L151.9,108.55 C153.35,108.55 153.95,107.2 154.55,105.9 L157.4,99.9 C157.9,98.5 156.2,97.25 154.75,97.25 L150.95,97.25 L110.6,97.25 L110.6,97.3 L110.6,97.4 L110.6,97.5 L110.6,97.6 L110.6,97.7 L110.6,97.8 L110.6,97.9 L110.6,98 L110.6,98.1 L110.6,98.2 L110.6,98.3 L110.6,98.3 L110.6,98.4 L110.6,98.5 L110.6,98.5 L110.55,98.6 L110.55,98.6 L110.5,98.7 L110.45,98.8 L110.4,98.9 L110.4,98.9 L110.35,98.95 L110.3,99 L110.25,99.05 L110.25,99.05 L110.2,99.1 L110.2,99.1 L110.15,99.15 L110.1,99.2 L110.1,99.2 L110.05,99.25 L110,99.3 L109.95,99.35 L109.9,99.4 L109.85,99.45 L109.85,99.45 L109.8,99.5 L109.75,99.55 L109.75,99.55 L109.7,99.6 L109.65,99.65 L109.65,99.65 L109.6,99.7 L109.55,99.75 L109.5,99.8 L109.45,99.85 L109.4,99.9 L109.4,99.9 L109.35,99.95 L109.3,100 L109.25,100.05 L109.2,100.1 L109.15,100.15 L109.1,100.2 L109.05,100.25 L109,100.3 L108.95,100.35 L108.9,100.4 L108.85,100.45 L108.8,100.5 L108.7,100.55 L108.6,100.6 L108.5,100.65 L108.4,100.7 L108.3,100.7 L108.2,100.7 L108.1,100.7 L108,100.7 L108,100.7 L107.9,100.7 L107.8,100.7 L107.7,100.7 L107.6,100.7 L107.5,100.7 L107.4,100.7 L107.3,100.7 L107.2,100.7 L71.5,100.7 C69.65,100.7 68.15,99.2 68.15,97.35 L68.15,97.3 L30.5,97.3 L30.5,97.25 Z" id="Shape" fill="#7E7F90" fill-rule="nonzero"></path>
                    <path d="M123.6,64.45 C120.45,64.5 120.45,65.55 120.55,67.15 C120.6,67.95 122.85,68.5 124.95,68.9 C126.2,69.15 127.4,69.35 128.05,69.5 C129.9,69.9 135.4,70.55 133.7,73.05 C130.7,77.45 136.5,76.35 142.9,73.85 L142.95,73.85 L150.9,74.35 L150.9,66.35 L145.15,66.3 C144.3,66.05 143.6,65.85 142.9,65.7 C140.75,65.1 139.05,64.7 135.6,64.3 L124.9,64.45 L123.55,64.45 L123.6,64.45 Z" id="Path" fill="#FFE7DE" fill-rule="nonzero"></path>
                    <path d="M150.9,66.3 L150.9,74.3 L150.9,77.7 L160,77.55 C160.3,77.55 160.5,77.3 160.5,77 L160.5,76.15 L160.5,64.9 C160.5,64.6 160.25,64.4 160,64.4 C160,64.4 160,64.4 160,64.4 L159.75,64.4 L150.85,64.55 L150.85,66.3 L150.9,66.3 Z" id="Path" fill="#F83838" fill-rule="nonzero"></path>
                    <path d="M160.55,64.95 L160.55,76.2 C161.25,76.25 167.75,76.75 172.8,76.1 C171.15,86.95 170.65,87.25 169.55,97.8 C169.45,99.5 168.9,102.45 169,105.2 C169.15,108.35 171.95,110.55 175.7,109.65 C175.65,107.65 175.7,105.65 175.8,103.65 C176.4,93.9 178.95,84.45 181.1,74.8 C182.45,68.8 183.65,62.9 186,57.25 C186.1,57.05 186.15,56.85 186.25,56.65 C186.2,56.65 186.2,56.65 186.15,56.65 C167.1,55.75 174.9,64.4 159.95,64.45 C160.25,64.45 160.45,64.7 160.45,64.95 L160.55,64.95 Z" id="Path" fill="#FF7D7D" fill-rule="nonzero"></path>
                    <path d="M186.05,57.25 C183.7,62.9 182.5,68.8 181.15,74.8 C179,84.4 176.45,93.85 175.85,103.65 C177.55,103.65 180.6,104.65 182.4,104.65 C184.65,104.65 187.2,103.65 189.25,103.65 C189.8,91.5 192.7,75.45 195,67.75 L200,59 C190.15,65 186.7,58.55 186.05,57.2 L186.05,57.25 Z" id="Path" fill="#FFFFFF" fill-rule="nonzero"></path>
                    <path d="M187.15,53.7 L186.3,56.7 L186.05,57.3 C186.65,58.65 190.15,65.1 200,59.1 L201.45,56.6 L200.55,52.7 C197.25,53.7 193.5,54.25 189.75,54 C188.55,53.95 188,53.9 187.2,53.75 L187.15,53.7 Z" id="Path" fill="#FFE7DE" fill-rule="nonzero"></path>
                    <polygon id="Path" fill="#FFE7DE" fill-rule="nonzero" points="208.9 96.05 205.25 102.3 200.95 109.8 208.15 112.45 212.65 106.45 218.65 98.45"></polygon>
                    <polygon id="Path" fill="#F83838" fill-rule="nonzero" points="207.8 90.95 206.4 95.4 208.9 96.05 218.65 98.45 220.2 98.8 221.5 99.15 223.05 92.15 220.25 91.9 208.75 91"></polygon>
                    <path d="M218.65,98.45 L212.6,106.5 C213.8,106.85 215.55,107.75 217.1,108.45 C219.15,109.4 220.9,110 220.8,108.6 L220.2,98.85 L218.65,98.45 Z" id="Path" fill="#FF7D7D" fill-rule="nonzero"></path>
                    <path d="M172.6,109.65 L170.65,126.65 L191.55,126.65 C191.15,120.2 192.2,115.45 190.85,108.9 C189.8,109.35 189.15,109.1 189.15,107.5 C189.15,106.3 189.2,105 189.25,103.65 C187.2,103.6 184.65,104.65 182.4,104.65 C180.6,104.65 177.55,103.6 175.85,103.65 C175.75,105.65 175.7,107.6 175.75,109.65 C174.6,109.9 173.55,109.9 172.6,109.65 Z" id="Path" fill="#093757" fill-rule="nonzero"></path>
                    <path d="M190.85,108.9 C192.2,115.45 191.2,120.2 191.55,126.65 L212.9,126.65 C214,121.15 217.6,117.85 217.1,108.4 C215.55,107.7 213.85,106.8 212.6,106.45 L208.1,112.45 L200.95,109.75 L205.25,102.3 C201.25,99.25 194.1,107.45 190.8,108.9 L190.85,108.9 Z" id="Path" fill="#14486E" fill-rule="nonzero"></path>
                    <path d="M194.55,23.75 C195.6,24.25 196.7,31.95 197.9,33.9 C198.55,33.45 199.25,32.75 200.85,32.45 C204.5,31.7 206.15,34.65 204.8,38.9 C203.6,42.55 210.25,46.75 211.45,44.9 C215.95,34.55 214.5,22.2 214.55,22.25 C213.35,8.1 196.05,7.75 187.95,9.4 C178.25,12.4 173.9,7.85 170.85,9.65 C169,10.7 172.2,18.45 181.2,22.2 C184.15,23.4 187.95,23.3 192.1,23.55 L192.55,23.6 L192.75,23.6 L192.85,23.6 L193.1,23.6 L193.25,23.6 L193.35,23.6 L193.45,23.6 L193.7,23.6 C194.15,23.65 194.45,23.7 194.6,23.75 L194.55,23.75 Z" id="Shape" fill="#966148" fill-rule="nonzero"></path>
                    <path d="M177.4,44.3 C177.7,45.55 178,46.6 178.3,47.55 C179.55,51.15 181.3,52.4 185.25,53.3 C186.1,53.5 186.7,53.6 187.15,53.7 C187.95,53.85 188.55,53.9 189.7,53.95 C198.95,54.5 208.2,50.7 211.45,44.85 C210.25,46.7 203.6,42.5 204.8,38.85 C206.2,34.6 204.5,31.65 200.85,32.4 C199.25,32.7 198.55,33.45 197.9,33.85 C196.7,31.9 195.6,24.15 194.55,23.7 C194.45,23.65 194.1,23.6 193.65,23.55 L193.4,23.55 C193.2,23.55 193,23.5 192.8,23.5 L192.7,23.5 L192.5,23.5 L192.05,23.45 C187.9,23.15 184.1,23.3 181.15,22.1 C179.3,23.85 178.15,26.15 177.4,28.75 C176.65,31.4 176.3,34.4 176.15,37.3 C176.1,38.15 174.75,39.2 174.85,40.3 C174.95,41.1 177.05,43.35 177.3,44.3 L177.4,44.3 Z" id="Shape" fill="#FFE7DE" fill-rule="nonzero"></path>
                    <path d="M193.7,23.6 C194.15,23.65 194.45,23.7 194.6,23.75 C194.75,23.8 214.15,23.8 214.7,23.65 C214.35,17.5 194.45,21.5 184.45,19.5 C179.6,18.55 174.7,16.6 171.65,14.3 C173.25,16.95 176.4,20.1 181.25,22.1 C184.2,23.3 188,23.2 192.15,23.45 L192.6,23.5 C192.95,23.55 193.35,23.55 193.7,23.6 Z" id="Path" fill="#824937" fill-rule="nonzero"></path>
                    <path d="M183.8,35.05 C183.8,35.45 183.7,35.85 183.6,36.25 C183.3,37.15 182.75,37.7 182.15,37.65 C181.85,37.65 181.6,37.5 181.4,37.3 C182.1,38.15 183.15,38.7 184.3,38.75 C186.45,38.8 188.25,37.1 188.3,35 C188.35,32.85 186.65,31.05 184.55,31 C183.4,30.95 182.35,31.45 181.65,32.2 C181.75,32.15 181.85,32.1 181.95,32.05 C182.15,32 182.35,32 182.55,32.1 C182.7,32.15 182.8,32.4 182.75,32.7 C182.7,33 182.75,33.35 182.9,33.85 C183.05,34.2 183.2,34.5 183.45,34.55 C183.5,34.6 183.5,34.6 183.55,34.6 C183.7,34.65 183.8,34.85 183.8,35.15 L183.8,35.05 Z" id="Path" fill="#FFFFFF" fill-rule="nonzero"></path>
                    <path d="M182.15,37.65 C182.75,37.7 183.3,37.1 183.6,36.25 C183.75,35.85 183.8,35.45 183.8,35.05 C183.8,34.75 183.7,34.55 183.55,34.5 C183.5,34.5 183.5,34.5 183.45,34.45 C183.2,34.4 183.05,34.1 182.9,33.75 C182.75,33.3 182.7,32.95 182.75,32.6 C182.8,32.3 182.7,32.05 182.55,32 C182.35,31.95 182.15,31.9 181.95,31.95 C181.4,32.1 180.9,32.75 180.7,33.65 C180.25,35.45 181,37.5 182.15,37.55 L182.15,37.65 Z" id="Path" fill="#61C9D1" fill-rule="nonzero"></path>
                    <polyline id="Path" stroke="#0F222E" stroke-width="2.666535" stroke-linecap="round" stroke-linejoin="round" points="67.65 57.9 83.35 50.55 102.3 50.55 119.4 43.4"></polyline>
                    <circle id="Oval" fill="#17BBCC" fill-rule="nonzero" transform="translate(67.654000, 57.921000) rotate(1.629691) translate(-67.654000, -57.921000) " cx="67.654" cy="57.921" r="2.97558299"></circle>
                    <circle id="Oval" fill="#17BBCC" fill-rule="nonzero" transform="translate(83.355000, 50.530000) rotate(1.629691) translate(-83.355000, -50.530000) " cx="83.355" cy="50.53" r="2.97558299"></circle>
                    <circle id="Oval" fill="#17BBCC" fill-rule="nonzero" transform="translate(101.934000, 50.672000) rotate(1.629691) translate(-101.934000, -50.672000) " cx="101.934" cy="50.672" r="2.97558299"></circle>
                    <circle id="Oval" fill="#17BBCC" fill-rule="nonzero" transform="translate(119.422500, 43.422500) rotate(1.629691) translate(-119.422500, -43.422500) " cx="119.4225" cy="43.4225" r="2.97558299"></circle>
                    <path d="M193.15,26.2 C194.95,26.3 196.95,31.95 197.7,33.4 C196.6,30.85 195.6,24.2 194.6,23.75 C194.5,23.7 194.15,23.65 193.7,23.6 L193.45,23.6 L193.35,23.6 L193.25,23.6 L193.1,23.6 L192.85,23.6 L192.75,23.6 L192.55,23.6 L192.1,23.55 C187.95,23.25 184.15,23.4 181.2,22.2 C180.7,22.65 180.25,23.2 179.85,23.75 C179.45,24.25 184,25.7 193.15,26.3 L193.15,26.2 Z" id="Path" fill="#FFBDAB" fill-rule="nonzero"></path>
                    <path d="M202.05,38.3 C204.55,34.05 199.85,34 199.65,36.55 L202.05,38.3 Z" id="Path" fill="#FFAB97" fill-rule="nonzero"></path>
                    <line x1="237.5" y1="71.3" x2="220.3" y2="71.3" id="Path" stroke="#FEFEFE" stroke-width="2.666535" stroke-linecap="round" stroke-linejoin="round"></line>
                    <path d="M235.35,35.9 C236.65,35.9 237.7,36.95 237.7,38.25 C237.7,39.55 236.65,40.6 235.35,40.6 C234.05,40.6 233,39.55 233,38.25 C233,36.95 234.05,35.9 235.35,35.9 Z" id="Path" stroke="#FEFEFE" stroke-width="2.666535" stroke-linecap="round" stroke-linejoin="round"></path>
                    <line x1="143.6" y1="4.85" x2="145.4" y2="4.85" id="Path" stroke="#FEFEFE" stroke-width="2.666535" stroke-linecap="round" stroke-linejoin="round"></line>
                    <line x1="151.4" y1="4.85" x2="153.2" y2="4.85" id="Path" stroke="#FEFEFE" stroke-width="2.666535" stroke-linecap="round" stroke-linejoin="round"></line>
                    <line x1="148.4" y1="9.65" x2="148.4" y2="7.85" id="Path" stroke="#FEFEFE" stroke-width="2.666535" stroke-linecap="round" stroke-linejoin="round"></line>
                    <line x1="148.4" y1="1.85" x2="148.4" y2="0.05" id="Path" stroke="#FEFEFE" stroke-width="2.666535" stroke-linecap="round" stroke-linejoin="round"></line>
                    <path d="M30.65,105.9 C31.1,107.2 31.75,108.4 33.05,108.55 C33.1,108.55 33.2,108.55 33.25,108.55 L52.2,108.55 L52.1,97.25 L35.6,97.25 L30.45,97.25 C29,97.25 27.3,98.55 27.8,99.9 L30.65,105.9 Z" id="Path" fill="#858694" fill-rule="nonzero"></path>
                    <line x1="227.65" y1="82.75" x2="220.35" y2="82.75" id="Path" stroke="#FEFEFE" stroke-width="2.666535" stroke-linecap="round" stroke-linejoin="round"></line>
                    <line x1="11.6" y1="59.95" x2="35.55" y2="59.95" id="Path" stroke="#FEFEFE" stroke-width="2.666535" stroke-linecap="round" stroke-linejoin="round"></line>
                    <path d="M22.65,29.6 C20.55,29.6 18.9,31.3 18.9,33.35 C18.9,35.45 20.6,37.15 22.65,37.15 C24.75,37.15 26.45,35.45 26.45,33.35 C26.45,31.25 24.75,29.6 22.65,29.6 Z" id="Path" stroke="#FEFEFE" stroke-width="2.666535" stroke-linecap="round" stroke-linejoin="round"></path>
                    <line x1="24.25" y1="68.6" x2="35.55" y2="68.6" id="Path" stroke="#FEFEFE" stroke-width="2.666535" stroke-linecap="round" stroke-linejoin="round"></line>
                    <path d="M186.55,55.95 C189.8,54.95 191.55,56.15 194.05,56.15 C196.8,56.15 199.25,55.55 201.1,55 L200.55,52.65 C197.2,53.7 193.45,54.2 189.75,53.95 C189.65,53.95 189.55,53.95 189.45,53.95 C188.5,53.9 187.95,53.85 187.2,53.7 L186.55,55.95 Z" id="Path" fill="#FFBDAB" fill-rule="nonzero"></path>
                    <line x1="0.75" y1="76.5" x2="2.5" y2="76.5" id="Path" stroke="#FEFEFE" stroke-width="2.666535" stroke-linecap="round" stroke-linejoin="round"></line>
                    <line x1="8.3" y1="76.5" x2="10.05" y2="76.5" id="Path" stroke="#FEFEFE" stroke-width="2.666535" stroke-linecap="round" stroke-linejoin="round"></line>
                    <line x1="5.4" y1="81.15" x2="5.4" y2="79.4" id="Path" stroke="#FEFEFE" stroke-width="2.666535" stroke-linecap="round" stroke-linejoin="round"></line>
                    <line x1="5.4" y1="73.6" x2="5.4" y2="71.85" id="Path" stroke="#FEFEFE" stroke-width="2.666535" stroke-linecap="round" stroke-linejoin="round"></line>
                    <path d="M186.05,57.25 C183.7,62.9 182.5,68.8 181.15,74.8 C179,84.4 176.45,93.85 175.85,103.65 C176.85,103.65 178.35,104 179.75,104.3 C180.5,95.1 182.9,86.15 184.95,77 C186.2,71.45 187.3,66.05 189.3,60.8 C187.3,59.75 186.35,57.9 186.05,57.25 Z" id="Path" fill="#E6E6E6" fill-rule="nonzero"></path>
                    <path d="M195,67.8 C192.65,75.5 189.8,91.55 189.25,103.7 C189.2,105.05 189.15,106.3 189.15,107.55 C189.15,108.3 189.3,108.75 189.55,109 C189.85,109.25 190.3,109.2 190.85,108.95 C194.1,107.5 201.3,99.25 205.3,102.35 L208.9,96.1 L206.4,95.5 L206.4,95.5 L206.4,95.5 L207.8,91 L208.75,91.05 L220.3,91.95 L220.45,77.35 L220.35,74.9 L220.1,69.4 C219.95,66.1 218.85,62.15 214.75,60.85 L201.55,56.6 L201.55,56.6 L200.1,59.1 L195.1,67.85 L195,67.8 Z" id="Path" fill="#FF7D7D" fill-rule="nonzero"></path>
                    <path d="M200,59 C203.4,60 213.35,62.55 215.25,65.05 C217.5,67.95 216.6,91 216.55,91.6 L220.2,91.9 L220.35,77.3 L220.25,74.85 L220,69.35 C219.85,66.05 218.75,62.1 214.65,60.8 L201.45,56.55 L201.45,56.55 L200.05,59 L200,59 Z" id="Path" fill="#F95858" fill-rule="nonzero"></path>
                    <line x1="172.8" y1="76.2" x2="173.35" y2="72.25" id="Path" stroke="#0F222E" stroke-width="2.666535" stroke-linecap="round" stroke-linejoin="round"></line>
                    <path d="M172.3,112.35 C173.9,113.35 176.4,112.7 177.4,112.4 C179.45,111.75 179.45,109.25 179.4,106.85 C180.4,107.2 181.7,107.4 183.1,107.1 C185.9,106.5 187.95,105.3 189.2,105.2 C189.2,104.7 189.25,104.2 189.25,103.7 C187.2,103.65 184.7,104.7 182.45,104.7 C181.65,104.7 180.6,104.5 179.5,104.25 L179.5,104.25 L179.5,104.25 C178.1,103.95 176.9,103.65 175.9,103.65 C175.8,105.65 175.75,107.6 175.8,109.65 C174.65,109.9 173.6,109.9 172.65,109.65 L172.35,112.35 L172.3,112.35 Z" id="Path" fill="#072F49" fill-rule="nonzero"></path>
                    <line x1="216.6" y1="126.7" x2="166.35" y2="126.7" id="Path" stroke="#0F222E" stroke-width="2.666535" stroke-linecap="round" stroke-linejoin="round"></line>
                    <line x1="222.35" y1="126.7" x2="225.45" y2="126.7" id="Path" stroke="#0F222E" stroke-width="2.666535" stroke-linecap="round" stroke-linejoin="round"></line>
                    <line x1="162.85" y1="108.55" x2="21.75" y2="108.55" id="Path" stroke="#0F222E" stroke-width="2.666535" stroke-linecap="round" stroke-linejoin="round"></line>
                    <line x1="244.65" y1="71.3" x2="246.4" y2="71.3" id="Path" stroke="#FEFEFE" stroke-width="2.666535" stroke-linecap="round" stroke-linejoin="round"></line>
                    <path d="M194.6,23.75 C195.6,24.2 196.6,30.85 197.7,33.4 C197.8,33.6 197.9,33.8 197.95,33.9 C198.6,33.45 199.3,32.75 200.9,32.45 C204.55,31.7 206.2,34.65 204.85,38.9 C203.65,42.55 210.3,46.75 211.5,44.9 C215.1,36.65 214.9,27.2 214.7,23.65 C214.2,23.8 194.75,23.85 194.6,23.75 Z" id="Path" fill="#7D4432" fill-rule="nonzero"></path>
                    <g id="_320787912" stroke-linecap="round" stroke-linejoin="round" transform="translate(27.650000, 8.600000)" stroke="#0F222E">
                        <path d="M5.6,99.95 L124.2,99.95 C125.65,99.95 126.25,98.6 126.85,97.3 L129.7,91.3 C130.2,89.9 128.5,88.65 127.05,88.65 L82.85,88.65 L82.85,88.7 L82.85,88.7 C82.85,90.55 81.35,92.05 79.5,92.05 L43.8,92.05 C41.95,92.05 40.45,90.55 40.45,88.7 L40.45,88.7 L40.45,88.65 L2.75,88.65 C1.3,88.65 -0.4,89.95 0.1,91.3 L2.95,97.3 C3.45,98.7 4.15,99.95 5.6,99.95 Z" id="Path" stroke-width="2.666535"></path>
                        <path d="M123.25,88.65 L123.25,21.55 C123.25,18.5 121,16 118.2,16 L80.6,16.05 M75.8,16.05 L73.3,16.05 M67.9,16.05 L65,16.05 L13.05,16.05 C10.25,16.05 8,18.55 8,21.6 L8.05,82.65" id="Shape" stroke-width="2.666535"></path>
                        <line x1="170.8" y1="100.25" x2="182.4" y2="104.6" id="Path" stroke-width="2.666535"></line>
                        <line x1="158.65" y1="48.05" x2="159.5" y2="45.1" id="Path" stroke-width="2.666535"></line>
                        <line x1="173.75" y1="47.9" x2="172.9" y2="44.1" id="Path" stroke-width="2.666535"></line>
                        <path d="M153.55,13.5 C149.8,17.05 148.85,22.95 148.55,28.65 C148.5,29.5 147.15,30.55 147.25,31.65 C147.35,32.45 149.45,34.7 149.7,35.65 C151.15,41.8 152.6,43.5 157.6,44.65 C159.85,45.15 160.2,45.2 162.1,45.35 C171.35,45.9 180.6,42.1 183.85,36.25" id="Path" stroke-width="2.666535"></path>
                        <path d="M179.95,2.75 C180.4,3 180.8,3.25 181.2,3.5 M184.1,6.1 C185.4,7.7 186.35,9.75 186.8,12.2 C186.95,13.05 187,13.85 187.05,14.7 C187.25,18 187.55,27.75 183.9,36.2 C182.7,38.05 176.05,33.85 177.25,30.2 C178.65,25.95 176.95,23 173.3,23.75 C171.7,24.05 171,24.8 170.35,25.2 C169.15,23.25 168.05,15.5 167,15.05 L167,15.05 C166.9,15 166.55,14.95 166.1,14.9 L166.1,14.9 L165.85,14.9 L165.85,14.9 L165.75,14.9 L165.75,14.9 L165.65,14.9 L165.65,14.9 L165.5,14.9 L165.5,14.9 L165.25,14.9 L165.25,14.9 L165.15,14.9 L165.15,14.9 L164.95,14.9 L164.95,14.9 L164.5,14.85 L164.5,14.85 C160.35,14.55 156.55,14.7 153.6,13.5 C144.6,9.8 141.4,2.05 143.25,0.95 C146.3,-0.8 150.65,3.7 160.35,0.7 C163.4,0.1 167.7,-0.25 172,0.3 C173.55,0.5 175.1,0.85 176.6,1.3" id="Shape" stroke-width="2.666535"></path>
                        <path d="M161.55,95.1 C159.5,95.05 156.95,96.1 154.7,96.1 C152.9,96.1 149.85,95.05 148.15,95.1 M144.9,101.1 L142.95,118.15" id="Shape" stroke-width="2.666535"></path>
                        <path d="M185.25,118.1 C186.35,112.55 189.95,109.3 189.45,99.8 M163.75,104.4 C164.15,109.05 163.6,113.05 163.9,118.1" id="Shape" stroke-width="2.666535"></path>
                        <path d="M136.5,67.8 C137.05,67.8 137.65,67.85 138.25,67.85 C139.1,67.85 140,67.85 140.9,67.85 C142.3,67.8 143.8,67.7 145.15,67.55 C143.5,78.4 143,78.7 141.9,89.25 C141.8,90.95 141.2,93.9 141.35,96.65 C141.5,99.8 144.3,102 148.05,101.1 C147.7,89.15 150.85,77.85 153.45,66.25 C154.85,60.05 156.1,53.95 158.6,48.1 C139.35,47.2 147.35,55.95 132.1,55.9" id="Path" stroke-width="2.666535"></path>
                        <path d="M185,97.85 C187.85,98.65 193.35,102.4 193.2,99.95 L192.6,90.2 M192.7,77.45 L192.65,65.5 L192.5,62.5 L192.4,60.65 C192.4,60.25 192.35,59.9 192.3,59.5 C191.95,56.5 190.65,53.25 187.05,52.1 L173.85,47.85 C171.7,51.6 169.55,55.35 167.4,59.15 C164.8,67.7 161.55,86.5 161.55,98.9 C161.55,105.4 172.4,89.6 177.7,93.65" id="Shape" stroke-width="2.666535"></path>
                        <path d="M158.45,48.45 C158.45,48.45 160.45,54.4 167.4,52.6" id="Path" stroke-width="2.666535"></path>
                        <line x1="145.5" y1="64.85" x2="145.15" y2="67.5" id="Path" stroke-width="2.666535"></line>
                        <line x1="181.25" y1="67.6" x2="181.1" y2="82.4" id="Path" stroke-width="2.666535"></line>
                        <path d="M173.3,101.2 L181.25,87.45 M191,89.85 L180.45,103.9" id="Shape" stroke-width="2.666535"></path>
                        <polygon id="Path" stroke-width="2.666535" points="178.75 86.8 193.85 90.55 195.4 83.5 180.15 82.3"></polygon>
                        <polyline id="Path" stroke-width="2.666535" points="115.25 57.05 115.25 25.25 16.6 25.25 16.6 81.05 115.25 81.05 115.25 65.2"></polyline>
                        <polyline id="Path" stroke-width="2.666535" points="97.2 60.3 97.2 65.45 88.1 65.45 88.1 45.7 97.2 45.7 97.2 55.8"></polyline>
                        <polygon id="Path" stroke-width="2.666535" points="36.8 56.1 45.9 56.1 45.9 65.45 36.8 65.45"></polygon>
                        <polygon id="Path" stroke-width="2.666535" points="53.45 51.45 62.55 51.45 62.55 65.45 53.45 65.45"></polygon>
                        <polygon id="Path" stroke-width="2.666535" points="71.05 51.45 80.15 51.45 80.15 65.45 71.05 65.45"></polygon>
                        <path d="M123.25,57.7 L117.5,57.65 C113.95,56.7 112.5,56.15 107.95,55.65 L95.9,55.8 C92.75,55.85 92.75,56.9 92.85,58.5 C92.9,59.75 98.55,60.45 100.35,60.85 C102.2,61.25 107.7,61.9 106,64.4 C103,68.8 108.8,67.7 115.25,65.2 L123.25,65.7" id="Path" stroke-width="2.666535"></path>
                        <path d="M132.35,55.85 L123.2,56 L123.2,69.15 L132.3,69 C132.6,69 132.8,68.75 132.8,68.45 L132.8,56.35 C132.8,56.05 132.55,55.85 132.3,55.85 L132.35,55.85 Z" id="Path" stroke-width="2.666535"></path>
                        <path d="M158.05,18.95 C156.25,18 151.45,19.1 149.8,20.15" id="Path" stroke-width="1.999805"></path>
                        <path d="M156.35,37.9 C154.7,38.7 152.85,39.1 150.6,38.9" id="Path" stroke-width="1.999805"></path>
                        <path d="M156.9,22.4 C159.05,22.45 160.75,24.25 160.65,26.4 C160.6,28.55 158.8,30.25 156.65,30.15 C154.5,30.1 152.8,28.3 152.9,26.15 C152.95,24 154.75,22.3 156.9,22.4 Z" id="Path" stroke-width="1.999805"></path>
                        <line x1="26.8" y1="72.35" x2="100.6" y2="72.35" id="Path" stroke-width="2.666535"></line>
                        <line x1="27.35" y1="37.95" x2="27.35" y2="72.35" id="Path" stroke-width="2.666535"></line>
                    </g>
                </g>
            </g>
        </g>
    </g>
</svg>