<?xml version="1.0" encoding="UTF-8"?>
<svg width="220px" height="160px" viewBox="0 0 220 160" version="1.1" xmlns="http://www.w3.org/2000/svg" xmlns:xlink="http://www.w3.org/1999/xlink">
    <!-- Generator: Sketch 63.1 (92452) - https://sketch.com -->
    <title>feat-seo</title>
    <desc>Created with Sketch.</desc>
    <g id="Resellers" stroke="none" stroke-width="1" fill="none" fill-rule="evenodd">
        <g id="Resellers/Features" transform="translate(-131.000000, -548.000000)">
            <g id="feat-seo" transform="translate(131.000000, 548.000000)">
                <rect id="Rectangle" fill="#FFFFFF" x="0" y="0" width="220" height="160"></rect>
                <g id="Group" transform="translate(10.000000, 24.000000)">
                    <g id="sheens_2" stroke-linecap="round" transform="translate(89.795918, 29.251701)" stroke="#FFFFFF" stroke-width="2.72108844">
                        <line x1="54.0136054" y1="10.952381" x2="16.1904762" y2="10.952381" id="Stroke-2"></line>
                        <line x1="55.7142857" y1="0.680272109" x2="5.6462585" y2="0.680272109" id="Stroke-3"></line>
                        <line x1="89.9319728" y1="44.0136054" x2="46.2585034" y2="44.0136054" id="Stroke-4"></line>
                        <line x1="79.6598639" y1="33.7414966" x2="58.8435374" y2="33.7414966" id="Stroke-5"></line>
                        <line x1="10.952381" y1="10.952381" x2="6.93877551" y2="10.952381" id="Stroke-6"></line>
                        <line x1="1.9047619" y1="10.952381" x2="0" y2="10.952381" id="Stroke-7"></line>
                        <line x1="95.0340136" y1="44.0136054" x2="96.3945578" y2="44.0136054" id="Stroke-8"></line>
                        <line x1="101.428571" y1="44.0136054" x2="109.795918" y2="44.0136054" id="Stroke-9"></line>
                    </g>
                    <g id="illustration" transform="translate(0.000000, 11.564626)">
                        <g id="fill" fill-rule="nonzero">
                            <path d="M116.530612,104.965986 L104.761905,104.965986 C105.986395,103.469388 106.326531,100.816327 106.326531,99.2517007 C106.326531,96.7346939 105.170068,94.4217687 103.401361,92.9251701 L106.462585,89.8639456 C107.142857,90.4081633 107.959184,90.6802721 108.843537,90.6802721 C111.020408,90.6802721 112.721088,88.9115646 112.721088,86.8027211 C112.721088,85.9183673 112.380952,85.1020408 111.904762,84.4217687 L135.578231,60.7482993 L117.891156,43.0612245 L91.292517,69.6598639 C89.3197279,68.2993197 86.5306122,68.5034014 84.7619048,70.2721088 C82.9931973,72.0408163 82.7891156,74.829932 84.1496599,76.8027211 L75.6462585,85.3061224 C73.7414966,83.8095238 71.4285714,82.9251701 68.8435374,82.9251701 C62.7891156,82.9251701 57.8231293,87.8911565 57.8231293,93.9455782 C57.8231293,93.9455782 48.5714286,93.7414966 46.7346939,104.965986 L29.7959184,104.965986 C27.6870748,104.965986 25.9863946,106.666667 25.9863946,108.77551 C25.9863946,110.884354 27.6870748,112.585034 29.7959184,112.585034 L116.530612,112.585034 C118.639456,112.585034 120.340136,110.884354 120.340136,108.77551 C120.340136,106.666667 118.639456,104.965986 116.530612,104.965986" id="Fill-2" fill="#FFFFFF"></path>
                            <path d="M81.4285714,89.3877551 L86.8027211,84.0136054 C87.755102,83.0612245 88.0272109,81.7687075 87.755102,80.4761905 C87.414966,78.8435374 87.8911565,77.0068027 89.1156463,75.7823129 C90.4081633,74.4897959 92.1768707,74.0136054 93.8095238,74.4217687 C95.1020408,74.6938776 96.462585,74.3537415 97.3469388,73.4693878 L122.653061,48.1632653 L117.755102,43.2653061 L91.1564626,69.8639456 C89.1836735,68.5034014 86.3945578,68.707483 84.6258503,70.4761905 C82.8571429,72.244898 82.6530612,75.0340136 84.0136054,77.0068027 L75.5102041,85.5102041 C75.5102041,85.5102041 77.2789116,86.8707483 78.5714286,89.1836735 C79.2517007,90 80.6122449,90.2040816 81.4285714,89.3877551" id="Fill-4" fill="#CAF4FF"></path>
                            <path d="M118.707483,37.3469388 C118.707483,37.3469388 103.809524,34.3537415 99.7278912,60.3401361 C99.5238095,61.4285714 100.952381,62.1088435 101.632653,61.292517 C106.530612,55.8503401 117.210884,44.0136054 117.210884,44.0136054 L118.707483,37.3469388 Z" id="Fill-6" fill="#FF8585"></path>
                            <path d="M141.292517,60 C141.292517,60 144.285714,74.8979592 118.29932,78.9795918 C117.210884,79.1836735 116.530612,77.755102 117.346939,77.0748299 C122.789116,72.1768707 134.62585,61.4965986 134.62585,61.4965986 L141.292517,60 Z" id="Fill-8" fill="#FF8585"></path>
                            <path d="M101.632653,61.292517 C106.530612,55.8503401 117.210884,44.0136054 117.210884,44.0136054 L118.027211,40.4081633 C114.353741,41.1564626 108.639456,43.6734694 101.836735,51.5646259 C100.952381,54.0816327 100.272109,57.0068027 99.7278912,60.4081633 C99.5238095,61.4965986 100.884354,62.1088435 101.632653,61.292517" id="Fill-10" fill="#FF5F5F"></path>
                            <path d="M117.346939,77.0748299 C122.789116,72.1768707 134.62585,61.4965986 134.62585,61.4965986 L138.231293,60.6802721 C137.482993,64.3537415 134.965986,70.0680272 127.07483,76.8707483 C124.557823,77.755102 121.632653,78.4353741 118.231293,78.9795918 C117.210884,79.1836735 116.530612,77.8231293 117.346939,77.0748299" id="Fill-12" fill="#FF5F5F"></path>
                            <path d="M172.92517,33.4013605 C175.510204,28.0272109 179.251701,17.6870748 178.027211,5.44217687 C177.755102,2.92517007 175.782313,0.884353741 173.197279,0.612244898 C161.22449,-0.544217687 151.088435,3.06122449 145.578231,5.57823129 C142.92517,6.80272109 140.47619,8.57142857 138.435374,10.6802721 C133.605442,15.7142857 123.197279,27.3469388 113.537415,43.4013605 C112.312925,45.4421769 112.653061,48.0952381 114.353741,49.7278912 L128.911565,64.2857143 C130.612245,65.9863946 133.197279,66.3265306 135.238095,65.1020408 C151.428571,55.3741497 163.129252,44.8979592 168.095238,40.0680272 C170.068027,38.1632653 171.70068,35.9183673 172.92517,33.4013605" id="Fill-14" fill="#D1D1D1"></path>
                            <path d="M148.29932,17.414966 C161.088435,5.51020408 176.530612,2.10884354 176.530612,2.10884354 L176.530612,2.10884354 C175.646259,1.2244898 174.557823,0.680272109 173.265306,0.544217687 C161.22449,-0.544217687 151.088435,3.06122449 145.578231,5.57823129 C142.92517,6.80272109 140.47619,8.57142857 138.435374,10.6802721 C133.605442,15.7142857 123.197279,27.3469388 113.537415,43.4013605 C112.312925,45.4421769 112.653061,48.0952381 114.353741,49.7278912 L123.061224,58.4353741 C126.326531,37.2789116 148.095238,17.6190476 148.29932,17.414966" id="Fill-16" fill="#BFBFBF"></path>
                            <path d="M158.571429,27.755102 L178.231293,8.0952381 C178.163265,7.21088435 178.163265,6.32653061 178.027211,5.37414966 C177.755102,2.85714286 175.782313,0.816326531 173.197279,0.544217687 C161.156463,-0.612244898 151.020408,2.99319728 145.578231,5.57823129 C143.537415,6.53061224 141.70068,7.75510204 140,9.18367347 L158.571429,27.755102 Z" id="Fill-18" fill="#BFBFBF"></path>
                            <path d="M176.530612,2.17687075 C175.646259,1.29251701 174.489796,0.680272109 173.265306,0.612244898 C161.156463,-0.612244898 151.020408,2.99319728 145.578231,5.57823129 C143.537415,6.53061224 141.70068,7.75510204 140,9.18367347 L148.29932,17.414966 C161.020408,5.57823129 176.462585,2.17687075 176.530612,2.17687075" id="Fill-20" fill="#B2B2B2"></path>
                            <path d="M166.394558,40.0680272 L138.639456,12.244898 C137.414966,11.0204082 137.414966,8.97959184 138.639456,7.75510204 C139.863946,6.53061224 141.904762,6.53061224 143.129252,7.75510204 L170.952381,35.5782313 C172.176871,36.8027211 172.176871,38.8435374 170.952381,40.0680272 C169.659864,41.292517 167.619048,41.292517 166.394558,40.0680272" id="Fill-22" fill="#FF8585"></path>
                            <path d="M145.646259,14.829932 C146.870748,13.6054422 148.911565,13.6054422 150.136054,14.829932 L143.129252,7.82312925 C141.904762,6.59863946 139.863946,6.59863946 138.639456,7.82312925 C137.414966,9.04761905 137.414966,11.0884354 138.639456,12.3129252 L145.646259,19.3197279 C144.421769,18.0952381 144.421769,16.0544218 145.646259,14.829932" id="Fill-24" fill="#FF5F5F"></path>
                            <path d="M147.210884,44.4217687 C143.605442,48.0272109 137.823129,48.0272109 134.217687,44.4217687 C130.612245,40.8163265 130.612245,35.0340136 134.217687,31.4285714 C137.823129,27.8231293 143.605442,27.8231293 147.210884,31.4285714 C150.816327,35.0340136 150.816327,40.8163265 147.210884,44.4217687" id="Fill-26" fill="#FF8585"></path>
                            <path d="M137.142857,41.5646259 C135.170068,39.5918367 135.170068,36.3265306 137.142857,34.3537415 C139.115646,32.3809524 142.380952,32.3809524 144.353741,34.3537415 C146.326531,36.3265306 146.326531,39.5918367 144.353741,41.5646259 C142.312925,43.537415 139.115646,43.537415 137.142857,41.5646259" id="Fill-28" fill="#606060"></path>
                            <path d="M140.204082,37.414966 C141.632653,35.9863946 143.741497,35.5782313 145.510204,36.2585034 C145.238095,35.5782313 144.897959,34.8979592 144.353741,34.3537415 C142.380952,32.3809524 139.115646,32.3809524 137.142857,34.3537415 C135.170068,36.3265306 135.170068,39.5918367 137.142857,41.5646259 C137.687075,42.1088435 138.367347,42.5170068 139.047619,42.7210884 C138.367347,40.952381 138.77551,38.8435374 140.204082,37.414966" id="Fill-30" fill="#515151"></path>
                            <path d="M126.734694,58.707483 C124.897959,60.5442177 110.544218,71.8367347 108.707483,70 C106.870748,68.1632653 118.163265,53.8095238 120,51.9727891 C121.836735,50.1360544 124.897959,50.1360544 126.734694,51.9727891 C128.571429,53.8095238 128.571429,56.8707483 126.734694,58.707483" id="Fill-32" fill="#FF8585"></path>
                            <path d="M123.333333,55.3061224 C124.557823,54.0816327 126.326531,53.6734694 127.959184,54.0816327 C127.755102,53.2653061 127.346939,52.585034 126.734694,51.9047619 C124.897959,50.0680272 121.836735,50.0680272 120,51.9047619 C118.163265,53.7414966 106.870748,68.0952381 108.707483,69.9319728 C109.319728,70.5442177 111.292517,69.7278912 113.741497,68.2993197 C116.598639,63.4013605 122.108844,56.5986395 123.333333,55.3061224" id="Fill-34" fill="#FF5F5F"></path>
                            <path d="M70.0680272,98.5034014 C69.5918367,94.7619048 67.414966,89.8639456 59.4557823,88.0952381 C58.3673469,89.7959184 57.755102,91.7687075 57.755102,93.9455782 C57.755102,93.9455782 63.6054422,93.8095238 67.755102,99.3877551 C68.5714286,100.47619 70.2040816,99.7959184 70.0680272,98.5034014" id="Fill-36" fill="#CAF4FF"></path>
                            <path d="M46.6666667,104.965986 L51.5646259,104.965986 C52.9931973,104.965986 53.4013605,102.993197 52.0408163,102.44898 C50.6122449,101.836735 49.2517007,101.088435 48.1632653,100.068027 C47.5510204,101.428571 47.0068027,103.061224 46.6666667,104.965986" id="Fill-38" fill="#CAF4FF"></path>
                            <path d="M142.92517,112.585034 L131.088435,112.585034 C128.979592,112.585034 127.278912,110.884354 127.278912,108.77551 C127.278912,106.666667 128.979592,104.965986 131.088435,104.965986 L142.92517,104.965986 C145.034014,104.965986 146.734694,106.666667 146.734694,108.77551 C146.734694,110.884354 145.034014,112.585034 142.92517,112.585034" id="Fill-40" fill="#FFFFFF"></path>
                            <path d="M15.2380952,112.585034 L11.1564626,112.585034 C9.04761905,112.585034 7.34693878,110.884354 7.34693878,108.77551 C7.34693878,106.666667 9.04761905,104.965986 11.1564626,104.965986 L15.2380952,104.965986 C17.3469388,104.965986 19.047619,106.666667 19.047619,108.77551 C19.047619,110.884354 17.3469388,112.585034 15.2380952,112.585034" id="Fill-42" fill="#FFFFFF"></path>
                            <path d="M40.6802721,54.3537415 L4.3537415,54.3537415 C2.24489796,54.3537415 0.544217687,52.6530612 0.544217687,50.5442177 C0.544217687,48.4353741 2.24489796,46.7346939 4.3537415,46.7346939 L40.6802721,46.7346939 C42.7891156,46.7346939 44.4897959,48.4353741 44.4897959,50.5442177 C44.4897959,52.6530612 42.7891156,54.3537415 40.6802721,54.3537415" id="Fill-44" fill="#FFFFFF"></path>
                            <path d="M49.1156463,68.6394558 L39.5918367,68.6394558 C37.4829932,68.6394558 35.7823129,66.9387755 35.7823129,64.829932 C35.7823129,62.7210884 37.4829932,61.0204082 39.5918367,61.0204082 L49.1156463,61.0204082 C51.2244898,61.0204082 52.9251701,62.7210884 52.9251701,64.829932 C52.9251701,66.9387755 51.2244898,68.6394558 49.1156463,68.6394558" id="Fill-46" fill="#FFFFFF"></path>
                            <path d="M162.993197,93.6734694 L153.469388,93.6734694 C151.360544,93.6734694 149.659864,91.9727891 149.659864,89.8639456 C149.659864,87.755102 151.360544,86.0544218 153.469388,86.0544218 L162.993197,86.0544218 C165.102041,86.0544218 166.802721,87.755102 166.802721,89.8639456 C166.802721,91.9727891 165.102041,93.6734694 162.993197,93.6734694" id="Fill-48" fill="#FFFFFF"></path>
                        </g>
                        <g id="stroke">
                            <path d="M170.816327,10.6802721 C170.272109,11.2244898 169.455782,11.2244898 168.911565,10.6802721 C168.367347,10.1360544 168.367347,9.31972789 168.911565,8.7755102 C169.455782,8.23129252 170.272109,8.23129252 170.816327,8.7755102 C171.360544,9.25170068 171.360544,10.1360544 170.816327,10.6802721" id="Fill-2_1_" fill="#0F222E" fill-rule="nonzero"></path>
                            <path d="M166.530612,14.9659864 C165.986395,15.5102041 165.170068,15.5102041 164.62585,14.9659864 C164.081633,14.4217687 164.081633,13.6054422 164.62585,13.0612245 C165.170068,12.5170068 165.986395,12.5170068 166.530612,13.0612245 C167.07483,13.537415 167.07483,14.4217687 166.530612,14.9659864" id="Fill-4_1_" fill="#0F222E" fill-rule="nonzero"></path>
                            <path d="M162.312925,19.1836735 C161.768707,19.7278912 160.952381,19.7278912 160.408163,19.1836735 C159.863946,18.6394558 159.863946,17.8231293 160.408163,17.2789116 C160.952381,16.7346939 161.768707,16.7346939 162.312925,17.2789116 C162.789116,17.8231293 162.789116,18.6394558 162.312925,19.1836735" id="Fill-6_1_" fill="#0F222E" fill-rule="nonzero"></path>
                            <path d="M85.8503401,99.7278912 C85.3061224,100.272109 84.4897959,100.272109 83.9455782,99.7278912 C83.4013605,99.1836735 83.4013605,98.3673469 83.9455782,97.8231293 C84.4897959,97.2789116 85.3061224,97.2789116 85.8503401,97.8231293 C86.3945578,98.2993197 86.3945578,99.1836735 85.8503401,99.7278912" id="Fill-8_1_" fill="#0F222E" fill-rule="nonzero"></path>
                            <path d="M93.9455782,99.7278912 C93.4013605,100.272109 92.585034,100.272109 92.0408163,99.7278912 C91.4965986,99.1836735 91.4965986,98.3673469 92.0408163,97.8231293 C92.585034,97.2789116 93.4013605,97.2789116 93.9455782,97.8231293 C94.4897959,98.2993197 94.4897959,99.1836735 93.9455782,99.7278912" id="Fill-10_1_" fill="#0F222E" fill-rule="nonzero"></path>
                            <path d="M90.1360544,94.3537415 C89.5918367,94.8979592 88.7755102,94.8979592 88.2312925,94.3537415 C87.6870748,93.8095238 87.6870748,92.9931973 88.2312925,92.4489796 C88.7755102,91.9047619 89.5918367,91.9047619 90.1360544,92.4489796 C90.6802721,92.9931973 90.6802721,93.877551 90.1360544,94.3537415" id="Fill-12_1_" fill="#0F222E" fill-rule="nonzero"></path>
                            <path d="M166.394558,40.0680272 L138.639456,12.244898 C137.414966,11.0204082 137.414966,8.97959184 138.639456,7.75510204 C139.863946,6.53061224 141.904762,6.53061224 143.129252,7.75510204 L170.952381,35.5782313 C172.176871,36.8027211 172.176871,38.8435374 170.952381,40.0680272 C169.659864,41.292517 167.619048,41.292517 166.394558,40.0680272 Z" id="Stroke-14_1_" stroke="#0F222E" stroke-width="2.72108844" stroke-linejoin="round"></path>
                            <path d="M147.210884,44.4217687 C143.605442,48.0272109 137.823129,48.0272109 134.217687,44.4217687 C130.612245,40.8163265 130.612245,35.0340136 134.217687,31.4285714 C137.823129,27.8231293 143.605442,27.8231293 147.210884,31.4285714 C150.816327,35.0340136 150.816327,40.8163265 147.210884,44.4217687 Z" id="Stroke-16_1_" stroke="#0F222E" stroke-width="2.72108844" stroke-linejoin="round"></path>
                            <path d="M137.142857,34.3537415 C139.115646,32.3809524 142.380952,32.3809524 144.353741,34.3537415 C146.326531,36.3265306 146.326531,39.5918367 144.353741,41.5646259 C142.380952,43.537415 139.115646,43.537415 137.142857,41.5646259 C136.530612,40.952381 136.122449,40.2040816 135.85034,39.4557823" id="Stroke-18_1_" stroke="#0F222E" stroke-width="2.72108844" stroke-linecap="round" stroke-linejoin="round"></path>
                            <path d="M126.734694,58.707483 C124.897959,60.5442177 110.544218,71.8367347 108.707483,70 C106.870748,68.1632653 118.163265,53.8095238 120,51.9727891 C121.836735,50.1360544 124.897959,50.1360544 126.734694,51.9727891 C128.571429,53.8095238 128.571429,56.8707483 126.734694,58.707483 Z" id="Stroke-20_1_" stroke="#0F222E" stroke-width="2.72108844" stroke-linejoin="round"></path>
                            <path d="M124.897959,60.2721088 L128.911565,64.2857143 C130.612245,65.9863946 133.197279,66.3265306 135.238095,65.1020408 C150.544218,55.9183673 161.836735,45.9863946 167.210884,40.8843537" id="Stroke-22" stroke="#0F222E" stroke-width="2.72108844" stroke-linejoin="round"></path>
                            <path d="M137.687075,11.4965986 C132.585034,16.8707483 122.721088,28.1632653 113.537415,43.4013605 C112.312925,45.4421769 112.653061,48.0952381 114.353741,49.7278912 L118.231293,53.6054422" id="Stroke-24" stroke="#0F222E" stroke-width="2.72108844" stroke-linejoin="round"></path>
                            <path d="M153.877551,2.5170068 C150.544218,3.46938776 147.687075,4.62585034 145.578231,5.6462585 C144.557823,6.12244898 143.605442,6.66666667 142.653061,7.27891156" id="Stroke-26" stroke="#0F222E" stroke-width="2.72108844" stroke-linecap="round" stroke-linejoin="round"></path>
                            <path d="M159.115646,1.29251701 C158.843537,1.36054422 158.571429,1.42857143 158.29932,1.42857143" id="Stroke-28" stroke="#0F222E" stroke-width="2.72108844" stroke-linecap="round" stroke-linejoin="round"></path>
                            <path d="M171.360544,36.1904762 C171.972789,35.3061224 172.44898,34.3537415 172.92517,33.4013605 C175.510204,28.0272109 179.251701,17.6870748 178.027211,5.44217687 C177.755102,2.92517007 175.782313,0.884353741 173.197279,0.612244898 C169.863946,0.272108844 166.734694,0.340136054 163.741497,0.612244898" id="Stroke-30" stroke="#0F222E" stroke-width="2.72108844" stroke-linecap="round" stroke-linejoin="round"></path>
                            <path d="M117.414966,37.2789116 C113.741497,37.2108844 103.061224,38.9795918 99.6598639,60.4081633 C99.4557823,61.4965986 100.884354,62.1768707 101.564626,61.3605442 C104.489796,58.0952381 109.52381,52.585034 113.061224,48.6394558" id="Stroke-32" stroke="#0F222E" stroke-width="2.72108844" stroke-linejoin="round"></path>
                            <path d="M139.863946,67.4829932 C137.482993,71.8367347 131.836735,76.8707483 118.29932,78.9795918 C117.210884,79.1836735 116.530612,77.755102 117.346939,77.0748299 C120.680272,74.0816327 126.394558,68.9115646 130.340136,65.3741497" id="Stroke-34" stroke="#0F222E" stroke-width="2.72108844" stroke-linecap="round" stroke-linejoin="round"></path>
                            <line x1="178.163265" y1="8.0952381" x2="160.748299" y2="25.5102041" id="Stroke-36" stroke="#0F222E" stroke-width="2.72108844" stroke-linejoin="round"></line>
                            <path d="M96.1904762,64.829932 L91.292517,69.7278912 C89.3197279,68.3673469 86.5306122,68.5714286 84.7619048,70.3401361 C82.9931973,72.1088435 82.7891156,74.8979592 84.1496599,76.8707483 L75.6462585,85.3741497 C73.7414966,83.877551 71.4285714,82.9931973 68.8435374,82.9931973 C62.7891156,82.9931973 57.8231293,87.8911565 57.8231293,94.0136054 C57.8231293,94.0136054 48.5714286,93.8095238 46.7346939,105.034014 L29.7959184,105.034014 C27.6870748,105.034014 25.9863946,106.734694 25.9863946,108.843537 C25.9863946,110.952381 27.6870748,112.653061 29.7959184,112.653061 L116.530612,112.653061 C118.639456,112.653061 120.340136,110.952381 120.340136,108.843537 C120.340136,106.734694 118.639456,105.034014 116.530612,105.034014 L104.761905,105.034014 C105.986395,103.537415 106.326531,100.884354 106.326531,99.3197279 C106.326531,96.8027211 105.170068,94.4897959 103.401361,92.9931973 L106.462585,89.9319728 C107.142857,90.4761905 107.959184,90.7482993 108.843537,90.7482993 C111.020408,90.7482993 112.721088,88.9795918 112.721088,86.8707483 C112.721088,85.9863946 112.380952,85.170068 111.904762,84.4897959 L117.823129,78.5714286" id="Stroke-38" stroke="#0F222E" stroke-width="2.72108844" stroke-linecap="round" stroke-linejoin="round"></path>
                            <line x1="46.6666667" y1="104.965986" x2="56.2585034" y2="104.965986" id="Stroke-40" stroke="#0F222E" stroke-width="2.72108844" stroke-linecap="round" stroke-linejoin="round"></line>
                            <line x1="60.7482993" y1="104.965986" x2="65.170068" y2="104.965986" id="Stroke-42" stroke="#0F222E" stroke-width="2.72108844" stroke-linecap="round" stroke-linejoin="round"></line>
                            <path d="M103.401361,92.9251701 C103.401361,92.9251701 101.292517,90.7482993 96.6666667,90.3401361" id="Stroke-44" stroke="#0F222E" stroke-width="2.72108844" stroke-linecap="round" stroke-linejoin="round"></path>
                            <path d="M57.8231293,93.9455782 C57.8231293,93.9455782 60.0680272,93.877551 62.7891156,95.170068" id="Stroke-46" stroke="#0F222E" stroke-width="2.72108844" stroke-linecap="round" stroke-linejoin="round"></path>
                            <path d="M75.6462585,85.3741497 C75.6462585,85.3741497 76.6666667,86.122449 77.6870748,87.4829932" id="Stroke-48" stroke="#0F222E" stroke-width="2.72108844" stroke-linecap="round" stroke-linejoin="round"></path>
                            <path d="M142.92517,112.585034 L131.088435,112.585034 C128.979592,112.585034 127.278912,110.884354 127.278912,108.77551 C127.278912,106.666667 128.979592,104.965986 131.088435,104.965986 L142.92517,104.965986 C145.034014,104.965986 146.734694,106.666667 146.734694,108.77551 C146.734694,110.884354 145.034014,112.585034 142.92517,112.585034 Z" id="Stroke-50" stroke="#0F222E" stroke-width="2.72108844" stroke-linejoin="round"></path>
                            <path d="M15.2380952,112.585034 L11.1564626,112.585034 C9.04761905,112.585034 7.34693878,110.884354 7.34693878,108.77551 C7.34693878,106.666667 9.04761905,104.965986 11.1564626,104.965986 L15.2380952,104.965986 C17.3469388,104.965986 19.047619,106.666667 19.047619,108.77551 C19.047619,110.884354 17.3469388,112.585034 15.2380952,112.585034 Z" id="Stroke-52" stroke="#0F222E" stroke-width="2.72108844" stroke-linejoin="round"></path>
                            <path d="M27.414966,54.3537415 L4.28571429,54.3537415 C2.17687075,54.3537415 0.476190476,52.6530612 0.476190476,50.5442177 C0.476190476,48.4353741 2.17687075,46.7346939 4.28571429,46.7346939 L40.6122449,46.7346939 C42.7210884,46.7346939 44.4217687,48.4353741 44.4217687,50.5442177 C44.4217687,52.6530612 42.7210884,54.3537415 40.6122449,54.3537415 L34.6938776,54.3537415" id="Stroke-54" stroke="#0F222E" stroke-width="2.72108844" stroke-linecap="round" stroke-linejoin="round"></path>
                            <path d="M49.1156463,68.6394558 L39.5918367,68.6394558 C37.4829932,68.6394558 35.7823129,66.9387755 35.7823129,64.829932 C35.7823129,62.7210884 37.4829932,61.0204082 39.5918367,61.0204082 L49.1156463,61.0204082 C51.2244898,61.0204082 52.9251701,62.7210884 52.9251701,64.829932 C52.9251701,66.9387755 51.2244898,68.6394558 49.1156463,68.6394558 Z" id="Stroke-56" stroke="#0F222E" stroke-width="2.72108844" stroke-linecap="round" stroke-linejoin="round"></path>
                            <path d="M149.727891,89.8639456 L149.727891,89.8639456 C149.727891,87.755102 151.428571,86.0544218 153.537415,86.0544218 L163.061224,86.0544218 C165.170068,86.0544218 166.870748,87.755102 166.870748,89.8639456 C166.870748,91.9727891 165.170068,93.6734694 163.061224,93.6734694 L153.537415,93.6734694" id="Stroke-58" stroke="#0F222E" stroke-width="2.72108844" stroke-linecap="round" stroke-linejoin="round"></path>
                        </g>
                    </g>
                    <g id="sheens_1" transform="translate(91.156463, 0.000000)" stroke="#FFFFFF" stroke-width="1.36054422">
                        <path d="M37.755102,1.63265306 C37.755102,2.5170068 37.0748299,3.19727891 36.1904762,3.19727891 C35.3061224,3.19727891 34.6258503,2.5170068 34.6258503,1.63265306 C34.6258503,0.74829932 35.3061224,0.0680272109 36.1904762,0.0680272109 C37.0068027,0.0680272109 37.755102,0.74829932 37.755102,1.63265306 Z" id="Stroke-2_1_"></path>
                        <path d="M88.707483,87.0748299 C88.707483,87.9591837 88.0272109,88.6394558 87.1428571,88.6394558 C86.2585034,88.6394558 85.5782313,87.9591837 85.5782313,87.0748299 C85.5782313,86.1904762 86.2585034,85.5102041 87.1428571,85.5102041 C88.0272109,85.5102041 88.707483,86.1904762 88.707483,87.0748299 Z" id="Stroke-4_1_"></path>
                        <line x1="99.4557823" y1="46.462585" x2="99.4557823" y2="47.6870748" id="Stroke-6_1_" stroke-linecap="round"></line>
                        <line x1="99.4557823" y1="51.3605442" x2="99.4557823" y2="52.585034" id="Stroke-8_1_" stroke-linecap="round"></line>
                        <line x1="102.517007" y1="49.5238095" x2="101.292517" y2="49.5238095" id="Stroke-10" stroke-linecap="round"></line>
                        <line x1="97.6190476" y1="49.5238095" x2="96.3945578" y2="49.5238095" id="Stroke-12" stroke-linecap="round"></line>
                        <line x1="3.1292517" y1="8.84353741" x2="3.1292517" y2="10.0680272" id="Stroke-14" stroke-linecap="round"></line>
                        <line x1="3.1292517" y1="13.7414966" x2="3.1292517" y2="14.9659864" id="Stroke-16" stroke-linecap="round"></line>
                        <line x1="6.19047619" y1="11.9047619" x2="4.96598639" y2="11.9047619" id="Stroke-18" stroke-linecap="round"></line>
                        <line x1="1.29251701" y1="11.9047619" x2="0.0680272109" y2="11.9047619" id="Stroke-20" stroke-linecap="round"></line>
                    </g>
                </g>
            </g>
        </g>
    </g>
</svg>