<?xml version="1.0" encoding="UTF-8"?>
<svg width="220px" height="160px" viewBox="0 0 220 160" version="1.1" xmlns="http://www.w3.org/2000/svg" xmlns:xlink="http://www.w3.org/1999/xlink">
    <!-- Generator: Sketch 63.1 (92452) - https://sketch.com -->
    <title>feat-competitor</title>
    <desc>Created with Sketch.</desc>
    <g id="Resellers" stroke="none" stroke-width="1" fill="none" fill-rule="evenodd">
        <g id="Resellers/Features" transform="translate(-136.000000, -953.000000)">
            <g id="feat-competitor" transform="translate(136.000000, 953.000000)">
                <rect id="Rectangle" fill="#FFFFFF" x="0" y="0" width="220" height="160"></rect>
                <g id="Group-2" transform="translate(20.000000, 18.000000)">
                    <g id="sheens" transform="translate(0.000000, 1.302682)" stroke="#FFFFFF" stroke-width="2">
                        <path d="M3.38697318,62.0727969 C3.38697318,62.9195402 2.73563218,63.5708812 1.88888889,63.5708812 C1.04214559,63.5708812 0.390804598,62.9195402 0.390804598,62.0727969 C0.390804598,61.2260536 1.04214559,60.5747126 1.88888889,60.5747126 C2.73563218,60.5095785 3.38697318,61.2260536 3.38697318,62.0727969 Z" id="Stroke-2_1_"></path>
                        <path d="M169.609195,44.0306513 C169.609195,44.8773946 168.957854,45.5287356 168.111111,45.5287356 C167.264368,45.5287356 166.613027,44.8773946 166.613027,44.0306513 C166.613027,43.183908 167.264368,42.532567 168.111111,42.532567 C168.957854,42.532567 169.609195,43.183908 169.609195,44.0306513 Z" id="Stroke-4_1_"></path>
                        <g id="Group" stroke-linecap="round" transform="translate(134.827586, 0.000000)">
                            <line x1="2.99616858" y1="0.260536398" x2="2.99616858" y2="1.43295019" id="Stroke-6_1_"></line>
                            <line x1="2.99616858" y1="4.95019157" x2="2.99616858" y2="6.12260536" id="Stroke-8_1_"></line>
                            <line x1="5.92720307" y1="3.19157088" x2="4.75478927" y2="3.19157088" id="Stroke-10_1_"></line>
                            <line x1="1.23754789" y1="3.19157088" x2="0.0651340996" y2="3.19157088" id="Stroke-12_1_"></line>
                        </g>
                        <g id="Group" stroke-linecap="round" transform="translate(20.842912, 115.938697)">
                            <line x1="3.12643678" y1="0.0651340996" x2="3.12643678" y2="1.23754789" id="Stroke-14_1_"></line>
                            <line x1="3.12643678" y1="4.75478927" x2="3.12643678" y2="5.92720307" id="Stroke-16_1_"></line>
                            <line x1="6.05747126" y1="2.99616858" x2="4.88505747" y2="2.99616858" id="Stroke-18_1_"></line>
                            <line x1="1.36781609" y1="2.99616858" x2="0.195402299" y2="2.99616858" id="Stroke-20_1_"></line>
                        </g>
                    </g>
                    <g id="illustration" transform="translate(19.540230, 0.000000)">
                        <g id="fill" transform="translate(37.126437, 21.494253)" fill-rule="nonzero">
                            <path d="M35.7586207,59.5977011 L35.7586207,47.4827586 L22.6666667,47.4827586 L22.6666667,59.5977011 L5.08045977,63.3103448 C2.08429119,63.9616858 -3.70244491e-14,66.5670498 -3.70244491e-14,69.6283525 L-3.70244491e-14,82.5249042 L58.4252874,82.5249042 L58.4252874,69.6283525 C58.4252874,66.5670498 56.2758621,63.9616858 53.3448276,63.3103448 L35.7586207,59.5977011 Z" id="Path" fill="#FFE7DE"></path>
                            <path d="M35.7586207,53.8659004 L35.7586207,47.4176245 L22.6666667,47.4176245 L22.6666667,59.532567 C31.7854406,60.835249 35.1072797,55.2337165 35.7586207,53.8659004 Z" id="Path" fill="#FFBDAB"></path>
                            <path d="M58.4252874,69.6283525 C58.4252874,66.5670498 56.2758621,63.9616858 53.3448276,63.3103448 L41.164751,60.7049808 L29.2452107,66.2413793 C29.2452107,66.2413793 22.4061303,63.1149425 17.1954023,60.7049808 L5.14559387,63.2452107 C2.14942529,63.8965517 0.0651340996,66.5019157 0.0651340996,69.5632184 L0.0651340996,82.4597701 L58.4904215,82.4597701 L58.4904215,69.6283525 L58.4252874,69.6283525 Z" id="Path" fill="#E7F6F7"></path>
                            <path d="M13.2222222,77.3141762 C14.9808429,79.0076628 17.3256705,79.9846743 19.8007663,79.9846743 C22.1455939,79.9846743 24.3601533,79.137931 26.1187739,77.5747126 L29.1800766,74.8390805 L32.2413793,77.5747126 C34,79.137931 36.2145594,79.9846743 38.559387,79.9846743 C41.0344828,79.9846743 43.3793103,79.0076628 45.137931,77.3141762 L52.0421456,70.605364 C53.8659004,68.8467433 54.8429119,66.4367816 54.908046,63.9616858 C54.3869732,63.7011494 53.8659004,63.5057471 53.2796935,63.3754789 L41.0996169,60.7701149 L29.1800766,66.3065134 C29.1800766,66.3065134 22.3409962,63.1800766 17.1302682,60.7701149 L5.08045977,63.3103448 C4.49425287,63.440613 3.97318008,63.6360153 3.45210728,63.8965517 C3.45210728,66.4367816 4.49425287,68.7816092 6.31800766,70.5402299 L13.2222222,77.3141762 Z" id="Path" fill="#D6ECED"></path>
                            <path d="M34.5862069,82.5249042 C33.9348659,73.3409962 29.1800766,71.0613027 29.1800766,71.0613027 C29.1800766,71.0613027 24.4252874,73.3409962 23.7739464,82.5249042 L34.5862069,82.5249042 Z" id="Path" fill="#8CE0CC"></path>
                            <path d="M28.4636015,82.5249042 C28.9846743,77.9003831 30.6130268,75.2298851 31.9157088,73.7969349 C30.5478927,71.7126437 29.1800766,71.0613027 29.1800766,71.0613027 C29.1800766,71.0613027 24.4252874,73.3409962 23.7739464,82.5249042 L28.4636015,82.5249042 Z" id="Path" fill="#79D1BA"></path>
                            <path d="M24.0996169,68.2605364 L29.1800766,66.3065134 L34.2605364,68.2605364 L30.8735632,73.0804598 C30.091954,74.2528736 28.3333333,74.2528736 27.5517241,73.0804598 L24.0996169,68.2605364 Z" id="Path" fill="#B2F9EE"></path>
                            <path d="M31.1340996,72.7547893 C30.091954,71.5172414 28.7241379,69.1072797 29.1800766,66.3065134 L24.0996169,68.2605364 L27.48659,73.0804598 C28.2681992,74.2528736 30.0268199,74.2528736 30.8084291,73.0804598 L31.1340996,72.7547893 L31.1340996,72.7547893 Z" id="Path" fill="#8CE0CC"></path>
                            <circle id="Oval" fill="#FFBDAB" transform="translate(9.699441, 34.946896) rotate(-85.083023) translate(-9.699441, -34.946896) " cx="9.69944068" cy="34.9468959" r="5.01522528"></circle>
                            <circle id="Oval" fill="#FFD3C5" cx="49.1762452" cy="34.9770115" r="5.01532567"></circle>
                            <path d="M50.4137931,24.8812261 C51.2605364,19.8659004 50.348659,14.7203065 47.6130268,10.4214559 C43.835249,4.36398467 37.0613027,0.325670498 29.440613,0.325670498 C21.8199234,0.325670498 15.045977,4.36398467 11.2681992,10.4214559 C8.59770115,14.7203065 7.68582375,19.8659004 8.46743295,24.8812261 L10.8122605,39.0804598 C11.6590038,44.2260536 14.7854406,48.7203065 19.2796935,51.3908046 L24.9463602,54.7126437 C27.6819923,56.3409962 31.1340996,56.3409962 33.8697318,54.7126437 L39.5363985,51.3908046 C44.0306513,48.7203065 47.1570881,44.2260536 48.0038314,39.0804598 L50.4137931,24.8812261 Z" id="Path" fill="#FFE7DE"></path>
                            <path d="M32.6321839,52.4329502 L26.9655172,49.1111111 C22.4712644,46.440613 19.3448276,41.9463602 18.4980843,36.8007663 L16.1532567,22.6015326 C15.3065134,17.5862069 16.2183908,12.440613 18.954023,8.14176245 C20.9731801,4.88505747 23.9042146,2.21455939 27.2911877,0.455938697 C20.5172414,1.10727969 14.6551724,4.95019157 11.2030651,10.4214559 C8.53256705,14.7203065 7.62068966,19.8659004 8.40229885,24.8812261 L10.7471264,39.0804598 C11.5938697,44.2260536 14.7203065,48.7203065 19.2145594,51.3908046 L24.8812261,54.7126437 C27.6168582,56.3409962 31.0689655,56.3409962 33.8045977,54.7126437 L35.7586207,53.5402299 C34.7816092,53.4099617 33.6743295,53.0191571 32.6321839,52.4329502 Z" id="Path" fill="#FFD3C5"></path>
                            <path d="M42.3371648,4.75478927 C42.3371648,4.75478927 30.4176245,15.6321839 30.4176245,15.6321839 C30.4176245,15.6321839 36.4750958,25.5977011 49.5670498,30.0268199 L50.4137931,24.9463602 C51.2605364,19.9310345 50.348659,14.7854406 47.6130268,10.48659 C46.2452107,8.27203065 44.4214559,6.31800766 42.3371648,4.75478927 Z" id="Path" fill="#C47641"></path>
                            <path d="M47.3524904,10.0306513 C45.9846743,8.01149425 44.2911877,6.18773946 42.3371648,4.75478927 C42.3371648,4.75478927 30.4176245,15.6321839 30.4176245,15.6321839 C30.4176245,15.6321839 32.9578544,19.7356322 38.2337165,23.9042146 C43.3141762,18.8888889 45.9846743,13.6781609 47.3524904,10.0306513 Z" id="Path" fill="#B26734"></path>
                            <path d="M42.3371648,4.75478927 C38.7547893,2.01915709 34.2605364,0.455938697 29.440613,0.455938697 C21.7547893,0.455938697 15.045977,4.49425287 11.2681992,10.5517241 C8.59770115,14.8505747 7.68582375,19.9961686 8.46743295,25.0114943 L9.31417625,30.091954 C38.6896552,26.1187739 42.3371648,4.88505747 42.3371648,4.75478927 Z" id="Path" fill="#D68650"></path>
                            <path d="M18.954023,8.07662835 C20.9731801,4.81992337 23.9042146,2.14942529 27.2911877,0.390804598 C20.5172414,1.04214559 14.6551724,4.88505747 11.2030651,10.3563218 C8.53256705,14.6551724 7.62068966,19.8007663 8.40229885,24.816092 L9.24904215,29.8965517 C12.1149425,29.5057471 14.6551724,28.9846743 17.0651341,28.3333333 L16.0881226,22.6015326 C15.3065134,17.5210728 16.2183908,12.3754789 18.954023,8.07662835 Z" id="Path" fill="#C47641"></path>
                            <path d="M14.5900383,58.816092 L11.0727969,61.2260536 C9.44444444,62.3333333 9.24904215,64.6781609 10.6819923,66.045977 L17.5862069,72.7547893 C18.7586207,73.9272031 20.6475096,73.9272031 21.8199234,72.8199234 L29.1149425,66.3065134 L18.6283525,58.8812261 C17.4559387,57.9693487 15.8275862,57.9693487 14.5900383,58.816092 Z" id="Path" fill="#FFFFFF"></path>
                            <path d="M43.7701149,58.816092 L47.2222222,61.2260536 C48.8505747,62.3333333 49.045977,64.6781609 47.6130268,66.045977 L40.7088123,72.7547893 C39.5363985,73.9272031 37.6475096,73.9272031 36.4750958,72.8199234 L29.1800766,66.3065134 L39.6666667,58.8812261 C40.9042146,57.9693487 42.532567,57.9693487 43.7701149,58.816092 Z" id="Path" fill="#FFFFFF"></path>
                        </g>
                        <g id="stroke">
                            <path d="M18.8888889,26.7049808 C19.3448276,26.183908 19.8007663,25.6628352 20.256705,25.1417625" id="Path" stroke="#0F222E" stroke-linecap="round"></path>
                            <path d="M24.164751,21.1685824 C35.2375479,10.8773946 50.0881226,4.55938697 66.3065134,4.55938697 C100.436782,4.55938697 128.183908,32.3065134 128.183908,66.4367816 C128.183908,100.56705 100.436782,128.314176 66.3065134,128.314176 C32.1762452,128.314176 4.42911877,100.56705 4.42911877,66.4367816 C4.42911877,53.3448276 8.53256705,41.164751 15.5019157,31.1992337" id="Path" stroke="#0F222E" stroke-width="2" stroke-linecap="round"></path>
                            <circle id="Oval" stroke="#0F222E" stroke-width="2" cx="66.3065134" cy="66.4367816" r="56.1455939"></circle>
                            <line x1="66.5670498" y1="0.325670498" x2="66.5670498" y2="14.5900383" id="Path" stroke="#2C333E" stroke-width="2" stroke-linecap="round"></line>
                            <line x1="66.3065134" y1="118.544061" x2="66.3065134" y2="132.808429" id="Path" stroke="#2C333E" stroke-width="2" stroke-linecap="round"></line>
                            <line x1="132.547893" y1="66.5670498" x2="118.283525" y2="66.5670498" id="Path" stroke="#2C333E" stroke-width="2" stroke-linecap="round"></line>
                            <line x1="14.5900383" y1="66.3065134" x2="0.325670498" y2="66.3065134" id="Path" stroke="#2C333E" stroke-width="2" stroke-linecap="round"></line>
                            <path d="M51.7816092,50.5440613 C76.2720307,44.9425287 79.4636015,26.3793103 79.4636015,26.2490421 C75.8812261,23.51341 71.3869732,21.9501916 66.5670498,21.9501916 C58.8812261,21.9501916 52.1724138,25.9885057 48.394636,32.045977 C45.7241379,36.3448276 44.8122605,41.4904215 45.5938697,46.5057471 L46.440613,51.5862069" id="Path" stroke="#0F222E" stroke-width="2" stroke-linecap="round"></path>
                            <path d="M46.440613,51.4559387 L47.9386973,60.5747126 C48.7854406,65.7203065 51.9118774,70.2145594 56.4061303,72.8850575 L62.0727969,76.2068966 C64.8084291,77.835249 68.2605364,77.835249 70.9961686,76.2068966 L76.6628352,72.8850575 C81.1570881,70.2145594 84.2835249,65.7203065 85.1302682,60.5747126 L87.4750958,46.3754789 C88.3218391,41.3601533 87.4099617,36.2145594 84.6743295,31.9157088 C83.3065134,29.7011494 81.4827586,27.7471264 79.3984674,26.183908" id="Path" stroke="#0F222E" stroke-width="2"></path>
                            <path d="M70.4750958,40.8390805 C73.4712644,44.1609195 78.8122605,48.7854406 86.6934866,51.4559387" id="Path" stroke="#0F222E" stroke-width="2"></path>
                            <path d="M48.0689655,61.2911877 C47.5478927,61.4214559 46.9616858,61.48659 46.3754789,61.4214559 C43.6398467,61.1609195 41.5555556,58.7509579 41.816092,56.0153257 C42.0114943,53.605364 43.9003831,51.7164751 46.2452107,51.4559387" id="Path" stroke="#0F222E" stroke-width="2"></path>
                            <path d="M87.1494253,51.5210728 C89.4942529,51.9118774 91.3180077,53.9961686 91.3180077,56.4712644 C91.3180077,58.0344828 90.6015326,59.4022989 89.4942529,60.3141762" id="Path" stroke="#0F222E" stroke-width="2" stroke-linecap="round"></path>
                            <path d="M51.7164751,80.3103448 L48.1992337,82.7203065 C46.5708812,83.8275862 46.3754789,86.1724138 47.8084291,87.5402299 L54.7126437,94.2490421 C55.8850575,95.4214559 57.7739464,95.4214559 58.9463602,94.3141762 L66.2413793,87.8007663 L55.7547893,80.3754789 C54.5823755,79.4636015 52.954023,79.4636015 51.7164751,80.3103448 Z" id="Path" stroke="#0F222E" stroke-width="2"></path>
                            <path d="M79.0076628,93.1417625 L77.9003831,94.2490421 C76.7279693,95.4214559 74.8390805,95.4214559 73.6666667,94.3141762 L66.3716475,87.8007663 L76.8582375,80.3754789 C78.0957854,79.5287356 79.7241379,79.4636015 80.9616858,80.3754789 L84.4137931,82.7854406 C86.0421456,83.8927203 86.2375479,86.2375479 84.8045977,87.605364 L83.3716475,88.9731801" id="Path" stroke="#0F222E" stroke-width="2" stroke-linecap="round"></path>
                            <path d="M70.2145594,91.3831418 L67.9348659,94.5747126 C67.1532567,95.7471264 65.394636,95.7471264 64.6130268,94.5747126 L62.2681992,91.1877395" id="Path" stroke="#0F222E" stroke-width="2"></path>
                            <path d="M64.2873563,94.3141762 C62.9195402,95.9425287 61.2260536,98.9386973 60.9003831,104.084291" id="Path" stroke="#0F222E" stroke-width="2" stroke-linecap="round"></path>
                            <path d="M71.7126437,104.019157 C71.3218391,98.8735632 69.6934866,95.8773946 68.3256705,94.2490421" id="Path" stroke="#0F222E" stroke-width="2" stroke-linecap="round"></path>
                            <path d="M95.5517241,104.019157 L95.5517241,91.1226054 C95.5517241,88.0613027 93.4022989,85.4559387 90.4712644,84.8045977 L85.7816092,83.8275862" id="Path" stroke="#0F222E" stroke-width="2" stroke-linecap="round"></path>
                            <path d="M46.8965517,83.8275862 L42.2068966,84.8045977 C39.210728,85.4559387 37.1264368,88.0613027 37.1264368,91.1226054 L37.1264368,104.019157" id="Path" stroke="#0F222E" stroke-width="2" stroke-linecap="round"></path>
                            <polyline id="Path" stroke="#0F222E" stroke-width="2" stroke-linejoin="round" points="75.0344828 81.5478927 72.8850575 81.091954 72.8850575 75.0996169"></polyline>
                            <polyline id="Path" stroke="#0F222E" stroke-width="2" stroke-linejoin="round" points="59.7279693 74.8390805 59.7279693 81.091954 57.5785441 81.5478927"></polyline>
                        </g>
                    </g>
                </g>
            </g>
        </g>
    </g>
</svg>