<?xml version="1.0" encoding="UTF-8"?>
<svg width="220px" height="160px" viewBox="0 0 220 160" version="1.1" xmlns="http://www.w3.org/2000/svg" xmlns:xlink="http://www.w3.org/1999/xlink">
    <!-- Generator: Sketch 63.1 (92452) - https://sketch.com -->
    <title>feat-keyword</title>
    <desc>Created with Sketch.</desc>
    <g id="Resellers" stroke="none" stroke-width="1" fill="none" fill-rule="evenodd">
        <g id="Resellers/Features" transform="translate(-528.000000, -956.000000)">
            <g id="feat-keyword" transform="translate(528.000000, 956.000000)">
                <rect id="Rectangle" fill="#FFFFFF" x="0" y="0" width="220" height="160"></rect>
                <g id="Group-2" transform="translate(7.000000, 35.000000)">
                    <g id="sheens_2" stroke-linecap="round" transform="translate(24.324324, 35.810811)" stroke="#FFFFFF" stroke-width="2.7027027">
                        <line x1="33.5135135" y1="10.9459459" x2="0.202702703" y2="10.9459459" id="Stroke-10"></line>
                        <line x1="30.9459459" y1="0.743243243" x2="17.9054054" y2="0.743243243" id="Stroke-8"></line>
                        <line x1="11.8918919" y1="0.743243243" x2="9.86486486" y2="0.743243243" id="Path"></line>
                        <line x1="139.391892" y1="53.9189189" x2="148.108108" y2="53.9189189" id="Stroke-10_1_"></line>
                        <line x1="136.486486" y1="43.7837838" x2="159.797297" y2="43.7837838" id="Stroke-8_1_"></line>
                        <line x1="165.472973" y1="43.7837838" x2="169.324324" y2="43.7837838" id="Path"></line>
                    </g>
                    <g id="illustration" transform="translate(8.783784, 0.000000)">
                        <g id="fill">
                            <path d="M148.243243,104.054054 L70.4054054,104.054054 C66.6891892,104.054054 63.7162162,101.081081 63.7162162,97.3648649 L63.7162162,24.2567568 C63.7162162,20.5405405 66.6891892,17.5675676 70.4054054,17.5675676 L148.243243,17.5675676 C151.959459,17.5675676 154.932432,20.5405405 154.932432,24.2567568 L154.932432,97.3648649 C154.932432,101.081081 151.959459,104.054054 148.243243,104.054054 Z" id="Path" fill="#FFFFFF" fill-rule="nonzero"></path>
                            <path d="M108.918919,39.6621622 L86.6891892,40.5405405 L86.6891892,24.2567568 C86.6891892,20.5405405 89.6621622,17.5675676 93.3783784,17.5675676 L70.4054054,17.5675676 C66.6891892,17.5675676 63.7162162,20.5405405 63.7162162,24.2567568 L63.7162162,97.3648649 C63.7162162,101.081081 66.6891892,104.054054 70.4054054,104.054054 L93.3783784,104.054054 C89.6621622,104.054054 86.6891892,101.081081 86.6891892,97.3648649 L86.6891892,93.3108108 C86.6891892,89.3243243 88.8513514,85.6081081 92.3648649,83.7837838 C117.635135,70.4054054 108.918919,39.6621622 108.918919,39.6621622 Z" id="Path" fill="#DCEFF4" fill-rule="nonzero"></path>
                            <g id="Group" transform="translate(108.108108, 49.324324)" fill="#636363" fill-rule="nonzero">
                                <path d="M4.39189189,6.01351351 C4.39189189,6.08108108 4.25675676,6.14864865 4.18918919,6.14864865 C4.12162162,6.14864865 3.98648649,6.08108108 3.98648649,6.01351351 L3.17567568,2.97297297 L2.36486486,6.01351351 C2.36486486,6.08108108 2.22972973,6.14864865 2.16216216,6.14864865 C2.02702703,6.14864865 1.95945946,6.08108108 1.95945946,6.01351351 L0.337837838,0.405405405 C0.337837838,0.405405405 0.337837838,0.405405405 0.337837838,0.337837838 C0.337837838,0.202702703 0.472972973,0.135135135 0.540540541,0.135135135 C0.608108108,0.135135135 0.675675676,0.202702703 0.743243243,0.27027027 L2.16216216,5.40540541 L2.97297297,2.36486486 C2.97297297,2.22972973 3.10810811,2.22972973 3.17567568,2.22972973 C3.24324324,2.22972973 3.37837838,2.2972973 3.37837838,2.36486486 L4.25675676,5.40540541 L5.67567568,0.27027027 C5.67567568,0.202702703 5.81081081,0.135135135 5.87837838,0.135135135 C6.01351351,0.135135135 6.08108108,0.202702703 6.08108108,0.337837838 C6.08108108,0.337837838 6.08108108,0.337837838 6.08108108,0.405405405 L4.39189189,6.01351351 Z" id="Path"></path>
                                <path d="M6.75675676,4.45945946 L6.75675676,1.89189189 C6.75675676,0.675675676 7.43243243,0.202702703 8.37837838,0.202702703 C9.32432432,0.202702703 10,0.675675676 10,1.89189189 L10,4.45945946 C10,5.67567568 9.25675676,6.14864865 8.37837838,6.14864865 C7.5,6.21621622 6.75675676,5.74324324 6.75675676,4.45945946 Z M9.66216216,1.89189189 C9.66216216,1.01351351 9.18918919,0.608108108 8.44594595,0.608108108 C7.7027027,0.608108108 7.22972973,1.01351351 7.22972973,1.89189189 L7.22972973,4.45945946 C7.22972973,5.33783784 7.7027027,5.74324324 8.44594595,5.74324324 C9.18918919,5.74324324 9.66216216,5.33783784 9.66216216,4.45945946 L9.66216216,1.89189189 Z" id="Shape"></path>
                                <path d="M11.2837838,0.405405405 C11.2837838,0.337837838 11.3513514,0.202702703 11.4864865,0.202702703 L12.9054054,0.202702703 C13.8513514,0.202702703 14.5945946,0.608108108 14.5945946,1.75675676 C14.5945946,2.77027027 13.9864865,3.17567568 13.2432432,3.31081081 L14.527027,5.81081081 C14.527027,5.81081081 14.527027,5.87837838 14.527027,5.87837838 C14.527027,6.01351351 14.4594595,6.08108108 14.3243243,6.08108108 C14.2567568,6.08108108 14.1216216,5.94594595 14.0540541,5.81081081 L12.7702703,3.31081081 L11.6216216,3.31081081 L11.6216216,5.87837838 C11.6216216,6.01351351 11.5540541,6.08108108 11.4189189,6.08108108 C11.3513514,6.08108108 11.2162162,6.01351351 11.2162162,5.87837838 L11.2162162,0.405405405 L11.2837838,0.405405405 Z M11.6891892,0.608108108 L11.6891892,2.97297297 L12.8378378,2.97297297 C13.5810811,2.97297297 14.1216216,2.63513514 14.1216216,1.75675676 C14.1216216,0.878378378 13.5810811,0.540540541 12.8378378,0.540540541 L11.6891892,0.540540541 L11.6891892,0.608108108 Z" id="Shape"></path>
                                <path d="M17.0945946,0.202702703 C18.0405405,0.202702703 18.7162162,0.675675676 18.7162162,1.89189189 L18.7162162,4.39189189 C18.7162162,5.60810811 17.972973,6.08108108 17.0945946,6.08108108 L15.6756757,6.08108108 C15.5405405,6.08108108 15.472973,6.01351351 15.472973,5.87837838 L15.472973,0.27027027 C15.472973,0.202702703 15.5405405,0.0675675676 15.6756757,0.0675675676 L17.0945946,0.0675675676 L17.0945946,0.202702703 Z M15.8783784,0.608108108 L15.8783784,5.74324324 L17.0945946,5.74324324 C17.8378378,5.74324324 18.3108108,5.33783784 18.3108108,4.45945946 L18.3108108,1.95945946 C18.3108108,1.08108108 17.8378378,0.675675676 17.0945946,0.675675676 L15.8783784,0.675675676 L15.8783784,0.608108108 Z" id="Shape"></path>
                            </g>
                            <path d="M148.243243,17.5675676 L70.4054054,17.5675676 C66.6891892,17.5675676 63.7162162,20.5405405 63.7162162,24.2567568 L63.7162162,29.0540541 L154.932432,29.0540541 L154.932432,24.2567568 C154.932432,20.5405405 151.959459,17.5675676 148.243243,17.5675676 Z" id="Path" fill="#D3D3D3" fill-rule="nonzero"></path>
                            <path d="M13.1756757,106.554054 C9.7972973,109.256757 4.86486486,108.716216 2.16216216,105.337838 C-0.540540541,101.959459 -9.54791801e-15,97.027027 3.37837838,94.3243243 C6.75675676,91.6216216 49.3243243,58.6486486 53.6486486,64.0540541 C58.0405405,69.527027 16.5540541,103.918919 13.1756757,106.554054 Z" id="Path" fill="#FFF0A4" fill-rule="nonzero"></path>
                            <path d="M45,77.8378378 C51.1486486,71.4189189 55.2027027,66.0135135 53.7162162,64.0540541 C49.3918919,58.6486486 6.75675676,91.6216216 3.44594595,94.3243243 C0.743243243,96.4864865 -0.135135135,100.067568 1.01351351,103.175676 C22.7027027,84.1891892 37.8378378,79.1891892 45,77.8378378 Z" id="Path" fill="#FFD05C" fill-rule="nonzero"></path>
                            <path d="M48.4459459,71.4864865 L45.2702703,67.5675676 C42.972973,64.7297297 43.4459459,60.5405405 46.2837838,58.3108108 L53.3108108,52.6351351 L64.7297297,66.8918919 L57.7027027,72.5675676 C54.9324324,74.7972973 50.7432432,74.3243243 48.4459459,71.4864865 Z" id="Path" fill="#75D4EA" fill-rule="nonzero"></path>
                            <path d="M51.2162162,64.3918919 L58.2432432,58.7162162 L53.3783784,52.6351351 L46.3513514,58.3108108 C43.5135135,60.6081081 43.0405405,64.7297297 45.3378378,67.5675676 L48.5135135,71.4864865 C48.7837838,71.8918919 49.1216216,72.1621622 49.527027,72.5 C48.1081081,69.7972973 48.7837838,66.4189189 51.2162162,64.3918919 Z" id="Path" fill="#4BB8D1" fill-rule="nonzero"></path>
                            <circle id="Oval" fill="#FFF0A4" fill-rule="nonzero" transform="translate(78.109027, 44.584797) rotate(-38.683074) translate(-78.109027, -44.584797) " cx="78.109027" cy="44.5847973" r="31.2831794"></circle>
                            <path d="M59.1216216,59.7972973 C50.7432432,49.3243243 52.4324324,33.9864865 62.9054054,25.6081081 C73.3783784,17.2297297 88.7162162,18.9189189 97.0945946,29.3918919 C105.472973,39.8648649 103.783784,55.2027027 93.3108108,63.5810811 C82.8378378,71.9594595 67.5,70.2702703 59.1216216,59.7972973 Z" id="Path" fill="#A4EAFF" fill-rule="nonzero"></path>
                            <path d="M68.5810811,32.7027027 C77.8378378,25.2702703 90.8783784,25.7432432 99.5945946,33.1756757 C98.9189189,31.8243243 98.0405405,30.5405405 97.0945946,29.3243243 C88.7162162,18.8513514 73.3783784,17.1621622 62.9054054,25.5405405 C52.4324324,33.9189189 50.7432432,49.2567568 59.1216216,59.7297297 C60.0675676,60.9459459 61.1486486,62.027027 62.2972973,63.0405405 C56.9594595,52.972973 59.3243243,40.1351351 68.5810811,32.7027027 Z" id="Path" fill="#75D4EA" fill-rule="nonzero"></path>
                            <g id="Group" transform="translate(70.270270, 40.540541)" fill="#474747" fill-rule="nonzero">
                                <path d="M0.675675676,0.743243243 C0.675675676,0.405405405 1.01351351,0.27027027 1.35135135,0.27027027 C1.68918919,0.27027027 2.02702703,0.405405405 2.02702703,0.743243243 L2.02702703,6.08108108 L6.35135135,0.405405405 C6.41891892,0.27027027 6.62162162,0.202702703 6.75675676,0.202702703 C7.09459459,0.202702703 7.56756757,0.540540541 7.56756757,0.878378378 C7.56756757,0.945945946 7.56756757,1.08108108 7.43243243,1.14864865 L4.12162162,5.27027027 L7.97297297,11.0810811 C8.04054054,11.1486486 8.04054054,11.2162162 8.04054054,11.3513514 C8.04054054,11.6891892 7.63513514,12.027027 7.22972973,12.027027 C7.02702703,12.027027 6.82432432,11.9594595 6.75675676,11.7567568 L3.17567568,6.41891892 L1.95945946,7.90540541 L1.95945946,11.4864865 C1.95945946,11.8243243 1.62162162,11.9594595 1.28378378,11.9594595 C0.945945946,11.9594595 0.608108108,11.8243243 0.608108108,11.4864865 L0.608108108,0.743243243 L0.675675676,0.743243243 Z" id="Path"></path>
                                <path d="M10.6081081,5.60810811 L13.1081081,5.60810811 C13.3783784,5.60810811 13.5810811,5.87837838 13.5810811,6.21621622 C13.5810811,6.48648649 13.4459459,6.75675676 13.1081081,6.75675676 L10.6081081,6.75675676 L10.6081081,10.8783784 L15.6081081,10.8783784 C15.8783784,10.8783784 16.0810811,11.1486486 16.0810811,11.4864865 C16.0810811,11.7567568 15.9459459,12.0945946 15.6081081,12.0945946 L9.86486486,12.0945946 C9.52702703,12.0945946 9.25675676,11.9594595 9.25675676,11.6216216 L9.25675676,0.743243243 C9.25675676,0.405405405 9.59459459,0.27027027 9.86486486,0.27027027 L15.6081081,0.27027027 C15.9459459,0.27027027 16.0810811,0.608108108 16.0810811,0.878378378 C16.0810811,1.21621622 15.8783784,1.48648649 15.6081081,1.48648649 L10.6081081,1.48648649 L10.6081081,5.60810811 Z" id="Path"></path>
                                <path d="M20.2027027,7.5 C20.2027027,7.43243243 20.2027027,7.36486486 20.1351351,7.36486486 L16.7567568,1.08108108 C16.6891892,0.945945946 16.6891892,0.878378378 16.6891892,0.810810811 C16.6891892,0.472972973 17.1621622,0.27027027 17.5,0.27027027 C17.7027027,0.27027027 17.8378378,0.405405405 17.972973,0.608108108 L20.8108108,6.14864865 L23.6486486,0.608108108 C23.7837838,0.337837838 23.9189189,0.27027027 24.1216216,0.27027027 C24.4594595,0.27027027 24.9324324,0.472972973 24.9324324,0.810810811 C24.9324324,0.878378378 24.9324324,0.945945946 24.8648649,1.08108108 L21.4864865,7.36486486 C21.4864865,7.43243243 21.4864865,7.43243243 21.4864865,7.5 L21.4864865,11.6216216 C21.4864865,11.9594595 21.1486486,12.0945946 20.8108108,12.0945946 C20.472973,12.0945946 20.1351351,11.9594595 20.1351351,11.6216216 L20.1351351,7.5 L20.2027027,7.5 Z" id="Path"></path>
                            </g>
                            <path d="M79.8648649,62.027027 C79.2567568,62.0945946 78.7162162,62.0945946 78.1081081,62.0945946" id="Path" stroke="#FFFFFF" stroke-width="2.7027027" stroke-linecap="round"></path>
                            <path d="M72.7702703,61.2837838 C69.527027,60.2702703 66.5540541,58.2432432 64.3918919,55.5405405" id="Path" stroke="#FFFFFF" stroke-width="2.7027027" stroke-linecap="round"></path>
                        </g>
                        <g id="stroke" transform="translate(0.000000, 12.837838)" stroke="#0F222E" stroke-width="2.7027027">
                            <line x1="97.8378378" y1="56.0810811" x2="131.216216" y2="56.0810811" id="Path" stroke-linecap="round"></line>
                            <line x1="87.5" y1="62.972973" x2="131.216216" y2="62.972973" id="Path" stroke-linecap="round"></line>
                            <line x1="87.5" y1="69.9324324" x2="131.216216" y2="69.9324324" id="Path" stroke-linecap="round"></line>
                            <line x1="87.5" y1="76.8918919" x2="110.202703" y2="76.8918919" id="Path" stroke-linecap="round"></line>
                            <path d="M57.6351351,8.10810811 C57.9054054,7.83783784 58.2432432,7.56756757 58.5135135,7.36486486" id="Path" stroke-linecap="round"></path>
                            <path d="M62.7702703,4.52702703 C75.8783784,-2.83783784 92.7702703,0.135135135 102.5,12.2297297 C113.310811,25.6756757 111.081081,45.4054054 97.6351351,56.1486486 C84.1891892,66.8918919 64.4594595,64.7297297 53.7162162,51.2837838 C44.1891892,39.3918919 44.7972973,22.7027027 54.2567568,11.4864865" id="Path" stroke-linecap="round"></path>
                            <path d="M59.1216216,46.9594595 C50.7432432,36.4864865 52.4324324,21.1486486 62.9054054,12.7702703 C73.3783784,4.39189189 88.7162162,6.08108108 97.0945946,16.5540541 C105.472973,27.027027 103.783784,42.3648649 93.3108108,50.7432432 C82.8378378,59.1216216 67.5,57.4324324 59.1216216,46.9594595 Z" id="Path"></path>
                            <path d="M60.4054054,57.5675676 L57.7027027,59.7297297 C54.8648649,62.027027 50.6756757,61.5540541 48.4459459,58.7162162 L45.2702703,54.7972973 C42.972973,51.9594595 43.4459459,47.7702703 46.2837838,45.5405405 L48.9864865,43.3783784" id="Path"></path>
                            <path d="M49.6621622,59.7972973 C39.6621622,71.8918919 15.6756757,91.6891892 13.1756757,93.7162162 C9.7972973,96.4189189 4.86486486,95.8783784 2.16216216,92.5 C-0.540540541,89.1216216 -9.54791801e-15,84.1891892 3.37837838,81.4864865 C5.67567568,79.6621622 26.2162162,63.7162162 40.472973,55.472973" id="Path" stroke-linecap="round"></path>
                            <path d="M93.3783784,4.72972973 L148.243243,4.72972973 C151.959459,4.72972973 154.932432,7.7027027 154.932432,11.4189189 L154.932432,84.527027 C154.932432,88.2432432 151.959459,91.2162162 148.243243,91.2162162 L70.4054054,91.2162162 C66.6891892,91.2162162 63.7162162,88.2432432 63.7162162,84.527027 L63.7162162,59.6621622" id="Path"></path>
                            <line x1="105.202703" y1="16.2162162" x2="146.486486" y2="16.2162162" id="Path" stroke-linecap="round"></line>
                        </g>
                    </g>
                    <g id="sheens_1" transform="translate(0.000000, 34.459459)" stroke="#FFFFFF" stroke-width="1.35135135">
                        <path d="M21.6216216,32.8378378 C21.6216216,33.7162162 20.9459459,34.3918919 20.0675676,34.3918919 C19.1891892,34.3918919 18.5135135,33.7162162 18.5135135,32.8378378 C18.5135135,31.9594595 19.1891892,31.2837838 20.0675676,31.2837838 C20.9459459,31.2837838 21.6216216,31.9594595 21.6216216,32.8378378 Z" id="Stroke-2_1_"></path>
                        <path d="M199.932432,2.09459459 C199.932432,2.97297297 199.256757,3.64864865 198.378378,3.64864865 C197.5,3.64864865 196.824324,2.97297297 196.824324,2.09459459 C196.824324,1.21621622 197.5,0.540540541 198.378378,0.540540541 C199.256757,0.540540541 199.932432,1.28378378 199.932432,2.09459459 Z" id="Stroke-4_1_"></path>
                        <g id="Group" stroke-linecap="round" transform="translate(0.000000, 10.810811)">
                            <line x1="3.37837838" y1="0.27027027" x2="3.37837838" y2="1.48648649" id="Stroke-6_1_"></line>
                            <line x1="3.37837838" y1="5.13513514" x2="3.37837838" y2="6.35135135" id="Stroke-8_2_"></line>
                            <line x1="6.41891892" y1="3.31081081" x2="5.2027027" y2="3.31081081" id="Stroke-10_2_"></line>
                            <line x1="1.48648649" y1="3.31081081" x2="0.27027027" y2="3.31081081" id="Stroke-12_1_"></line>
                        </g>
                        <g id="Group" stroke-linecap="round" transform="translate(177.702703, 20.945946)">
                            <line x1="3.37837838" y1="0" x2="3.37837838" y2="1.21621622" id="Stroke-14_1_"></line>
                            <line x1="3.37837838" y1="4.86486486" x2="3.37837838" y2="6.08108108" id="Stroke-16_1_"></line>
                            <line x1="6.41891892" y1="3.04054054" x2="5.2027027" y2="3.04054054" id="Stroke-18_1_"></line>
                            <line x1="1.55405405" y1="3.04054054" x2="0.337837838" y2="3.04054054" id="Stroke-20_1_"></line>
                        </g>
                    </g>
                </g>
            </g>
        </g>
    </g>
</svg>