<?xml version="1.0" encoding="UTF-8"?>
<svg width="222px" height="160px" viewBox="0 0 222 160" version="1.1" xmlns="http://www.w3.org/2000/svg" xmlns:xlink="http://www.w3.org/1999/xlink">
    <!-- Generator: Sketch 63.1 (92452) - https://sketch.com -->
    <title>feat-instructions</title>
    <desc>Created with Sketch.</desc>
    <g id="Resellers" stroke="none" stroke-width="1" fill="none" fill-rule="evenodd">
        <g id="Resellers/Features" transform="translate(-525.000000, -549.000000)">
            <g id="feat-instructions" transform="translate(526.000000, 549.000000)">
                <rect id="Rectangle" fill="#FFFFFF" x="0" y="0" width="220" height="160"></rect>
                <g id="Group" transform="translate(0.000000, 23.000000)">
                    <g id="sheens_2" stroke-linecap="round" transform="translate(0.000000, 14.069767)" stroke="#FFFFFF" stroke-width="2.55813953">
                        <path d="M90.3023256,24.3662791 C85.377907,24.3662791 85.377907,17.9709302 80.4534884,17.9709302 C75.5290698,17.9709302 75.5290698,24.3662791 70.6046512,24.3662791 C65.6802326,24.3662791 65.6802326,17.9709302 60.755814,17.9709302 C55.8313953,17.9709302 55.8313953,24.3662791 50.9069767,24.3662791 C45.9825581,24.3662791 45.9825581,17.9709302 41.0581395,17.9709302 L29.0988372,17.9709302" id="Stroke-2"></path>
                        <path d="M219.616279,0.127906977 C214.69186,0.127906977 214.69186,6.52325581 209.767442,6.52325581 C204.843023,6.52325581 204.843023,0.127906977 199.918605,0.127906977 C196.72093,0.127906977 195.633721,2.81395349 193.843023,4.73255814" id="Stroke-4"></path>
                        <path d="M136.348837,100.023256 C141.273256,100.023256 141.273256,93.627907 146.197674,93.627907 C151.122093,93.627907 151.122093,100.023256 156.046512,100.023256 C160.97093,100.023256 160.97093,93.627907 165.895349,93.627907 C170.819767,93.627907 170.819767,100.023256 175.744186,100.023256 C180.668605,100.023256 180.668605,93.627907 185.593023,93.627907 L192.5,93.627907" id="Stroke-6"></path>
                        <line x1="84.6744186" y1="43.4883721" x2="62.4825581" y2="43.4883721" id="Stroke-8"></line>
                        <line x1="82.5" y1="53.0813953" x2="39.5872093" y2="53.0813953" id="Stroke-10"></line>
                        <line x1="22.7034884" y1="94.5872093" x2="0.511627907" y2="94.5872093" id="Stroke-12"></line>
                        <line x1="33.4476744" y1="104.244186" x2="13.877907" y2="104.244186" id="Stroke-14"></line>
                        <line x1="40.9302326" y1="104.244186" x2="39.5232558" y2="104.244186" id="Stroke-16"></line>
                        <line x1="56.7906977" y1="104.244186" x2="46.877907" y2="104.244186" id="Stroke-18"></line>
                        <line x1="32.744186" y1="53.0813953" x2="24.5581395" y2="53.0813953" id="Stroke-20"></line>
                        <line x1="198.255814" y1="93.627907" x2="203.5" y2="93.627907" id="Stroke-22"></line>
                    </g>
                    <g id="illustration" transform="translate(67.151163, 0.000000)">
                        <g id="fill">
                            <path d="M78.5348837,12.3430233 C77.6395349,14.6453488 75.0174419,15.7325581 72.7151163,14.8372093 C70.4127907,13.9418605 69.3255814,11.3197674 70.2209302,9.01744186 C71.1162791,6.71511628 73.7383721,5.62790698 76.0406977,6.52325581 C78.3430233,7.41860465 79.494186,10.0406977 78.5348837,12.3430233" id="Fill-2" fill="#CECECE" fill-rule="nonzero"></path>
                            <path d="M77.4476744,7.41860465 C77.0639535,7.03488372 76.5523256,6.71511628 76.0406977,6.52325581 C73.7383721,5.62790698 71.1162791,6.71511628 70.2209302,9.01744186 C69.3255814,11.3197674 70.4127907,13.9418605 72.7151163,14.8372093 C72.7790698,14.8372093 72.7790698,14.8372093 72.8430233,14.9011628 C74.122093,10.9360465 75.8488372,8.69767442 77.4476744,7.41860465" id="Fill-4" fill="#C1C1C1" fill-rule="nonzero"></path>
                            <path d="M64.9127907,123.302326 C67.4709302,124.325581 70.4127907,123.046512 71.4360465,120.488372 L106.930233,31.8488372 C107.953488,29.2906977 106.674419,26.3488372 104.116279,25.3255814 L42.7848837,0.76744186 C40.2267442,-0.255813953 37.2848837,1.02325581 36.2616279,3.58139535 L0.76744186,92.2209302 C-0.255813953,94.7790698 1.02325581,97.7209302 3.58139535,98.744186 L64.9127907,123.302326 Z" id="Fill-6" fill="#C69263" fill-rule="nonzero"></path>
                            <path d="M50.8430233,4.02906977 L42.7848837,0.76744186 C40.2267442,-0.255813953 37.2848837,1.02325581 36.2616279,3.58139535 L0.76744186,92.2209302 C-0.255813953,94.7790698 1.02325581,97.7209302 3.58139535,98.744186 L34.0232558,110.895349 C30.1860465,72.4593023 45.5988372,20.3372093 50.8430233,4.02906977" id="Fill-8" fill="#B27A4D" fill-rule="nonzero"></path>
                            <path d="M7.99418605,91.3895349 L40.8662791,9.14534884 C41.3139535,8.05813953 42.5290698,7.54651163 43.6162791,7.99418605 L98.4883721,29.994186 C99.5755814,30.4418605 100.087209,31.6569767 99.6395349,32.744186 L66.7674419,114.924419 C66.3197674,116.011628 65.1046512,116.523256 64.0174419,116.075581 L9.14534884,94.1395349 C8.12209302,93.6918605 7.54651163,92.4767442 7.99418605,91.3895349" id="Fill-10" fill="#FFFFFF" fill-rule="nonzero"></path>
                            <path d="M48.9883721,10.1686047 L43.6802326,8.05813953 C42.5930233,7.61046512 41.377907,8.12209302 40.9302326,9.20930233 L7.99418605,91.3895349 C7.54651163,92.4767442 8.05813953,93.6918605 9.14534884,94.1395349 L33.4476744,103.860465 C32.1686047,70.4127907 43.0406977,29.5465116 48.9883721,10.1686047" id="Fill-12" fill="#D3F0F4" fill-rule="nonzero"></path>
                            <path d="M79.6860465,26.5406977 L59.6046512,18.5465116 C58.5813953,18.1627907 58.0697674,16.9476744 58.5174419,15.9244186 L61.7790698,7.73837209 C62.1627907,6.71511628 63.377907,6.20348837 64.4011628,6.65116279 L84.4186047,14.7093023 C85.4418605,15.0930233 85.9534884,16.3081395 85.505814,17.3313953 L82.244186,25.5174419 C81.8604651,26.4767442 80.7093023,26.9883721 79.6860465,26.5406977" id="Fill-14" fill="#E0E0E0" fill-rule="nonzero"></path>
                            <path d="M64.1453488,18.2267442 L67.4069767,10.0406977 C67.7906977,9.01744186 69.005814,8.50581395 70.0290698,8.95348837 L64.4011628,6.71511628 C63.377907,6.33139535 62.2267442,6.77906977 61.7790698,7.80232558 L58.5174419,15.9883721 C58.1337209,17.0116279 58.5813953,18.1627907 59.6046512,18.6104651 L65.2325581,20.8488372 C64.2093023,20.4011628 63.7616279,19.25 64.1453488,18.2267442" id="Fill-16" fill="#CECECE" fill-rule="nonzero"></path>
                            <path d="M77.5755814,46.6860465 L77.4476744,56.8546512 C77.4476744,57.622093 77.6395349,58.3255814 77.9593023,58.9651163 L97.6569767,96.7616279 L107.186047,91.7732558 L87.4883721,53.9767442 C87.1686047,53.3372093 86.6569767,52.7616279 86.0174419,52.3139535 L77.5755814,46.6860465 Z" id="Fill-18" fill="#FFDCBD" fill-rule="nonzero"></path>
                            <path d="M83.2034884,57.5581395 C83.2034884,57.5581395 80.9011628,53.6569767 81.4127907,49.3081395 L77.5755814,46.6860465 L77.4476744,56.8546512 C77.4476744,57.622093 77.6395349,58.3255814 77.9593023,58.9651163 L97.6569767,96.7616279 L102.389535,94.2674419 L83.2034884,57.5581395 Z" id="Fill-20" fill="#FFCFAB" fill-rule="nonzero"></path>
                            <path d="M107.25,100.598837 L104.819767,101.877907 C102.837209,102.901163 100.406977,102.133721 99.4476744,100.151163 L98.6802326,98.6162791 C97.6569767,96.6337209 98.4244186,94.2034884 100.406977,93.244186 L102.837209,91.9651163 C104.819767,90.9418605 107.25,91.7093023 108.209302,93.6918605 L108.976744,95.2267442 C110,97.1453488 109.232558,99.5755814 107.25,100.598837" id="Fill-22" fill="#FFC0C0" fill-rule="nonzero"></path>
                            <path d="M103.604651,97.9767442 L102.837209,96.4418605 C102.005814,94.7790698 102.389535,92.7965116 103.732558,91.6453488 C103.412791,91.7093023 103.093023,91.8372093 102.773256,91.9651163 L100.343023,93.244186 C98.3604651,94.2674419 97.5930233,96.6976744 98.6162791,98.6162791 L99.3837209,100.151163 C100.406977,102.133721 102.837209,102.901163 104.755814,101.877907 L107.186047,100.598837 C107.505814,100.47093 107.761628,100.215116 108.017442,100.023256 C106.354651,100.47093 104.436047,99.6395349 103.604651,97.9767442" id="Fill-24" fill="#FFAEAE" fill-rule="nonzero"></path>
                            <path d="M87.4883721,54.0406977 C87.1686047,53.4011628 86.6569767,52.8255814 86.0174419,52.377907 L84.994186,51.6744186 L83.2674419,57.5581395 L77.4476744,55.5755814 L77.4476744,56.8546512 C77.4476744,57.622093 77.6395349,58.3255814 77.9593023,58.9651163 L97.6569767,96.7616279 L107.186047,91.7732558 L87.4883721,54.0406977 Z" id="Fill-26" fill="#FFF4B6" fill-rule="nonzero"></path>
                            <path d="M108.656977,95.0348837 L99.4476744,99.8313953 C98.6162791,100.27907 97.5290698,99.9593023 97.0813953,99.0639535 C96.6337209,98.2325581 96.9534884,97.1453488 97.8488372,96.6976744 L107.05814,91.9011628 C107.889535,91.4534884 108.976744,91.7732558 109.424419,92.6686047 C109.80814,93.5 109.488372,94.5872093 108.656977,95.0348837" id="Fill-28" fill="#C4C4C4" fill-rule="nonzero"></path>
                            <path d="M101.813953,96.5697674 C101.366279,95.6744186 101.686047,94.6511628 102.581395,94.2034884 L97.7848837,96.6976744 C96.9534884,97.1453488 96.5697674,98.2325581 97.0174419,99.0639535 C97.4651163,99.8953488 98.5523256,100.27907 99.3837209,99.8313953 L104.180233,97.3372093 C103.348837,97.7848837 102.261628,97.4651163 101.813953,96.5697674" id="Fill-30" fill="#B7B7B7" fill-rule="nonzero"></path>
                            <path d="M83.2674419,57.5581395 L77.4476744,55.5755814 L77.4476744,56.8546512 C77.4476744,57.622093 77.6395349,58.3255814 77.9593023,58.9651163 L97.6569767,96.7616279 L102.389535,94.2674419 L83.2674419,57.5581395 Z" id="Fill-32" fill="#FFED92" fill-rule="nonzero"></path>
                            <polygon id="Fill-34" fill="#727272" fill-rule="nonzero" points="104.436047 93.1802326 100.343023 95.3546512 80.1337209 56.4709302 83.2674419 57.5581395 84.2267442 54.3604651"></polygon>
                            <polygon id="Fill-36" fill="#5E5E5E" fill-rule="nonzero" points="83.2034884 57.5581395 80.1337209 56.4709302 100.343023 95.3546512 102.389535 94.2674419"></polygon>
                            <polygon id="Fill-38" fill="#727272" fill-rule="nonzero" points="77.5116279 52.8255814 82.6918605 50.1395349 77.5755814 46.6860465"></polygon>
                            <path d="M77.5755814,46.6860465 L77.5116279,52.8895349 L81.3488372,50.9069767 C81.3488372,50.3953488 81.3488372,49.8197674 81.4127907,49.3081395 L77.5755814,46.6860465 Z" id="Fill-40" fill="#5E5E5E" fill-rule="nonzero"></path>
                            <line x1="70.4127907" y1="13.877907" x2="80.1337209" y2="17.7790698" id="Stroke-42" stroke="#FFFFFF" stroke-width="2.55813953" stroke-linecap="round" stroke-linejoin="round"></line>
                            <polyline id="Stroke-44" stroke="#C2EEF2" stroke-width="2.55813953" stroke-linecap="round" stroke-linejoin="round" points="67.2151163 100.023256 63.1860465 110.19186 47.2616279 103.860465"></polyline>
                        </g>
                        <g id="stroke" stroke-linejoin="round" stroke="#0F222E" stroke-width="2.55813953">
                            <path d="M79.6860465,26.5406977 L59.6046512,18.5465116 C58.5813953,18.1627907 58.0697674,16.9476744 58.5174419,15.9244186 L61.7790698,7.73837209 C62.1627907,6.71511628 63.377907,6.20348837 64.4011628,6.65116279 L84.4186047,14.7093023 C85.4418605,15.0930233 85.9534884,16.3081395 85.505814,17.3313953 L82.244186,25.5174419 C81.8604651,26.4767442 80.7093023,26.9883721 79.6860465,26.5406977 Z" id="Stroke-11" stroke-linecap="round"></path>
                            <path d="M77.5755814,46.6860465 L77.4476744,56.8546512 C77.4476744,57.622093 77.6395349,58.3255814 77.9593023,58.9651163 L97.6569767,96.7616279 L107.186047,91.7732558 L87.4883721,53.9767442 C87.1686047,53.3372093 86.6569767,52.7616279 86.0174419,52.3139535 L77.5755814,46.6860465 Z" id="Stroke-13" stroke-linecap="round"></path>
                            <path d="M108.656977,95.0348837 L99.4476744,99.8313953 C98.6162791,100.27907 97.5290698,99.9593023 97.0813953,99.0639535 C96.6337209,98.2325581 96.9534884,97.1453488 97.8488372,96.6976744 L107.05814,91.9011628 C107.889535,91.4534884 108.976744,91.7732558 109.424419,92.6686047 C109.80814,93.5 109.488372,94.5872093 108.656977,95.0348837 Z" id="Stroke-15" stroke-linecap="round"></path>
                            <path d="M107.25,100.598837 L104.819767,101.877907 C102.837209,102.901163 100.406977,102.133721 99.4476744,100.151163" id="Stroke-17" stroke-linecap="round"></path>
                            <path d="M82.9476744,23.7267442 L98.4883721,29.9302326 C99.5755814,30.377907 100.087209,31.5930233 99.6395349,32.6802326 L89.7267442,57.494186" id="Stroke-19" stroke-linecap="round"></path>
                            <path d="M15.3488372,73.0348837 L40.8662791,9.20930233 C41.3139535,8.12209302 42.5290698,7.61046512 43.6162791,8.05813953 L58.9011628,14.1337209" id="Stroke-21" stroke-linecap="round"></path>
                            <line x1="13.494186" y1="77.5755814" x2="13.8139535" y2="76.8081395" id="Stroke-23" stroke-linecap="round"></line>
                            <path d="M84.0988372,71.6918605 L66.8313953,114.860465 C66.3837209,115.947674 65.1686047,116.459302 64.0813953,116.011628 L9.20930233,94.0755814 C8.12209302,93.627907 7.61046512,92.4127907 8.05813953,91.3255814 L12.0232558,81.4127907" id="Stroke-25" stroke-linecap="round"></path>
                            <path d="M70.2209302,9.01744186 C71.1162791,6.71511628 73.7383721,5.62790698 76.0406977,6.52325581 C76.8081395,6.84302326 77.4476744,7.35465116 77.8953488,7.93023256" id="Stroke-27" stroke-linecap="round"></path>
                            <path d="M61.3313953,8.18604651 L42.7848837,0.76744186 C40.2267442,-0.255813953 37.2848837,1.02325581 36.2616279,3.58139535 L0.76744186,92.2209302 C-0.255813953,94.7790698 1.02325581,97.7209302 3.58139535,98.744186 L64.9127907,123.302326 C67.4709302,124.325581 70.4127907,123.046512 71.4360465,120.488372 L86.5930233,82.627907" id="Stroke-29" stroke-linecap="round"></path>
                            <path d="M93.5639535,65.1046512 L106.866279,31.7848837 C107.889535,29.2267442 106.610465,26.2848837 104.052326,25.2616279 L85.25,17.7151163" id="Stroke-31" stroke-linecap="round"></path>
                            <polyline id="Stroke-33" stroke-linecap="round" points="84.994186 51.6744186 84.994186 51.6744186 83.2674419 57.5581395 77.4476744 55.5755814"></polyline>
                            <line x1="77.5116279" y1="52.8255814" x2="82.6918605" y2="50.1395349" id="Stroke-35" stroke-linecap="round"></line>
                            <polygon id="Stroke-2_2_" points="46.3023256 31.7848837 40.3546512 29.4186047 42.7209302 23.4709302 48.6686047 25.9011628"></polygon>
                            <line x1="52.5697674" y1="28.1395349" x2="88.255814" y2="42.4011628" id="Stroke-3" stroke-linecap="round"></line>
                            <line x1="50.7151163" y1="32.872093" x2="67.9186047" y2="39.7790698" id="Stroke-4_2_" stroke-linecap="round"></line>
                            <polygon id="Stroke-5" points="40.6104651 46.0465116 34.6627907 43.6802326 37.0290698 37.7325581 42.9767442 40.0988372"></polygon>
                            <line x1="46.877907" y1="42.4011628" x2="82.5" y2="56.6627907" id="Stroke-6_2_" stroke-linecap="round"></line>
                            <line x1="45.0232558" y1="47.1337209" x2="71.1162791" y2="57.5581395" id="Stroke-7" stroke-linecap="round"></line>
                            <polygon id="Stroke-8_2_" points="34.9186047 60.3081395 28.9709302 57.9418605 31.3372093 51.994186 37.2848837 54.3604651"></polygon>
                            <line x1="41.1860465" y1="56.6627907" x2="76.8081395" y2="70.9244186" id="Stroke-9" stroke-linecap="round"></line>
                            <line x1="39.2674419" y1="61.3953488" x2="49.372093" y2="65.4244186" id="Stroke-10_2_" stroke-linecap="round"></line>
                        </g>
                    </g>
                    <g id="sheens_1" transform="translate(14.069767, 47.965116)" stroke="#FFFFFF" stroke-width="1.27906977">
                        <path d="M2.94186047,1.53488372 C2.94186047,2.36627907 2.30232558,3.00581395 1.47093023,3.00581395 C0.639534884,3.00581395 0,2.36627907 0,1.53488372 C0,0.703488372 0.639534884,0.0639534884 1.47093023,0.0639534884 C2.30232558,0.0639534884 2.94186047,0.703488372 2.94186047,1.53488372 Z" id="Stroke-2_1_"></path>
                        <path d="M174.145349,26.2209302 C174.145349,27.0523256 173.505814,27.6918605 172.674419,27.6918605 C171.843023,27.6918605 171.203488,27.0523256 171.203488,26.2209302 C171.203488,25.3895349 171.843023,24.75 172.674419,24.75 C173.505814,24.75 174.145349,25.4534884 174.145349,26.2209302 Z" id="Stroke-4_1_"></path>
                        <line x1="181.30814" y1="0.127906977" x2="181.30814" y2="1.27906977" id="Stroke-6_1_" stroke-linecap="round"></line>
                        <line x1="181.30814" y1="4.73255814" x2="181.30814" y2="5.88372093" id="Stroke-8_1_" stroke-linecap="round"></line>
                        <line x1="184.186047" y1="3.00581395" x2="183.034884" y2="3.00581395" id="Stroke-10_1_" stroke-linecap="round"></line>
                        <line x1="179.581395" y1="3.00581395" x2="178.430233" y2="3.00581395" id="Stroke-12_1_" stroke-linecap="round"></line>
                        <line x1="31.5930233" y1="44.5116279" x2="31.5930233" y2="45.6627907" id="Stroke-14_1_" stroke-linecap="round"></line>
                        <line x1="31.5930233" y1="49.1162791" x2="31.5930233" y2="50.2674419" id="Stroke-16_1_" stroke-linecap="round"></line>
                        <line x1="34.4709302" y1="47.3895349" x2="33.3197674" y2="47.3895349" id="Stroke-18_1_" stroke-linecap="round"></line>
                        <line x1="29.8662791" y1="47.3895349" x2="28.7151163" y2="47.3895349" id="Stroke-20_1_" stroke-linecap="round"></line>
                    </g>
                </g>
            </g>
        </g>
    </g>
</svg>