<?xml version="1.0" encoding="UTF-8"?>
<svg width="220px" height="160px" viewBox="0 0 220 160" version="1.1" xmlns="http://www.w3.org/2000/svg" xmlns:xlink="http://www.w3.org/1999/xlink">
    <!-- Generator: Sketch 63.1 (92452) - https://sketch.com -->
    <title>feat-report</title>
    <desc>Created with Sketch.</desc>
    <g id="Resellers" stroke="none" stroke-width="1" fill="none" fill-rule="evenodd">
        <g id="Resellers/Features" transform="translate(-875.000000, -544.000000)">
            <g id="feat-report" transform="translate(875.000000, 544.000000)">
                <rect id="Rectangle" fill="#FFFFFF" x="0" y="0" width="220" height="160"></rect>
                <g id="Group-2" transform="translate(9.000000, 17.000000)">
                    <g id="sheesn2" stroke-linecap="round" transform="translate(15.770609, 22.222222)" stroke="#FFFFFF" stroke-width="2.86738351">
                        <line x1="47.7419355" y1="88.7455197" x2="26.0215054" y2="88.7455197" id="Stroke-2"></line>
                        <line x1="43.4408602" y1="77.9928315" x2="0.430107527" y2="77.9928315" id="Stroke-3"></line>
                        <line x1="19.3548387" y1="88.7455197" x2="15.3405018" y2="88.7455197" id="Stroke-4"></line>
                        <line x1="93.3333333" y1="0.931899642" x2="115.053763" y2="0.931899642" id="Stroke-5"></line>
                        <line x1="97.6344086" y1="11.7562724" x2="140.645161" y2="11.7562724" id="Stroke-6"></line>
                        <line x1="146.88172" y1="11.7562724" x2="150.46595" y2="11.7562724" id="Stroke-7"></line>
                        <line x1="150.035842" y1="44.9462366" x2="138.207885" y2="48.3870968" id="Stroke-8"></line>
                        <line x1="138.781362" y1="34.4802867" x2="133.405018" y2="39.7132616" id="Stroke-9"></line>
                        <line x1="146.164875" y1="59.8566308" x2="138.853047" y2="58.2795699" id="Stroke-10"></line>
                    </g>
                    <g id="illustration" transform="translate(37.275986, 13.620072)">
                        <g id="fill">
                            <path d="M21.218638,72.8315412 C22.2939068,78.5663082 19.2114695,83.9426523 14.3369176,84.874552 C9.46236559,85.8064516 4.65949821,81.8637993 3.58422939,76.1290323 C2.50896057,70.3942652 5.59139785,65.0179211 10.4659498,64.0860215 C15.4121864,63.1541219 20.2150538,67.0967742 21.218638,72.8315412" id="Fill-6" fill="#FFBDAB" fill-rule="nonzero"></path>
                            <path d="M12.9749104,80.1433692 C11.1827957,80.1433692 8.96057348,78.2795699 8.38709677,75.1971326 C8.10035842,73.5483871 8.31541219,71.8996416 9.03225806,70.6810036 C9.390681,70.1075269 10.1075269,69.0322581 11.3978495,68.8172043 C11.5412186,68.8172043 11.7562724,68.7455197 11.8996416,68.7455197 C13.6917563,68.7455197 15.9139785,70.609319 16.4874552,73.6917563 C16.7741935,75.3405018 16.5591398,76.9892473 15.8422939,78.2078853 C15.483871,78.781362 14.7670251,79.8566308 13.4767025,80.0716846 C13.3333333,80.1433692 13.1182796,80.1433692 12.9749104,80.1433692" id="Fill-8" fill="#FFAB97" fill-rule="nonzero"></path>
                            <path d="M85.0179211,72.8315412 C83.9426523,78.5663082 87.0250896,83.9426523 91.8996416,84.874552 C96.7741935,85.8064516 101.577061,81.8637993 102.65233,76.1290323 C103.727599,70.3942652 100.645161,65.0179211 95.7706093,64.0860215 C90.8960573,63.1541219 86.09319,67.0967742 85.0179211,72.8315412" id="Fill-10" fill="#FFD3C5" fill-rule="nonzero"></path>
                            <path d="M96.9175627,55.5555556 C98.6379928,45.1612903 96.702509,34.4086022 91.1111111,25.4480287 C83.1541219,12.9032258 69.1039427,4.51612903 53.1182796,4.51612903 C37.1326165,4.51612903 23.0824373,12.9032258 15.1971326,25.5197133 C9.60573477,34.4086022 7.6702509,45.2329749 9.390681,55.6272401 L14.3369176,85.1612903 C16.1290323,95.9139785 22.5806452,105.304659 32.0430108,110.824373 L43.8709677,117.777778 C49.6057348,121.146953 56.7741935,121.146953 62.5089606,117.777778 L74.3369176,110.824373 C83.7275986,105.304659 90.2508961,95.9139785 92.0430108,85.1612903 L96.9175627,55.5555556 Z" id="Fill-12" fill="#FFE7DE" fill-rule="nonzero"></path>
                            <path d="M63.8709677,64.0860215 L63.8709677,88.8172043 C63.8709677,88.8172043 68.3154122,97.4910394 82.5806452,104.157706 C87.4551971,98.9247312 90.7526882,92.3297491 91.9713262,85.1612903 L95.483871,64.0860215 L63.8709677,64.0860215 Z" id="Fill-14" fill="#FFD3C5" fill-rule="nonzero"></path>
                            <path d="M55.7706093,112.544803 L43.9426523,105.591398 C34.5519713,100.071685 28.1003584,90.6810036 26.3082437,79.9283154 L21.3620072,50.3942652 C19.6415771,40 21.5770609,29.2473118 27.1684588,20.2867384 C30.7526882,14.5519713 35.6272401,9.67741935 41.3620072,6.09318996 C30.3942652,9.10394265 21.1469534,16.1290323 15.2688172,25.5197133 C9.67741935,34.4086022 7.74193548,45.2329749 9.46236559,55.6272401 L14.4086022,85.1612903 C16.2007168,95.9139785 22.6523297,105.304659 32.1146953,110.824373 L43.9426523,117.777778 C49.6774194,121.146953 56.8458781,121.146953 62.5806452,117.777778 L67.4551971,114.910394 C63.3691756,115.412186 59.2831541,114.623656 55.7706093,112.544803" id="Fill-16" fill="#FFD3C5" fill-rule="nonzero"></path>
                            <path d="M57.0609319,81.0752688 L57.0609319,73.1182796 C57.0609319,70.9677419 55.2688172,69.1756272 53.1182796,69.1756272 C50.9677419,69.1756272 49.1756272,70.9677419 49.1756272,73.1182796 L49.1756272,81.0752688 C47.2401434,81.4336918 45.8064516,83.1541219 45.8064516,85.1612903 C45.8064516,87.4551971 47.6702509,89.3189964 49.9641577,89.3189964 L56.344086,89.3189964 C58.6379928,89.3189964 60.5017921,87.4551971 60.5017921,85.1612903 C60.4301075,83.1541219 58.9964158,81.4336918 57.0609319,81.0752688" id="Fill-18" fill="#FFBDAB" fill-rule="nonzero"></path>
                            <path d="M80.5734767,66.6666667 C80.5734767,70.9677419 77.0609319,74.4086022 72.8315412,74.4086022 C68.5304659,74.4086022 65.0896057,70.8960573 65.0896057,66.6666667 C65.0896057,62.437276 68.6021505,58.9247312 72.8315412,58.9247312 C77.1326165,58.9247312 80.5734767,62.3655914 80.5734767,66.6666667" id="Fill-20" fill="#FFFFFF" fill-rule="nonzero"></path>
                            <path d="M42.2222222,66.4516129 C42.2222222,71.3978495 38.2078853,75.4121864 33.2616487,75.4121864 C28.3154122,75.4121864 24.3010753,71.3978495 24.3010753,66.4516129 C24.3010753,61.5053763 28.3154122,57.4910394 33.2616487,57.4910394 C38.2078853,57.4910394 42.2222222,61.5053763 42.2222222,66.4516129" id="Fill-22" fill="#FFFFFF" fill-rule="nonzero"></path>
                            <path d="M33.1182796,71.7562724 C35.0537634,71.827957 36.8458781,70.7526882 37.8494624,69.1039427 C38.2795699,68.3870968 38.4946237,67.5985663 38.5663082,66.8817204 C38.6379928,66.3799283 38.2078853,65.9498208 37.7060932,65.8781362 C37.6344086,65.8781362 37.4910394,65.8781362 37.4193548,65.8064516 C36.702509,65.6630824 36.0573477,65.1612903 35.6989247,64.516129 C35.125448,63.655914 35.0537634,62.9390681 35.1971326,62.437276 C35.2688172,61.9354839 34.9820789,61.4336918 34.4802867,61.2903226 C33.90681,61.1469534 33.1899642,61.1469534 32.5448029,61.218638 C30.7526882,61.5053763 29.1756272,62.7240143 28.4587814,64.3727599 C26.953405,67.8853047 29.390681,71.6129032 33.1182796,71.7562724" id="Fill-24" fill="#61C9D1" fill-rule="nonzero"></path>
                            <path d="M72.688172,71.2544803 C74.3369176,71.3261649 75.9139785,70.3942652 76.7741935,68.9605735 C77.1326165,68.3154122 77.3476703,67.6702509 77.3476703,67.0250896 C77.3476703,66.5949821 77.0609319,66.1648746 76.6308244,66.1648746 C76.5591398,66.1648746 76.4874552,66.1648746 76.4157706,66.1648746 C75.7706093,66.0215054 75.2688172,65.5913978 74.9103943,65.0896057 C74.4086022,64.3010753 74.3369176,63.7275986 74.4802867,63.297491 C74.5519713,62.8673835 74.3369176,62.437276 73.8351254,62.2939068 C73.3333333,62.1505376 72.7598566,62.1505376 72.1146953,62.2222222 C70.5376344,62.437276 69.1756272,63.5125448 68.6021505,64.9462366 C67.3835125,67.8853047 69.4623656,71.1111111 72.688172,71.2544803" id="Fill-26" fill="#86DEEA" fill-rule="nonzero"></path>
                            <path d="M63.4408602,57.2043011 C68.3154122,51.3261649 77.2759857,51.3261649 82.1505376,57.2043011" id="Stroke-28" stroke="#824634" stroke-width="3.2" stroke-linecap="round"></path>
                            <path d="M65.0896057,36.5591398 C65.0896057,36.5591398 74.6236559,57.6344086 95.7706093,64.0860215 C95.7706093,64.0860215 110.322581,33.4050179 82.2222222,14.9820789 L65.0896057,36.5591398 Z" id="Fill-30" fill="#995E47" fill-rule="nonzero"></path>
                            <path d="M89.6774194,21.0752688 C87.5985663,18.9247312 85.1612903,16.8458781 82.2222222,14.9820789 L65.0896057,36.5591398 C65.0896057,36.5591398 66.8100358,40.2867384 70.3225806,45.0896057 C80.5017921,34.265233 87.5985663,24.0860215 89.6774194,21.0752688" id="Fill-32" fill="#894E3D" fill-rule="nonzero"></path>
                            <path d="M82.1505376,14.9103943 C82.1505376,14.9103943 41.8637993,76.7741935 3.29749104,65.6630824 C1.07526882,65.0179211 2.04281037e-14,62.5806452 0.931899642,60.5017921 C1.7921147,58.5663082 2.58064516,55.6272401 2.65232975,51.1111111 C2.9390681,40.0716846 3.94265233,12.4014337 32.8315412,2.58064516 C61.8637993,-7.16845878 82.1505376,14.9103943 82.1505376,14.9103943" id="Fill-34" fill="#AF7358" fill-rule="nonzero"></path>
                            <path d="M148.028674,120.143369 L148.028674,120.143369 C146.666667,121.935484 144.086022,122.293907 142.293907,121.003584 L99.0681004,88.6738351 C97.2759857,87.311828 96.9175627,84.7311828 98.2078853,82.9390681 C99.5698925,81.1469534 102.150538,80.7885305 103.942652,82.078853 L147.168459,114.408602 C149.032258,115.698925 149.390681,118.27957 148.028674,120.143369" id="Fill-36" fill="#A3A3A3" fill-rule="nonzero"></path>
                            <path d="M144.874552,117.491039 L101.648746,85.1612903 C100.501792,84.3010753 99.9283154,82.8673835 100.071685,81.5053763 C99.3548387,81.7921147 98.781362,82.2222222 98.2795699,82.8673835 C96.9175627,84.6594982 97.2759857,87.2401434 99.1397849,88.6021505 L142.365591,120.9319 C144.157706,122.293907 146.738351,121.935484 148.100358,120.071685 C148.602151,119.426523 148.817204,118.709677 148.888889,117.992832 C147.598566,118.566308 146.09319,118.422939 144.874552,117.491039" id="Fill-38" fill="#939393" fill-rule="nonzero"></path>
                            <path d="M105.232975,86.5232975 L103.655914,88.6021505 C101.935484,90.9677419 98.5663082,91.3978495 96.2724014,89.6774194 L95.9856631,89.4623656 C93.6200717,87.7419355 93.1899642,84.3727599 94.9103943,82.078853 L96.4874552,80 C98.2078853,77.6344086 101.577061,77.2043011 103.870968,78.9247312 L104.157706,79.1397849 C106.523297,80.8602151 107.02509,84.1577061 105.232975,86.5232975" id="Fill-40" fill="#B2B2B2" fill-rule="nonzero"></path>
                            <path d="M99.0681004,86.953405 L98.781362,86.7383513 C96.4157706,85.0179211 95.9856631,81.6487455 97.7060932,79.3548387 L98.4229391,78.4229391 C97.7060932,78.781362 96.9892473,79.2831541 96.4874552,80 L94.9103943,82.078853 C93.1899642,84.4444444 93.6200717,87.7419355 95.9856631,89.4623656 L96.2724014,89.6774194 C98.6379928,91.3978495 101.935484,90.9677419 103.655914,88.6021505 L104.516129,87.4551971 C102.795699,88.3154122 100.716846,88.172043 99.0681004,86.953405" id="Fill-42" fill="#A3A3A3" fill-rule="nonzero"></path>
                            <path d="M94.1935484,48.2437276 C83.0107527,39.8566308 67.1684588,42.1505376 58.781362,53.3333333 C50.3942652,64.516129 52.688172,80.3584229 63.8709677,88.7455197 C75.0537634,97.1326165 90.8960573,94.8387097 99.2831541,83.655914 C107.670251,72.4731183 105.376344,56.6308244 94.1935484,48.2437276" id="Fill-44" fill="#BFBFBF" fill-rule="nonzero"></path>
                            <path d="M94.1935484,79.8566308 C87.9569892,88.2437276 76.0573477,89.8924731 67.7419355,83.655914 C59.3548387,77.4193548 57.7060932,65.5197133 63.9426523,57.2043011 C70.1792115,48.8172043 82.078853,47.1684588 90.3942652,53.4050179 C98.7096774,59.6415771 100.430108,71.4695341 94.1935484,79.8566308" id="Fill-46" fill="#FFE7DE" fill-rule="nonzero"></path>
                            <path d="M90.1075269,68.5304659 C90.1075269,74.6953405 85.1612903,79.6415771 78.9964158,79.6415771 C72.8315412,79.6415771 67.8853047,74.6953405 67.8853047,68.5304659 C67.8853047,62.3655914 72.8315412,57.4193548 78.9964158,57.4193548 C85.1612903,57.4193548 90.1075269,62.3655914 90.1075269,68.5304659" id="Fill-48" fill="#FFFFFF" fill-rule="nonzero"></path>
                            <path d="M78.8530466,75.0537634 C81.218638,75.125448 83.5125448,73.8351254 84.6594982,71.7562724 C85.1612903,70.8243728 85.4480287,69.8924731 85.5197133,68.9605735 C85.5913978,68.3154122 85.0896057,67.8136201 84.4444444,67.7419355 C84.3010753,67.7419355 84.2293907,67.7419355 84.0860215,67.6702509 C83.1541219,67.5268817 82.437276,66.8817204 81.9354839,66.09319 C81.2903226,65.0179211 81.1469534,64.1577061 81.2903226,63.5125448 C81.4336918,62.8673835 81.0752688,62.2222222 80.4301075,62.078853 C79.7132616,61.9354839 78.8530466,61.8637993 77.9928315,62.0071685 C75.7706093,62.3655914 73.8351254,63.8709677 72.9749104,65.8781362 C71.2544803,70.2508961 74.1935484,74.9103943 78.8530466,75.0537634" id="Fill-50" fill="#61C9D1" fill-rule="nonzero"></path>
                            <path d="M23.7992832,65.4480287 C23.7992832,65.2329749 15.7706093,23.5842294 42.2939068,0.430107527 C39.2831541,0.788530466 36.2007168,1.50537634 32.9749104,2.58064516 C4.01433692,12.4014337 3.01075269,40.0716846 2.79569892,51.1111111 C2.72401434,55.6272401 1.93548387,58.5663082 1.07526882,60.5017921 C0.143369176,62.5806452 1.21863799,65.0179211 3.44086022,65.6630824 C10.1792115,67.6702509 17.1326165,67.311828 23.7992832,65.4480287" id="Fill-52" fill="#995E47" fill-rule="nonzero"></path>
                        </g>
                        <g id="stroke" stroke-linecap="round" stroke="#0F222E" stroke-width="2.86738351">
                            <path d="M69.390681,31.6845878 C54.4086022,49.1039427 28.5304659,72.9749104 3.36917563,65.734767 C1.14695341,65.0896057 0.0716845878,62.6523297 1.00358423,60.5734767 C1.86379928,58.6379928 2.65232975,55.6989247 2.72401434,51.1827957 C3.01075269,40.1433692 4.01433692,12.4731183 32.9032258,2.65232975 C61.8637993,-7.16845878 82.1505376,14.9820789 82.1505376,14.9820789 C82.1505376,14.9820789 78.5663082,20.5017921 72.4731183,27.9569892" id="Stroke-2_2_" stroke-linejoin="round"></path>
                            <path d="M94.1935484,48.2437276 C83.0107527,39.8566308 67.1684588,42.1505376 58.781362,53.3333333 C50.3942652,64.516129 52.688172,80.3584229 63.8709677,88.7455197 C75.0537634,97.1326165 90.8960573,94.8387097 99.2831541,83.655914 C107.670251,72.4731183 105.376344,56.6308244 94.1935484,48.2437276 Z" id="Stroke-4_2_" stroke-linejoin="round"></path>
                            <path d="M94.1935484,79.8566308 C87.9569892,88.2437276 76.0573477,89.8924731 67.7419355,83.655914 C59.3548387,77.4193548 57.7060932,65.5197133 63.9426523,57.2043011 C70.1792115,48.8172043 82.078853,47.1684588 90.3942652,53.4050179 C98.7096774,59.6415771 100.430108,71.4695341 94.1935484,79.8566308 Z" id="Stroke-6_2_" stroke-linejoin="round"></path>
                            <path d="M102.437276,78.0645161 C102.939068,78.2078853 103.44086,78.4946237 103.870968,78.8530466 L104.157706,79.0681004 C106.523297,80.7885305 106.953405,84.1577061 105.232975,86.4516129 L103.655914,88.5304659 C101.935484,90.8960573 98.5663082,91.3261649 96.2724014,89.6057348 L95.9856631,89.390681 C95.6272401,89.1039427 95.2688172,88.7455197 94.9820789,88.3870968" id="Stroke-8_2_" stroke-linejoin="round"></path>
                            <path d="M109.892473,86.4516129 L147.240143,114.336918 C149.032258,115.698925 149.390681,118.27957 148.100358,120.071685 C146.738351,121.863799 144.157706,122.222222 142.365591,120.9319 L101.935484,90.6810036" id="Stroke-10_2_" stroke-linejoin="round"></path>
                            <path d="M53.1182796,69.1756272 C50.9677419,69.1756272 49.1756272,70.9677419 49.1756272,73.1182796 L49.1756272,81.0752688 C47.2401434,81.4336918 45.8064516,83.1541219 45.8064516,85.1612903 C45.8064516,87.4551971 47.6702509,89.3189964 49.9641577,89.3189964 L56.2724014,89.3189964 C58.2078853,89.3189964 59.8566308,87.9569892 60.2867384,86.09319" id="Stroke-12_1_" stroke-linejoin="round"></path>
                            <path d="M90.1075269,68.5304659 C90.1075269,74.6953405 85.1612903,79.6415771 78.9964158,79.6415771 C72.8315412,79.6415771 67.8853047,74.6953405 67.8853047,68.5304659 C67.8853047,62.3655914 72.8315412,57.4193548 78.9964158,57.4193548 C85.1612903,57.4193548 90.1075269,62.3655914 90.1075269,68.5304659 Z" id="Stroke-14_1_" stroke-linejoin="round"></path>
                            <path d="M38.5663082,59.2114695 C40.7885305,60.8602151 42.2222222,63.5125448 42.2222222,66.4516129 C42.2222222,71.3978495 38.2078853,75.4121864 33.2616487,75.4121864 C28.3154122,75.4121864 24.3010753,71.3978495 24.3010753,66.4516129 C24.3010753,66.09319 24.3010753,65.734767 24.3727599,65.3763441" id="Stroke-16_1_"></path>
                            <path d="M37.3476703,113.978495 L43.7992832,117.777778 C49.5340502,121.146953 56.702509,121.146953 62.437276,117.777778 L74.265233,110.824373 C81.7204301,106.451613 87.311828,99.6415771 90.2508961,91.6129032" id="Stroke-18_1_" stroke-linejoin="round"></path>
                            <line x1="31.9713262" y1="110.824373" x2="33.4050179" y2="111.684588" id="Stroke-20_1_" stroke-linejoin="round"></line>
                            <path d="M11.2544803,67.0250896 L14.265233,85.1612903 C15.8422939,94.4802867 20.8602151,102.795699 28.3154122,108.458781" id="Stroke-22" stroke-linejoin="round"></path>
                            <path d="M65.0896057,36.5591398 C65.0896057,36.5591398 66.6666667,40 69.9641577,44.5878136" id="Stroke-24" stroke-linejoin="round"></path>
                            <path d="M98.9964158,52.7598566 C100.645161,42.1505376 99.4265233,26.2365591 82.2222222,14.9103943" id="Stroke-26" stroke-linejoin="round"></path>
                            <path d="M13.8351254,84.874552 C9.10394265,85.4480287 4.58781362,81.5770609 3.58422939,76.0573477 C2.9390681,72.4731183 3.87096774,69.0322581 5.8781362,66.7383513" id="Stroke-28_1_" stroke-linejoin="round"></path>
                            <path d="M9.03225806,77.2759857 C8.74551971,76.702509 8.45878136,75.9856631 8.31541219,75.1971326 C8.02867384,73.5483871 8.2437276,71.8996416 8.96057348,70.6810036 C9.31899642,70.1075269 10.0358423,69.0322581 11.3261649,68.8172043" id="Stroke-30" stroke-linejoin="round"></path>
                            <path d="M44.4444444,99.1397849 C49.6774194,102.795699 56.6308244,102.795699 61.8637993,99.1397849" id="Stroke-46"></path>
                        </g>
                    </g>
                    <g id="sheens_1" stroke="#FFFFFF" stroke-width="1.43369176">
                        <path d="M111.756272,2.22222222 C111.756272,3.15412186 111.039427,3.87096774 110.107527,3.87096774 C109.175627,3.87096774 108.458781,3.15412186 108.458781,2.22222222 C108.458781,1.29032258 109.175627,0.573476703 110.107527,0.573476703 C111.039427,0.573476703 111.756272,1.29032258 111.756272,2.22222222 Z" id="Stroke-2_1_"></path>
                        <path d="M39.3548387,133.90681 C39.3548387,134.83871 38.6379928,135.555556 37.7060932,135.555556 C36.7741935,135.555556 36.0573477,134.83871 36.0573477,133.90681 C36.0573477,132.97491 36.7741935,132.258065 37.7060932,132.258065 C38.6379928,132.258065 39.3548387,132.97491 39.3548387,133.90681 Z" id="Stroke-4_1_"></path>
                        <g id="Group" stroke-linecap="round" transform="translate(192.831541, 86.021505)">
                            <line x1="3.79928315" y1="0.215053763" x2="3.79928315" y2="1.50537634" id="Stroke-6_1_"></line>
                            <line x1="3.79928315" y1="5.37634409" x2="3.79928315" y2="6.66666667" id="Stroke-8_1_"></line>
                            <line x1="7.02508961" y1="3.44086022" x2="5.73476703" y2="3.44086022" id="Stroke-10_1_"></line>
                            <line x1="1.86379928" y1="3.44086022" x2="0.573476703" y2="3.44086022" id="Stroke-12"></line>
                        </g>
                        <g id="Group" stroke-linecap="round" transform="translate(0.000000, 72.401434)">
                            <line x1="3.87096774" y1="0.430107527" x2="3.87096774" y2="1.72043011" id="Stroke-14"></line>
                            <line x1="3.87096774" y1="5.59139785" x2="3.87096774" y2="6.88172043" id="Stroke-16"></line>
                            <line x1="7.09677419" y1="3.65591398" x2="5.80645161" y2="3.65591398" id="Stroke-18"></line>
                            <line x1="1.93548387" y1="3.65591398" x2="0.64516129" y2="3.65591398" id="Stroke-20"></line>
                        </g>
                    </g>
                </g>
            </g>
        </g>
    </g>
</svg>