<?xml version="1.0" encoding="UTF-8"?>
<svg width="220px" height="160px" viewBox="0 0 220 160" version="1.1" xmlns="http://www.w3.org/2000/svg" xmlns:xlink="http://www.w3.org/1999/xlink">
    <!-- Generator: Sketch 63.1 (92452) - https://sketch.com -->
    <title>feat-optimitation</title>
    <desc>Created with Sketch.</desc>
    <g id="Resellers" stroke="none" stroke-width="1" fill="none" fill-rule="evenodd">
        <g id="Resellers/Features" transform="translate(-875.000000, -946.000000)">
            <g id="feat-optimitation" transform="translate(875.000000, 946.000000)">
                <rect id="Rectangle" fill="#FFFFFF" x="0" y="0" width="220" height="160"></rect>
                <g id="Group-2" transform="translate(10.000000, 2.000000)">
                    <g id="sheens_2" stroke-linecap="round" transform="translate(0.000000, 31.654676)" stroke="#FFFFFF" stroke-width="2.87769784">
                        <line x1="42.5899281" y1="41.0071942" x2="25.2517986" y2="41.0071942" id="Path"></line>
                        <line x1="40.2158273" y1="51.8705036" x2="10.3597122" y2="51.8705036" id="Path"></line>
                        <line x1="4.67625899" y1="51.8705036" x2="0" y2="51.8705036" id="Path"></line>
                        <line x1="159.136691" y1="0.71942446" x2="167.625899" y2="0.71942446" id="Path"></line>
                        <line x1="159.136691" y1="11.5827338" x2="173.669065" y2="11.5827338" id="Path"></line>
                        <line x1="179.640288" y1="11.5827338" x2="184.892086" y2="11.5827338" id="Path"></line>
                    </g>
                    <g id="sheens_1" transform="translate(6.474820, 45.323741)" stroke="#FFFFFF" stroke-width="1.43884892">
                        <circle id="Oval" cx="14.4604317" cy="60.1438849" r="1.65467626"></circle>
                        <circle id="Oval" cx="191.294964" cy="15.1798561" r="1.65467626"></circle>
                        <g id="Group" stroke-linecap="round" transform="translate(174.820144, 41.007194)">
                            <g id="Path" transform="translate(2.877698, 0.000000)">
                                <line x1="0.71942446" y1="0.431654676" x2="0.71942446" y2="1.72661871"></line>
                                <line x1="0.71942446" y1="5.61151079" x2="0.71942446" y2="6.90647482"></line>
                            </g>
                            <g id="Path" transform="translate(0.000000, 2.877698)">
                                <line x1="6.83453237" y1="0.791366906" x2="5.61151079" y2="0.791366906"></line>
                                <line x1="1.65467626" y1="0.791366906" x2="0.35971223" y2="0.791366906"></line>
                            </g>
                        </g>
                        <g id="Group" stroke-linecap="round">
                            <g id="Path" transform="translate(2.877698, 0.000000)">
                                <line x1="1.00719424" y1="0.431654676" x2="1.00719424" y2="1.72661871"></line>
                                <line x1="1.00719424" y1="5.61151079" x2="1.00719424" y2="6.90647482"></line>
                            </g>
                            <g id="Path" transform="translate(0.000000, 2.877698)">
                                <line x1="7.12230216" y1="0.791366906" x2="5.82733813" y2="0.791366906"></line>
                                <line x1="1.94244604" y1="0.791366906" x2="0.647482014" y2="0.791366906"></line>
                            </g>
                        </g>
                    </g>
                    <g id="illustration" transform="translate(38.129496, 0.000000)">
                        <g id="fill" fill-rule="nonzero">
                            <path d="M113.021583,92.5179856 L82.6618705,92.5179856 C78.705036,92.5179856 75.5395683,89.352518 75.5395683,85.3956835 L75.5395683,7.55395683 C75.5395683,3.5971223 78.705036,0.431654676 82.6618705,0.431654676 L113.021583,0.431654676 C116.978417,0.431654676 120.143885,3.5971223 120.143885,7.55395683 L120.143885,85.3956835 C120.143885,89.2805755 116.978417,92.5179856 113.021583,92.5179856 Z" id="Path" fill="#FFFFFF"></path>
                            <path d="M90.7194245,28.4892086 L75.5395683,28.4892086 L75.5395683,85.3956835 C75.5395683,89.352518 78.705036,92.5179856 82.6618705,92.5179856 L103.597122,92.5179856 L103.597122,41.3669065 C103.597122,34.2446043 97.8417266,28.4892086 90.7194245,28.4892086 Z" id="Path" fill="#E0E0E0"></path>
                            <path d="M120.143885,7.55395683 C120.143885,3.5971223 116.978417,0.431654676 113.021583,0.431654676 L82.6618705,0.431654676 C78.705036,0.431654676 75.5395683,3.5971223 75.5395683,7.55395683 L75.5395683,12.6618705 L120.143885,12.6618705 L120.143885,7.55395683 L120.143885,7.55395683 Z" id="Path" fill="#D3D3D3"></path>
                            <circle id="Oval" fill="#FF7171" cx="82.0143885" cy="6.90647482" r="1.43884892"></circle>
                            <circle id="Oval" fill="#FFF2A6" cx="87.7697842" cy="6.90647482" r="1.43884892"></circle>
                            <circle id="Oval" fill="#7CC47C" cx="93.5251799" cy="6.90647482" r="1.43884892"></circle>
                            <path d="M90.7194245,126.330935 L7.84172662,126.330935 C3.88489209,126.330935 0.71942446,123.165468 0.71942446,119.208633 L0.71942446,41.3669065 C0.71942446,37.4100719 3.88489209,34.2446043 7.84172662,34.2446043 L90.7194245,34.2446043 C94.676259,34.2446043 97.8417266,37.4100719 97.8417266,41.3669065 L97.8417266,119.208633 C97.8417266,123.093525 94.676259,126.330935 90.7194245,126.330935 Z" id="Path" fill="#FFFFFF"></path>
                            <path d="M25.1798561,119.208633 L25.1798561,41.3669065 C25.1798561,37.4100719 28.3453237,34.2446043 32.3021583,34.2446043 L7.84172662,34.2446043 C3.88489209,34.2446043 0.71942446,37.4100719 0.71942446,41.3669065 L0.71942446,119.208633 C0.71942446,123.165468 3.88489209,126.330935 7.84172662,126.330935 L32.3021583,126.330935 C28.3453237,126.330935 25.1798561,123.093525 25.1798561,119.208633 Z" id="Path" fill="#F4F4F4"></path>
                            <path d="M90.7194245,34.2446043 L7.84172662,34.2446043 C3.88489209,34.2446043 0.71942446,37.4100719 0.71942446,41.3669065 L0.71942446,46.4748201 L97.8417266,46.4748201 L97.8417266,41.3669065 C97.8417266,37.4100719 94.676259,34.2446043 90.7194245,34.2446043 Z" id="Path" fill="#D3D3D3"></path>
                            <path d="M25.1798561,41.3669065 C25.1798561,37.4100719 28.3453237,34.2446043 32.3021583,34.2446043 L7.84172662,34.2446043 C3.88489209,34.2446043 0.71942446,37.4100719 0.71942446,41.3669065 L0.71942446,46.4748201 L25.1798561,46.4748201 L25.1798561,41.3669065 Z" id="Path" fill="#C9C9C9"></path>
                            <circle id="Oval" fill="#FF7171" cx="7.1942446" cy="40.7194245" r="1.43884892"></circle>
                            <circle id="Oval" fill="#FFF2A6" cx="12.9496403" cy="40.7194245" r="1.43884892"></circle>
                            <circle id="Oval" fill="#7CC47C" cx="18.705036" cy="40.7194245" r="1.43884892"></circle>
                            <rect id="Rectangle" fill="#FFF297" x="64.7482014" y="57.2661871" width="22.3021583" height="18.705036"></rect>
                            <rect id="Rectangle" fill="#86EAE4" x="64.7482014" y="81.7266187" width="22.3021583" height="33.0935252"></rect>
                            <rect id="Rectangle" fill="#F4E37D" x="64.7482014" y="57.2661871" width="9.35251799" height="18.705036"></rect>
                            <rect id="Rectangle" fill="#6FD8CE" x="64.7482014" y="81.7266187" width="9.35251799" height="33.0935252"></rect>
                            <path d="M8.41726619,154.964029 C8.20143885,154.964029 7.98561151,154.964029 7.76978417,154.964029 C3.38129496,154.892086 0.071942446,151.007194 0.791366906,146.690647 L0.791366906,146.690647 C1.36690647,143.165468 4.38848921,140.57554 7.98561151,140.57554 C14.676259,140.647482 19.7841727,138.848921 23.4532374,135.107914 C32.8057554,125.611511 31.7985612,104.892086 30.5755396,97.6978417 L44.7482014,95.323741 C44.9640288,96.6906475 50.1438849,128.489209 33.6690647,145.179856 C27.3381295,151.726619 18.8489209,154.964029 8.41726619,154.964029 Z" id="Path" fill="#F6B39F"></path>
                            <path d="M28.7769784,80.647482 C28.4172662,80.647482 28.057554,80.5755396 27.6978417,80.5035971 C25.5395683,79.9280576 24.2446043,77.6258993 24.8201439,75.4676259 C25.6115108,72.6618705 27.1223022,70.2158273 29.352518,68.3453237 C35.3956835,63.1654676 44.6043165,63.8848921 49.7841727,69.9280576 C51.2230216,71.6546763 51.0791367,74.2446043 49.352518,75.6834532 C47.6258993,77.1223022 45.0359712,76.9784173 43.5971223,75.2517986 C41.294964,72.5899281 37.3381295,72.3021583 34.676259,74.5323741 C33.7410072,75.323741 33.0215827,76.4028777 32.6618705,77.6258993 C32.1582734,79.4964029 30.5755396,80.647482 28.7769784,80.647482 Z" id="Path" fill="#EF9D89"></path>
                            <path d="M34.8920863,105.251799 C26.1151079,105.251799 18.9928058,98.1294964 18.9928058,89.352518 C18.9928058,86.1870504 19.9280576,83.0935252 21.7266187,80.4316547 C23.0215827,78.5611511 25.5395683,78.057554 27.4100719,79.352518 C29.2805755,80.647482 29.7841727,83.1654676 28.4892086,85.0359712 C27.6258993,86.3309353 27.1942446,87.8417266 27.1942446,89.352518 C27.1942446,93.5971223 30.647482,97.1223022 34.9640288,97.1223022 C39.2086331,97.1223022 42.7338129,93.6690647 42.7338129,89.352518 C42.7338129,87.1223022 44.5323741,85.2517986 46.8345324,85.2517986 C49.0647482,85.2517986 50.9352518,87.0503597 50.9352518,89.352518 C50.7913669,98.1294964 43.5971223,105.251799 34.8920863,105.251799 Z" id="Path" fill="#F6B39F"></path>
                            <path d="M47.6978417,79.4964029 C45.4676259,79.4964029 43.5971223,77.6978417 43.5971223,75.3956835 L43.5971223,56.618705 C43.5971223,54.3884892 45.3956835,52.5179856 47.6978417,52.5179856 C49.9280576,52.5179856 51.7985612,54.3165468 51.7985612,56.618705 L51.7985612,75.4676259 C51.7985612,77.6978417 50,79.4964029 47.6978417,79.4964029 Z" id="Path" fill="#EF9D89"></path>
                            <path d="M47.6978417,86.7625899 C45.4676259,86.7625899 43.5971223,84.9640288 43.5971223,82.6618705 L43.5971223,63.8129496 C43.5971223,61.5827338 45.3956835,59.7122302 47.6978417,59.7122302 C49.9280576,59.7122302 51.7985612,61.5107914 51.7985612,63.8129496 L51.7985612,82.7338129 C51.7985612,84.9640288 50,86.7625899 47.6978417,86.7625899 Z" id="Path" fill="#F6B39F"></path>
                            <path d="M47.6258993,66.1870504 C45.3956835,66.2589928 43.6690647,68.2014388 43.6690647,70.4316547 L43.6690647,77.9856115 C43.6690647,80.2877698 42.8776978,82.5179856 41.3669065,84.2446043 L26.0431655,102.517986 C26.0431655,102.517986 31.8705036,106.546763 39.2086331,105.107914 C49.6402878,103.021583 51.8705036,93.1654676 51.7985612,89.0647482 L51.7985612,70.2158273 C51.7985612,67.9856115 49.9280576,66.1151079 47.6258993,66.1870504 Z" id="Path" fill="#FBDDCA"></path>
                            <path d="M31.0791367,114.820144 C30.3597122,122.302158 28.3453237,130.28777 23.4532374,135.179856 C19.7841727,138.920863 14.676259,140.719424 7.98561151,140.647482 C4.38848921,140.57554 1.36690647,143.23741 0.791366906,146.76259 C0.143884892,151.079137 3.45323741,154.964029 7.76978417,155.035971 C7.98561151,155.035971 8.20143885,155.035971 8.41726619,155.035971 C18.8489209,155.035971 27.3381295,151.798561 33.7410072,145.251799 C41.8705036,136.978417 44.7482014,124.964029 45.5395683,114.820144 L31.0791367,114.820144 L31.0791367,114.820144 Z" id="Path" fill="#9FDFFF"></path>
                            <path d="M36.1870504,7.05035971 L37.7697842,10.3597122 L41.3669065,10.8633094 C43.2374101,11.1510791 43.9568345,13.381295 42.5899281,14.676259 L40,17.1942446 L40.647482,20.7913669 C40.9352518,22.5899281 39.0647482,24.028777 37.4100719,23.1654676 L34.1726619,21.4388489 L30.9352518,23.1654676 C29.2805755,24.028777 27.4100719,22.6618705 27.6978417,20.7913669 L28.3453237,17.1942446 L25.7553957,14.676259 C24.4604317,13.381295 25.1798561,11.1510791 26.9784173,10.8633094 L30.5755396,10.3597122 L32.1582734,7.05035971 C32.9496403,5.39568345 35.323741,5.39568345 36.1870504,7.05035971 Z" id="Path" fill="#FFEEA4"></path>
                            <path d="M124.604317,109.496403 L125.755396,111.798561 L128.273381,112.158273 C129.568345,112.374101 130.071942,113.956835 129.136691,114.820144 L127.266187,116.618705 L127.697842,119.136691 C127.913669,120.431655 126.546763,121.438849 125.395683,120.791367 L123.093525,119.568345 L120.791367,120.791367 C119.640288,121.366906 118.273381,120.431655 118.489209,119.136691 L118.920863,116.618705 L117.05036,114.820144 C116.115108,113.884892 116.618705,112.302158 117.913669,112.158273 L120.431655,111.798561 L121.582734,109.496403 C122.374101,108.345324 124.028777,108.345324 124.604317,109.496403 Z" id="Path" fill="#FFEEA4"></path>
                        </g>
                        <g id="stroke" stroke-linecap="round" transform="translate(0.719424, 0.000000)" stroke="#0F222E" stroke-width="2.87769784">
                            <line x1="87.0503597" y1="24.8920863" x2="105.755396" y2="24.8920863" id="Path"></line>
                            <line x1="87.0503597" y1="31.3669065" x2="105.755396" y2="31.3669065" id="Path"></line>
                            <line x1="96.4028777" y1="37.8417266" x2="105.755396" y2="37.8417266" id="Path"></line>
                            <line x1="97.1223022" y1="44.3165468" x2="105.755396" y2="44.3165468" id="Path"></line>
                            <line x1="97.1223022" y1="50.7913669" x2="105.755396" y2="50.7913669" id="Path"></line>
                            <line x1="97.1223022" y1="57.2661871" x2="105.755396" y2="57.2661871" id="Path"></line>
                            <line x1="97.1223022" y1="63.7410072" x2="105.755396" y2="63.7410072" id="Path"></line>
                            <line x1="97.1223022" y1="70.2158273" x2="105.755396" y2="70.2158273" id="Path"></line>
                            <line x1="51.7985612" y1="58.705036" x2="56.1151079" y2="58.705036" id="Path"></line>
                            <line x1="12.2302158" y1="58.705036" x2="42.5899281" y2="58.705036" id="Path"></line>
                            <line x1="51.0791367" y1="65.1798561" x2="56.1151079" y2="65.1798561" id="Path"></line>
                            <line x1="12.2302158" y1="65.1798561" x2="34.7482014" y2="65.1798561" id="Path"></line>
                            <line x1="51.0791367" y1="71.6546763" x2="56.1151079" y2="71.6546763" id="Path"></line>
                            <line x1="12.2302158" y1="71.6546763" x2="25.4676259" y2="71.6546763" id="Path"></line>
                            <line x1="51.294964" y1="78.1294964" x2="56.1151079" y2="78.1294964" id="Path"></line>
                            <line x1="32.0863309" y1="78.1294964" x2="42.9496403" y2="78.1294964" id="Path"></line>
                            <line x1="12.2302158" y1="78.1294964" x2="24.2446043" y2="78.1294964" id="Path"></line>
                            <line x1="48.9208633" y1="97.5539568" x2="56.1151079" y2="97.5539568" id="Path"></line>
                            <line x1="12.2302158" y1="97.5539568" x2="20.5035971" y2="97.5539568" id="Path"></line>
                            <line x1="44.8201439" y1="104.028777" x2="56.1151079" y2="104.028777" id="Path"></line>
                            <line x1="12.2302158" y1="104.028777" x2="27.9136691" y2="104.028777" id="Path"></line>
                            <line x1="12.2302158" y1="110.503597" x2="30.647482" y2="110.503597" id="Path"></line>
                            <path d="M46.9064748,66.1870504 C44.676259,66.2589928 42.9496403,68.2014388 42.9496403,70.4316547 L42.9496403,77.9856115 C42.9496403,80.2877698 42.1582734,82.5179856 40.647482,84.2446043 L25.323741,102.517986 C25.323741,102.517986 31.1510791,106.546763 38.4892086,105.107914 C48.9208633,103.021583 51.1510791,93.1654676 51.0791367,89.0647482 L51.0791367,70.2158273 C51.0791367,67.9856115 49.2086331,66.1151079 46.9064748,66.1870504 Z" id="Path" stroke-linejoin="round"></path>
                            <path d="M25.323741,102.589928 C21.0791367,99.7122302 18.2733813,94.8920863 18.2733813,89.352518 C18.2733813,86.1870504 19.2086331,83.0935252 21.0071942,80.4316547 C22.3021583,78.5611511 24.8201439,78.057554 26.6906475,79.352518 C28.5611511,80.647482 29.0647482,83.1654676 27.7697842,85.0359712 C26.9064748,86.3309353 26.4748201,87.8417266 26.4748201,89.352518 C26.4748201,92.3741007 28.2014388,94.9640288 30.7194245,96.2589928" id="Path" stroke-linejoin="round"></path>
                            <path d="M42.9496403,75.2517986 L42.9496403,63.8848921 C42.9496403,61.6546763 44.7482014,59.7841727 47.0503597,59.7841727 C49.2805755,59.7841727 51.1510791,61.5827338 51.1510791,63.8848921 L51.1510791,75.4676259" id="Path" stroke-linejoin="round"></path>
                            <path d="M42.9496403,63.8129496 L42.9496403,56.618705 C42.9496403,54.3884892 44.7482014,52.5179856 47.0503597,52.5179856 C49.2805755,52.5179856 51.1510791,54.3165468 51.1510791,56.618705 L51.1510791,63.8848921" id="Path" stroke-linejoin="round"></path>
                            <g id="Group" stroke-linejoin="round" transform="translate(23.741007, 64.748201)">
                                <path d="M0.503597122,13.381295 C0.143884892,12.5899281 0.071942446,11.6546763 0.35971223,10.7913669 C1.15107914,7.98561151 2.6618705,5.53956835 4.89208633,3.66906475 C8.99280576,0.143884892 14.4604317,-0.647482014 19.2086331,1.00719424" id="Path"></path>
                                <path d="M19.1366906,10.5035971 C16.8345324,7.84172662 12.8776978,7.55395683 10.2158273,9.78417266 C9.28057554,10.5755396 8.56115108,11.6546763 8.20143885,12.8776978 C7.69784173,14.676259 6.04316547,15.8992806 4.24460432,15.8992806" id="Path"></path>
                            </g>
                            <g id="Group" stroke-linejoin="round" transform="translate(7.194245, 102.158273)">
                                <path d="M0.071942446,38.4172662 C6.76258993,38.4892086 11.8705036,36.6906475 15.5395683,32.9496403 C22.5899281,25.8273381 23.7410072,12.3741007 23.381295,3.09352518" id="Path"></path>
                                <path d="M18.1294964,48.7769784 C13.0935252,51.4388489 7.1942446,52.8057554 0.503597122,52.8057554" id="Path"></path>
                                <path d="M37.6258993,0.431654676 C38.2733813,11.0791367 37.6258993,31.0071942 25.8273381,43.0935252 C24.9640288,44.028777 24.028777,44.8201439 23.0215827,45.6115108" id="Path"></path>
                            </g>
                            <line x1="30.3597122" y1="114.820144" x2="44.8201439" y2="114.820144" id="Path" stroke-linejoin="round"></line>
                            <path d="M27.9856115,126.330935 L7.12230216,126.330935 C3.16546763,126.330935 0,123.165468 0,119.208633 L0,41.3669065 C0,37.4100719 3.16546763,34.2446043 7.12230216,34.2446043 L90,34.2446043 C93.9568345,34.2446043 97.1223022,37.4100719 97.1223022,41.3669065 L97.1223022,119.208633 C97.1223022,123.165468 93.9568345,126.330935 90,126.330935 L48.5611511,126.330935" id="Path" stroke-linejoin="round"></path>
                            <rect id="Rectangle" stroke-linejoin="round" x="64.028777" y="57.2661871" width="22.3021583" height="18.705036"></rect>
                            <rect id="Rectangle" stroke-linejoin="round" x="64.028777" y="81.7266187" width="22.3021583" height="33.0935252"></rect>
                            <line x1="6.47482014" y1="46.4748201" x2="97.1223022" y2="46.4748201" id="Path" stroke-linejoin="round"></line>
                            <path d="M119.42446,77.1942446 L119.42446,85.3956835 C119.42446,89.352518 116.258993,92.5179856 112.302158,92.5179856 L97.1223022,92.5179856" id="Path" stroke-linejoin="round"></path>
                            <line x1="119.42446" y1="70.2158273" x2="119.42446" y2="71.8705036" id="Path" stroke-linejoin="round"></line>
                            <path d="M74.8201439,28.4892086 L74.8201439,7.55395683 C74.8201439,3.5971223 77.9856115,0.431654676 81.942446,0.431654676 L112.302158,0.431654676 C116.258993,0.431654676 119.42446,3.5971223 119.42446,7.55395683 L119.42446,65.1079137" id="Path" stroke-linejoin="round"></path>
                            <line x1="74.8201439" y1="12.6618705" x2="119.42446" y2="12.6618705" id="Path" stroke-linejoin="round"></line>
                            <path d="M35.4676259,7.05035971 L37.0503597,10.3597122 L40.647482,10.8633094 C42.5179856,11.1510791 43.2374101,13.381295 41.8705036,14.676259 L39.2805755,17.1942446 L39.9280576,20.7913669 C40.2158273,22.5899281 38.3453237,24.028777 36.6906475,23.1654676 L33.4532374,21.4388489 L30.2158273,23.1654676 C28.5611511,24.028777 26.6906475,22.6618705 26.9784173,20.7913669 L27.6258993,17.1942446 L25.0359712,14.676259 C23.7410072,13.381295 24.4604317,11.1510791 26.2589928,10.8633094 L29.8561151,10.3597122 L31.4388489,7.05035971 C32.2302158,5.39568345 34.6043165,5.39568345 35.4676259,7.05035971 Z" id="Path" stroke-linejoin="round"></path>
                            <path d="M123.884892,109.496403 L125.035971,111.798561 L127.553957,112.158273 C128.848921,112.374101 129.352518,113.956835 128.417266,114.820144 L126.546763,116.618705 L126.978417,119.136691 C127.194245,120.431655 125.827338,121.438849 124.676259,120.791367 L122.374101,119.568345 L120.071942,120.791367 C118.920863,121.366906 117.553957,120.431655 117.769784,119.136691 L118.201439,116.618705 L116.330935,114.820144 C115.395683,113.884892 115.899281,112.302158 117.194245,112.158273 L119.71223,111.798561 L120.863309,109.496403 C121.654676,108.345324 123.309353,108.345324 123.884892,109.496403 Z" id="Path" stroke-linejoin="round"></path>
                        </g>
                    </g>
                </g>
            </g>
        </g>
    </g>
</svg>