<?xml version="1.0" encoding="UTF-8"?>
<svg width="24px" height="24px" viewBox="0 0 24 24" version="1.1" xmlns="http://www.w3.org/2000/svg" xmlns:xlink="http://www.w3.org/1999/xlink">
    <!-- Generator: Sketch 63.1 (92452) - https://sketch.com -->
    <title>icon-ok</title>
    <desc>Created with Sketch.</desc>
    <g id="Resellers" stroke="none" stroke-width="1" fill="none" fill-rule="evenodd">
        <g id="Resellers/Pricing" transform="translate(-626.000000, -361.000000)" fill="#17AB4D">
            <g id="Icon/Success" transform="translate(624.000000, 359.000000)">
                <path d="M14,2 C15.6306818,2 17.1860795,2.31676136 18.6661932,2.95028409 C20.1463068,3.58380682 21.421875,4.43607955 22.4928977,5.50710227 C23.5639205,6.578125 24.4161932,7.85369318 25.0497159,9.33380682 C25.6832386,10.8139205 26,12.3693182 26,14 C26,15.6306818 25.6832386,17.1860795 25.0497159,18.6661932 C24.4161932,20.1463068 23.5639205,21.421875 22.4928977,22.4928977 C21.421875,23.5639205 20.1463068,24.4161932 18.6661932,25.0497159 C17.1860795,25.6832386 15.6306818,26 14,26 C12.3693182,26 10.8139205,25.6832386 9.33380682,25.0497159 C7.85369318,24.4161932 6.578125,23.5639205 5.50710227,22.4928977 C4.43607955,21.421875 3.58380682,20.1463068 2.95028409,18.6661932 C2.31676136,17.1860795 2,15.6306818 2,14 C2,12.3693182 2.31676136,10.8139205 2.95028409,9.33380682 C3.58380682,7.85369318 4.43607955,6.578125 5.50710227,5.50710227 C6.578125,4.43607955 7.85369318,3.58380682 9.33380682,2.95028409 C10.8139205,2.31676136 12.3693182,2 14,2 Z M19.9189624,9 C20.2173738,9 20.4721496,9.10860122 20.6832898,9.32580365 C20.8944299,9.54300608 21,9.80509702 21,10.1120765 C21,10.4190559 20.8930223,10.6825948 20.679067,10.9026933 L13.1202493,18.6785404 C12.9119244,18.8928468 12.6585562,19 12.3601448,19 C12.056103,19 11.7999196,18.8928468 11.5915946,18.6785404 L7.31248743,14.2852592 C7.10416248,14.0709528 7,13.8074138 7,13.4946423 C7,13.1876629 7.10557008,12.925572 7.31671024,12.7083695 C7.52785039,12.4911671 7.78262618,12.3825659 8.0810376,12.3825659 C8.37944902,12.3825659 8.63563242,12.4926151 8.84958777,12.7127136 L12.3601448,16.324066 L19.1504122,9.3301477 C19.3643676,9.11004923 19.620551,9 19.9189624,9 Z" id="Icon"></path>
            </g>
        </g>
    </g>
</svg>