<?xml version="1.0" encoding="UTF-8"?>
<svg width="216px" height="216px" viewBox="0 0 216 216" version="1.1" xmlns="http://www.w3.org/2000/svg" xmlns:xlink="http://www.w3.org/1999/xlink">
    <!-- Generator: Sketch 53.2 (72643) - https://sketchapp.com -->
    <title>logo/m color</title>
    <desc>Created with Sketch.</desc>
    <g id="logo/m-color" stroke="none" stroke-width="1" fill="none" fill-rule="evenodd">
        <rect fill="#0090E0" x="0" y="0" width="216" height="216"></rect>
        <path d="M64.2022901,81.9274809 C69.870229,73.5114504 78.1145038,67.5 90.1374046,67.5 C104.049618,67.5 112.980916,74.0267176 116.931298,84.6755725 C122.599237,75.0572519 131.358779,67.5 145.270992,67.5 C166.568702,67.5 175.5,81.0687023 175.5,100.820611 L175.5,142.385496 C175.5,151.145038 171.034351,153.89313 164.679389,153.89313 L162.274809,153.89313 C155.748092,153.89313 151.282443,151.316794 151.282443,142.385496 L151.282443,104.770992 C151.282443,93.6068702 146.301527,87.7671756 136.683206,87.7671756 C129.641221,87.7671756 123.458015,92.0610687 120.022901,98.0725191 L120.022901,142.385496 C120.022901,151.145038 115.557252,153.89313 109.374046,153.89313 L106.79771,153.89313 C100.442748,153.89313 95.8053435,151.316794 95.8053435,142.385496 L95.8053435,105.28626 C95.8053435,93.6068702 90.9961832,87.7671756 81.3778626,87.7671756 C74.3358779,87.7671756 68.1526718,92.0610687 64.7175573,98.0725191 L64.7175573,142.385496 C64.7175573,151.145038 60.2519084,153.89313 54.0687023,153.89313 L51.4923664,153.89313 C44.9656489,153.89313 40.5,151.316794 40.5,142.385496 L40.5,71.278626 C40.5,70.5916031 44.7938931,68.5305344 49.6030534,68.5305344 C55.7862595,68.5305344 62.4847328,71.278626 64.2022901,81.9274809 Z" id="m" fill="#FFFFFF"></path>
    </g>
</svg>