<?xml version="1.0" encoding="UTF-8"?>
<svg width="552px" height="109px" viewBox="0 0 552 109" version="1.1" xmlns="http://www.w3.org/2000/svg" xmlns:xlink="http://www.w3.org/1999/xlink">
    <!-- Generator: Sketch 63.1 (92452) - https://sketch.com -->
    <title>logo-marketgoo</title>
    <desc>Created with Sketch.</desc>
    <g id="End-users" stroke="none" stroke-width="1" fill="none" fill-rule="evenodd">
        <g id="Desktop-HD" transform="translate(-444.000000, -169.000000)" fill="#0090DA">
            <g id="Logo/marketgoo" transform="translate(440.000000, 165.000000)">
                <path d="M20.501408,37.4811178 C24.4473969,31.6219222 30.1870171,27.4367824 38.5572966,27.4367824 C48.2429056,27.4367824 54.4608275,31.9806484 57.2110622,39.3943245 C61.1570511,32.6981009 67.2553975,27.4367824 76.9410066,27.4367824 C91.7683587,27.4367824 97.9862806,36.8832407 97.9862806,50.634414 L97.9862806,79.5716658 C97.9862806,85.6700123 94.8773197,87.583219 90.4530291,87.583219 L88.7789732,87.583219 C84.2351072,87.583219 81.1261463,85.7895877 81.1261463,79.5716658 L81.1261463,53.3846487 C81.1261463,45.6122464 77.6584591,41.5466821 70.9622355,41.5466821 C66.0596433,41.5466821 61.7549282,44.5360676 59.3634197,48.7212073 L59.3634197,79.5716658 C59.3634197,85.6700123 56.2544588,87.583219 51.9497437,87.583219 L50.1561124,87.583219 C45.7318218,87.583219 42.5032854,85.7895877 42.5032854,79.5716658 L42.5032854,53.743375 C42.5032854,45.6122464 39.1551737,41.5466821 32.4589501,41.5466821 C27.5563579,41.5466821 23.2516427,44.5360676 20.8601343,48.7212073 L20.8601343,79.5716658 C20.8601343,85.6700123 17.7511734,87.583219 13.4464582,87.583219 L11.6528269,87.583219 C7.10896094,87.583219 4,85.7895877 4,79.5716658 L4,30.0674417 C4,29.58914 6.98938552,28.154235 10.3374973,28.154235 C14.6422124,28.154235 19.3056538,30.0674417 20.501408,37.4811178 Z M128.318579,77.4193083 C136.688858,77.4193083 142.548054,71.9188389 142.548054,64.266012 L142.548054,60.9179002 L139.439093,61.0374756 C126.166221,61.3962019 119.230847,64.0268611 119.230847,70.3643584 C119.230847,74.6690736 122.698534,77.4193083 128.318579,77.4193083 Z M142.548054,51.7105928 C142.548054,44.1773413 138.362914,40.111777 130.590512,40.111777 C122.459383,40.111777 118.274244,44.5360676 116.121886,49.0799336 C116.121886,49.3190844 105.240523,49.6778107 105.240523,41.9054083 C105.240523,34.6113077 113.849953,27.4367824 131.666691,27.4367824 C150.081306,27.4367824 159.169037,35.8070619 159.169037,51.471442 L159.169037,86.0287385 C159.169037,86.8657665 156.060077,87.9419453 152.83154,87.9419453 C147.570222,87.9419453 143.863384,85.0721352 142.90678,78.6150625 C138.721641,84.7134089 131.42754,88.4202469 122.698534,88.4202469 C110.501841,88.4202469 103.088165,81.4848726 103.088165,71.5601126 C103.088165,58.1676655 115.045707,52.0693191 140.634847,51.7105928 L142.548054,51.7105928 Z M184.000866,38.0789949 C186.392375,31.3827713 191.175392,27.4367824 198.230342,27.4367824 C205.046141,27.4367824 209.111705,31.2631959 209.111705,37.2419669 C209.111705,43.9381905 203.969962,46.3296989 203.730811,46.0905481 C201.93718,44.4164922 199.30652,43.220738 196.077984,43.220738 C187.82728,43.220738 184.240017,50.3952632 184.240017,62.1136544 L184.240017,79.5716658 C184.240017,85.6700123 181.131056,87.583219 176.826341,87.583219 L175.03271,87.583219 C170.488844,87.583219 167.379883,85.7895877 167.379883,79.5716658 L167.379883,30.0674417 C167.379883,29.58914 170.369269,28.154235 173.71738,28.154235 C178.141671,28.154235 182.924688,30.1870171 184.000866,38.0789949 Z M229.87797,60.2004477 L229.87797,79.5716658 C229.87797,85.6700123 226.769009,87.583219 222.464293,87.583219 L220.670662,87.583219 C216.126796,87.583219 213.017835,85.7895877 213.017835,79.5716658 L213.017835,5.91320673 C213.017835,5.31532963 216.007221,4 219.355333,4 C224.3775,4 229.87797,6.63065925 229.87797,17.5120225 L229.87797,54.1021012 L246.259802,33.4155535 C249.010037,29.4695646 252.597299,28.0346595 255.46711,28.0346595 C260.967579,28.0346595 265.033143,32.9372518 264.554842,33.7742797 L246.259802,56.6131851 L266.94635,82.0827497 C267.424652,82.9197776 263.119936,87.8223698 257.739043,87.8223698 C254.630082,87.8223698 251.162394,86.5070402 248.173009,82.4414759 L229.87797,60.2004477 Z M281.255542,52.6671962 L309.834067,52.6671962 C309.475341,44.5360676 304.333598,39.1551737 296.202469,39.1551737 C288.310492,39.1551737 282.331721,44.7752184 281.255542,52.6671962 Z M281.255542,62.4723807 C282.451296,71.2013864 289.027944,76.3431295 298.115676,76.3431295 C306.964257,76.3431295 311.86685,72.3971406 314.617084,67.7336992 C314.73666,67.4945483 322.748213,68.5707271 322.748213,75.3865261 C322.748213,81.604448 313.780056,88.6593978 297.517799,88.6593978 C278.505307,88.6593978 265.949888,76.8214312 265.949888,58.4068164 C265.949888,40.5900787 278.744458,27.4367824 296.44162,27.4367824 C313.660481,27.4367824 325.498448,39.5138999 325.498448,56.6131851 L325.498448,57.8089393 C325.378872,60.7983248 324.541844,62.4723807 321.432883,62.4723807 L281.255542,62.4723807 Z M335.861651,41.9054083 L332.991841,41.9054083 C328.208824,41.9054083 325.936891,39.8726262 325.936891,36.0462127 L325.936891,34.9700339 C325.936891,30.9044696 328.208824,28.7521121 332.991841,28.7521121 L335.861651,28.7521121 L335.861651,21.338436 C335.861651,15.8379666 338.731461,13.2073074 343.514478,13.2073074 L344.949383,13.2073074 C349.493249,13.2073074 352.482634,15.1205141 352.482634,21.338436 L352.482634,28.7521121 L362.646545,28.7521121 C367.429562,28.7521121 369.462344,30.7848942 369.462344,34.7308831 L369.462344,35.6874865 C369.462344,39.7530508 367.309986,41.9054083 362.407394,41.9054083 L352.123908,41.9054083 L352.123908,66.7770958 C352.123908,72.516716 354.037115,75.3865261 358.580981,75.3865261 C362.048668,75.3865261 364.320601,73.7124702 366.114232,71.4405372 C366.353383,71.081811 370.179796,73.353744 370.179796,78.0171854 C370.179796,83.876381 364.320601,88.6593978 354.754567,88.6593978 C341.840422,88.6593978 335.861651,81.8435988 335.861651,68.6903025 L335.861651,41.9054083 Z M398.359737,87.1049173 C389.989458,87.7027944 383.771536,90.4530291 383.771536,95.1164705 C383.771536,99.1820348 388.554553,101.693119 398.240162,101.693119 C407.925771,101.693119 413.306665,99.0624594 413.306665,94.5185934 C413.306665,89.855152 406.012564,88.7789732 398.359737,87.1049173 Z M398.479313,60.3200231 C405.055961,60.3200231 409.599827,55.8957325 409.599827,49.3190844 C409.599827,42.8620117 405.055961,38.4377211 398.359737,38.4377211 C391.902664,38.4377211 387.358798,42.7424363 387.358798,49.3190844 C387.358798,55.8957325 392.02224,60.3200231 398.479313,60.3200231 Z M411.034732,30.0674417 L413.545816,25.2844249 C415.817749,21.0992851 418.209257,19.4252293 421.916095,19.4252293 C427.894866,19.4252293 430.525525,26.2410282 430.166799,26.5997545 C430.166799,26.5997545 420.122464,36.2853636 420.002888,36.2853636 C423.351,39.7530508 425.264207,44.2969167 425.264207,49.3190844 C425.264207,61.7549282 414.861145,70.244783 398.598888,70.244783 L397.76186,70.244783 C397.642285,70.6035093 397.522709,71.081811 397.522709,71.4405372 C397.522709,74.6690736 403.142754,75.0277998 412.589212,77.4193083 C420.839916,79.6912412 429.449347,84.1155318 429.449347,93.9207163 C429.449347,105.160806 417.850531,112.335331 397.881435,112.335331 C377.075312,112.335331 367.748429,107.193588 367.748429,96.0730739 C367.748429,87.9419453 375.401256,82.4414759 386.043469,81.0065709 C384.608564,79.6912412 383.891111,77.8976099 383.891111,75.6256769 C383.891111,72.8754423 385.565167,70.3643584 387.8371,68.809878 C377.91234,65.9400679 371.813994,58.7655426 371.813994,49.5582353 C371.813994,37.0028161 382.934508,27.5563579 398.359737,27.5563579 C402.903603,27.5563579 407.208318,28.3933858 411.034732,30.0674417 Z M459.90122,88.6593978 C441.36703,88.6593978 428.811611,76.3431295 428.811611,58.0480901 C428.811611,39.9922016 441.606181,27.4367824 460.140371,27.4367824 C478.554986,27.4367824 491.110405,39.9922016 491.110405,58.1676655 C491.110405,76.3431295 478.554986,88.6593978 459.90122,88.6593978 Z M460.020796,75.3865261 C469.347679,75.3865261 476.283053,68.0924254 476.283053,58.1676655 C476.283053,48.0037548 469.467254,40.5900787 460.020796,40.5900787 C450.574337,40.5900787 443.638963,47.8841794 443.638963,58.0480901 C443.638963,68.0924254 450.574337,75.3865261 460.020796,75.3865261 Z M524.790815,88.6593978 C506.256625,88.6593978 493.701206,76.3431295 493.701206,58.0480901 C493.701206,39.9922016 506.495776,27.4367824 525.029966,27.4367824 C543.444581,27.4367824 556,39.9922016 556,58.1676655 C556,76.3431295 543.444581,88.6593978 524.790815,88.6593978 Z M524.910391,75.3865261 C534.237273,75.3865261 541.172648,68.0924254 541.172648,58.1676655 C541.172648,48.0037548 534.356849,40.5900787 524.910391,40.5900787 C515.463932,40.5900787 508.528558,47.8841794 508.528558,58.0480901 C508.528558,68.0924254 515.463932,75.3865261 524.910391,75.3865261 Z" id="marketgoo"></path>
            </g>
        </g>
    </g>
</svg>